<?xml version="1.0" standalone="no"?>
<!DOCTYPE svg PUBLIC "-//W3C//DTD SVG 1.1//EN" "http://www.w3.org/Graphics/SVG/1.1/DTD/svg11.dtd" >
<svg xmlns="http://www.w3.org/2000/svg">
<metadata></metadata>
<defs>
<font id="dombold_btregular" horiz-adv-x="991" >
<font-face units-per-em="2048" ascent="1556" descent="-492" />
<missing-glyph horiz-adv-x="496" />
<glyph horiz-adv-x="2048" />
<glyph horiz-adv-x="2048" />
<glyph unicode="&#xd;" horiz-adv-x="496" />
<glyph unicode=" "  horiz-adv-x="496" />
<glyph unicode="&#x09;" horiz-adv-x="496" />
<glyph unicode="&#xa0;" horiz-adv-x="496" />
<glyph unicode="!" horiz-adv-x="569" d="M86 137q0 79 51 141t109 62q90 0 148.5 -45.5t58.5 -120.5q0 -104 -48 -163.5t-131 -59.5q-70 0 -129 58t-59 128zM133 909q0 388 22 485t85 97q24 0 73 -24q9 -4 15 -7q108 -53 135 -90q3 -4 4 -4q4 0 17.5 -14.5t13.5 -26.5q0 -9 -10 -33t-13 -39q-4 -26 -10 -73.5 t-12 -102.5q-36 -274 -62 -520q-1 -13 -2 -19q-1 -13 -3 -38q-10 -117 -69 -117q-13 0 -53.5 8.5t-79.5 22.5q-12 4 -16 8.5t-8 21.5q-8 31 -17.5 170.5t-9.5 294.5z" />
<glyph unicode="&#x22;" horiz-adv-x="713" d="M76 877v561h219v-561h-219zM416 877v561h223v-561h-223z" />
<glyph unicode="#" horiz-adv-x="1575" d="M23 381l86 231h270l82 230h-283l86 231h279l141 393h250l-139 -393h235l141 393h250l-139 -393h270l-86 -231h-268l-80 -230h277l-84 -231h-275l-141 -393h-250l139 393h-235l-141 -393h-250l139 393h-274zM625 610h245l82 232h-245z" />
<glyph unicode="$" d="M119 283q0 31 40 73.5t68 42.5q23 0 120 -65.5t181 -65.5q30 0 49 17.5t19 42.5q0 38 -126 137q-77 60 -124 100q-95 81 -136.5 154t-41.5 155q0 105 42 181.5t159 167.5q22 18 46 28q17 8 17 49v13v61q0 57 5.5 72.5t21.5 15.5q13 0 23.5 5.5t11.5 5.5q8 0 34.5 -10.5 t44.5 -14.5q3 0 20 -1t28 -5q16 -6 24 -18t8 -29q0 -14 -3 -45t-3 -50v-30v-27q0 -21 45 -40t80 -46q59 -46 98 -123.5t39 -122.5q0 -14 -7 -27.5t-18 -17.5q-7 -3 -27.5 -4.5t-29.5 -3.5q-11 -2 -34 -8q-54 -14 -82 -14q-54 0 -79 57q-3 7 -5 12q-4 8 -10 22q-34 77 -80 77 q-24 0 -57.5 -39t-33.5 -78q0 -63 138 -162q61 -45 94 -72q123 -102 169 -174.5t46 -156.5q0 -104 -64 -184t-186 -128q-1 -10 -2 -26q-2 -34 -2 -47v-7q0 -3 2 -21.5t2 -33.5q0 -48 -14 -70t-45 -22q-7 0 -28 6t-36 6q-9 0 -26 -4t-25 -4q-24 0 -39.5 16t-15.5 39 q0 4 1.5 63t1.5 118q-130 61 -214 137t-84 123z" />
<glyph unicode="%" horiz-adv-x="1384" d="M49 903q0 78 32.5 162.5t94.5 167.5q31 41 67.5 71.5t45.5 30.5q7 0 23.5 -9t24.5 -11q9 -2 23 -4q71 -10 144 -60q57 -39 88 -108.5t31 -157.5q0 -146 -93.5 -279t-187.5 -133q-125 0 -209 97t-84 233zM240 57q0 21 176.5 290.5t453.5 668.5q99 143 196 267q11 14 13 17 q1 1 1 2q23 37 89 37q52 0 84.5 -23.5t32.5 -49.5q0 -3 -28 -34q-227 -242 -484 -620q-146 -213 -278 -439t-140 -226q-37 0 -61.5 10t-32.5 29q-6 14 -14 41t-8 30zM250 901q0 -60 18.5 -105.5t40.5 -45.5q31 0 73 81.5t42 174.5q0 55 -18.5 93t-43.5 38q-33 0 -72.5 -75 t-39.5 -161zM797 281q0 79 32 162t95 165q30 41 66.5 72t45.5 31q6 0 24.5 -9.5t29.5 -11.5q6 -1 19 -3q70 -11 142 -60q7 -5 18 -10q21 -10 36 -39q4 -9 14 -26q53 -93 53 -192q0 -146 -94 -278.5t-186 -132.5q-126 0 -210.5 98t-84.5 234zM997 276q0 -62 19 -106.5 t43 -44.5q31 0 71.5 80t40.5 174q0 57 -18 95t-43 38q-33 0 -73 -74t-40 -162z" />
<glyph unicode="&#x26;" horiz-adv-x="1104" d="M31 283q0 105 61.5 210t173.5 189q-61 69 -87.5 132t-26.5 136q0 84 36.5 168t106.5 160q61 66 145.5 111t126.5 45q45 0 102 -65l1 -1q14 -15 57.5 -46t67.5 -50q101 -88 133.5 -144t32.5 -127q0 -93 -64 -190.5t-190 -198.5q55 -62 91.5 -108.5t49.5 -71.5q20 8 53 21 q105 41 113 41q10 0 61 -45t51 -72q0 -55 -61 -98q-36 -26 -59 -46q16 -34 45 -87q41 -73 41 -101q0 -45 -35 -71.5t-72 -26.5q-78 0 -151 86q-29 34 -48 55q-116 -66 -234 -103.5t-210 -37.5q-43 0 -85 28t-132 131q-61 71 -77.5 105t-16.5 72zM317 264q0 -17 6.5 -25 t18.5 -8q48 0 116.5 20t123.5 52q-43 63 -67 91.5t-48 47.5q-66 -39 -108 -91t-42 -87zM461 958q0 -36 15.5 -74.5t38.5 -57.5l9 5q140 76 140 152q0 47 -36 92t-59 45q-37 0 -72.5 -54.5t-35.5 -107.5z" />
<glyph unicode="'" horiz-adv-x="371" d="M76 877v561h219v-561h-219z" />
<glyph unicode="(" horiz-adv-x="725" d="M211 373q0 249 47.5 518t126.5 473q3 8 10 26q38 101 76 101q45 0 102.5 -44.5t57.5 -78.5q0 -4 -10 -38q-42 -141 -72 -292q-33 -167 -49.5 -317t-16.5 -289q0 -330 120 -665q20 -54 20 -64q0 -31 -54 -50.5t-141 -19.5q-94 0 -155.5 205t-61.5 535z" />
<glyph unicode=")" horiz-adv-x="725" d="M74 -299q0 26 36 126.5t56 168.5q57 189 79.5 328.5t22.5 279.5q0 404 -130 765q-19 54 -19 65q0 29 47.5 45t132.5 16q87 0 161.5 -260t74.5 -600q0 -98 -10 -211.5t-29 -235.5q-22 -138 -50.5 -261t-52.5 -187q-24 -65 -49 -86t-84 -21q-13 0 -35.5 4.5t-31.5 4.5 q-5 0 -14 -1t-13 -1q-38 0 -65 17t-27 44z" />
<glyph unicode="*" horiz-adv-x="973" d="M72 1116q0 56 18.5 79.5t61.5 23.5q52 0 147.5 -68t99.5 -68q8 0 13.5 7.5t5.5 19.5q0 10 -19.5 57t-31.5 86q-7 21 -17 40.5t-10 25.5q0 46 55 84.5t101 38.5q37 0 56 -24t19 -70q0 -41 -20.5 -128.5t-20.5 -117.5q1 -14 3 -18.5t8 -4.5q29 0 82.5 84t99.5 84 q50 0 113 -44.5t63 -84.5q0 -26 -39.5 -56.5t-93.5 -45.5q-39 -12 -104.5 -19.5t-65.5 -27.5t31 -43.5t109 -59.5q7 -2 24.5 -27.5t17.5 -45.5q0 -57 -34.5 -113.5t-71.5 -56.5q-31 0 -73 44.5t-64 104.5q-9 21 -21 55q-25 70 -35 70q-17 0 -31.5 -36t-23.5 -101 q-11 -78 -41.5 -102.5t-101.5 -24.5q-63 0 -89 20.5t-26 67.5q0 15 32 68.5t64 78.5q15 12 44 34q65 47 65 59q0 15 -21.5 21.5t-77.5 6.5q-7 0 -32.5 -7t-44.5 -7q-49 0 -86 49t-37 92z" />
<glyph unicode="+" horiz-adv-x="1706" d="M254 496v231h481v494h238v-494h479v-231h-479v-496h-238v496h-481z" />
<glyph unicode="," horiz-adv-x="532" d="M102 -143q0 26 10 134.5t25 233.5q2 15 5 43q10 107 51 107q2 0 6 -1t6 -1q6 0 16.5 4t14.5 4q2 0 55 -19.5t67 -27.5q38 -22 49 -35t11 -31q0 -15 -29 -133l-4 -16q-13 -52 -36 -127.5t-23 -91.5q0 -4 -11.5 -42.5t-25.5 -80.5q-5 -11 -18 -15t-44 -4q-67 0 -96 21 t-29 78z" />
<glyph unicode="-" horiz-adv-x="664" d="M82 530q0 22 2.5 29.5t9.5 7.5q4 0 8.5 -3t6.5 -3q3 0 7 4t5 4q4 0 11.5 -2t12.5 -2q2 0 18.5 4t33.5 4q20 0 50 -1t40 -1q16 0 38.5 1t28.5 1q129 0 169 -9.5t40 -35.5q0 -6 -2 -12l-2 -6q0 -2 4 -9q21 -40 21 -95q0 -36 -5 -44t-18 -8q-2 0 -9.5 3t-12.5 3t-43.5 -8 t-71.5 -8q-19 0 -54 5t-51 5q-11 0 -38 -4t-41 -4q-11 0 -25 1t-18 1q-10 0 -21 -1t-14 -1q-23 0 -51.5 62.5t-28.5 121.5z" />
<glyph unicode="." horiz-adv-x="532" d="M86 154q0 78 50 147.5t97 69.5q87 0 147 -65.5t60 -162.5q0 -80 -51 -138t-102 -58q-84 0 -137.5 45t-53.5 106q0 12 -5 30t-5 26z" />
<glyph unicode="/" horiz-adv-x="840" d="M-25 -96q0 6 117.5 293.5t263.5 633.5q17 40 49 117q125 300 207 434q8 13 19 40q23 55 57 55q53 0 109.5 -36t56.5 -69q0 -7 -18.5 -28.5t-32.5 -40.5q-51 -69 -130 -234t-233 -526q-83 -196 -176 -463q-86 -250 -139 -250h-16q-7 0 -18 -3t-17 -3q-39 0 -69 31.5 t-30 48.5z" />
<glyph unicode="0" d="M68 545q0 20 1 50t1 40q0 141 44.5 284t133.5 287q48 79 83 105t85 26q89 0 199.5 -40.5t181.5 -102.5q76 -68 120 -216.5t44 -342.5q0 -275 -118 -480.5t-276 -205.5q-56 0 -155 26.5t-138 53.5q-101 72 -153.5 203.5t-52.5 312.5zM385 446q0 -107 25.5 -174t64.5 -67 q57 0 102.5 144t45.5 356q0 141 -26.5 253.5t-57.5 112.5q-47 0 -100.5 -198.5t-53.5 -426.5z" />
<glyph unicode="1" d="M221 903q0 4 22 31q106 129 171 276q4 11 12 30q38 91 74 91q7 0 17.5 -1t12.5 -1q4 0 15.5 1t19.5 1q22 0 105 -38q21 -10 33 -15l4 -2q63 -29 63 -82q0 -12 -5 -72q-26 -316 -26 -628q0 -156 4 -320v-43q0 -115 -11 -144.5t-68 -29.5h-11q-21 0 -80 11t-96 24 q-36 12 -58 75t-22 158q0 110 5.5 267.5t15.5 350.5q-10 -2 -27 -14t-33 -12h-2q-54 0 -94.5 29.5t-40.5 56.5z" />
<glyph unicode="2" d="M90 909q0 27 46 86.5t145 159.5q89 92 162 134t145 42q69 0 121 -68q25 -32 42 -48q8 -7 30 -21q151 -95 151 -242q0 -85 -53.5 -216t-135.5 -234q-40 -52 -90.5 -105.5t-50.5 -58.5t6 -8.5t17 -3.5q2 0 17.5 1t27.5 1q139 0 198.5 -61t59.5 -197q0 -32 -15 -60t-32 -28 q-3 0 -15 1q-127 17 -313 17q-109 0 -218 -15q-22 -3 -28 -3q-46 0 -70.5 10.5t-54.5 56.5q-24 37 -48.5 70t-24.5 37q0 24 5 52.5t9 35.5q1 2 13 11q95 73 188 202q132 183 221.5 354t89.5 211q0 9 -4.5 13.5t-14.5 4.5q-11 0 -54 -30.5t-83 -71.5q-42 -43 -91 -100 q-62 -72 -118 -72q-54 0 -117 57.5t-63 85.5z" />
<glyph unicode="3" d="M135 182q0 40 7 65t24 46q26 -7 53 -10.5t53 -3.5q113 0 198 49t85 98q0 25 -58.5 57.5t-123.5 32.5q-33 0 -65 -11t-36 -11q-29 0 -68.5 66t-39.5 126q0 26 14 47t29 21q5 0 11.5 -2l6.5 -2q14 0 105 39.5t145 78.5q61 45 98 91t37 73q0 8 -10.5 14.5t-24.5 6.5 q-102 0 -241 -103q-14 -10 -15 -10q-5 0 -36 13.5t-56 29.5q-9 6 -15.5 27.5t-12.5 31.5q-16 27 -20 64.5t-5 40.5t-7.5 7.5t-6.5 12.5q0 36 48 48q3 1 4 1q17 6 63 32q150 87 264 87q97 0 179 -87q22 -24 35 -37q79 -76 111.5 -129.5t32.5 -108.5q0 -81 -56 -158t-169 -153 q0 -25 47 -54q25 -16 38 -26q66 -51 91.5 -97t25.5 -108q0 -172 -158 -296t-370 -124q-77 0 -108.5 11.5t-44.5 41.5q-29 66 -54 135v3q-4 15 -4 34z" />
<glyph unicode="4" d="M47 485q0 54 56.5 198t148.5 314q43 81 99 195q71 145 106 145q18 0 51.5 -4t48.5 -4q6 0 17 2t16 2q18 0 103 -22.5t148 -50.5q23 -12 28 -17.5t5 -13.5q0 -2 -1 -11q-15 -79 -15 -184v-51q0 -12 -3 -104.5t-3 -171.5q0 -17 1 -54.5t1 -58.5q4 -1 13 -4q31 -8 42 -8 q40 0 60 -54.5t20 -162.5q0 -5 -1.5 -9t-7.5 -12h-40q-27 0 -52.5 -2.5t-49.5 -7.5q-2 -54 -3 -103t-1 -92q0 -41 1 -89t1 -54q0 -1 -1 -7q-1 -18 -1 -36q-16 -9 -31 -12.5t-39 -3.5q-52 0 -112 9t-85 17q-27 10 -38 71t-11 208q0 8 1 21.5t1 19.5q0 19 -0.5 30.5t-1.5 20.5 h-51q-108 0 -184 -18q-11 -3 -13 -3q-20 0 -72 40q-42 31 -73 53q-6 4 -21 13q-57 34 -57 66zM338 627q0 -8 7 -13.5t17 -5.5t26.5 1t23.5 1q3 0 16 -1q55 -6 108 -9q11 176 28 331q3 26 3 30q0 10 -4.5 16t-11.5 6q-12 0 -58 -77l-1 -2q-61 -103 -107.5 -188t-46.5 -89z " />
<glyph unicode="5" d="M166 238q0 22 73 34q61 9 103 19q121 28 178.5 63.5t57.5 81.5q0 51 -43 87t-99 36q-36 0 -67 -9.5t-64 -31.5q-71 36 -102 61.5t-31 49.5q0 7 10 64l2 13q0 2 1 5q14 99 38 229q10 54 36.5 171t29.5 171q20 18 130 33.5t247 15.5q8 0 23.5 -1t23.5 -1t23 1t22 1 q74 0 86 -72q1 -6 2 -10q2 -9 16 -42.5t17 -64.5q4 -49 13 -80l1 -5q0 -30 -133 -40q-113 -9 -195 -20q-23 -60 -38 -125t-15 -98q92 -14 186 -67q128 -73 176 -140.5t48 -160.5q0 -118 -70.5 -200.5t-253.5 -168.5q-73 -34 -139.5 -61t-71.5 -27q-76 0 -148.5 96.5 t-72.5 192.5z" />
<glyph unicode="6" d="M111 430q0 178 57 358t172 363q62 99 97 144.5t48 45.5q72 0 132.5 -18t82.5 -49q10 -15 22.5 -45.5t12.5 -34.5q0 -6 -27 -39q-139 -172 -196 -368q6 1 18 4q33 8 45 8q15 0 75 -16.5t98 -37.5q97 -51 149.5 -131t52.5 -178q0 -182 -116 -333.5t-259 -151.5 q-74 0 -162 37t-155 96q-81 72 -114 150t-33 196zM410 309q0 -57 13 -81.5t44 -24.5q56 0 103.5 77t47.5 173q0 37 -9.5 64.5t-22.5 31.5t-43.5 9t-34.5 5q-51 0 -74.5 -61t-23.5 -193z" />
<glyph unicode="7" d="M168 1051q0 10 3 44t3 58v51q0 41 8 65.5t21 24.5q8 0 20.5 -2t16.5 -2q2 0 113.5 14.5t219.5 14.5q165 0 192 -58l5 -10q20 -38 73.5 -83t53.5 -91q0 -1 -118 -290t-195 -590q-9 -35 -23 -91q-36 -153 -84 -153q-18 0 -57 17t-117 61q-26 15 -37.5 45t-11.5 82 q0 169 180 562q77 169 117 265q-12 0 -45.5 1t-52.5 1q-43 0 -94 -1t-60 -1q-22 0 -44.5 2t-23.5 2q-2 0 -9 -1t-11 -1q-22 0 -32.5 15t-10.5 49z" />
<glyph unicode="8" d="M90 348q0 88 47.5 172t138.5 158q-72 87 -100.5 147.5t-28.5 120.5q0 70 37 140t111 141q62 58 115 86t102 28q100 0 193 -71q15 -11 22 -17l18 -12q183 -127 183 -287q0 -85 -44.5 -159.5t-148.5 -161.5q23 -28 68 -77q127 -136 127 -234q0 -138 -115 -249.5 t-258 -111.5q-87 0 -191.5 42t-162.5 99q-53 53 -83 118t-30 128zM391 285q0 -42 22.5 -67t59.5 -25q50 0 91.5 51t41.5 112q0 43 -24 87t-47 44q-27 0 -85.5 -74.5t-58.5 -127.5zM432 870q0 -37 13.5 -60.5t39.5 -31.5q64 56 103 119t39 107q0 27 -21.5 56.5t-36.5 29.5 q-28 0 -82.5 -72t-54.5 -148z" />
<glyph unicode="9" d="M90 805q0 189 115.5 356.5t230.5 167.5q19 0 102.5 -29t123.5 -40q135 -38 209.5 -158.5t74.5 -300.5q0 -166 -119.5 -400t-341.5 -499q-104 40 -155 85.5t-51 96.5q0 4 69.5 111.5t124.5 226.5h-29q-40 0 -99.5 26t-100.5 66q-10 10 -34 28q-120 94 -120 263zM389 705 q0 -22 10.5 -36t28.5 -14q5 0 15 2t14 2t17 -3t22 -3q76 0 100.5 49t24.5 164v15q0 83 -27.5 129.5t-75.5 46.5q-33 0 -81 -123t-48 -229z" />
<glyph unicode=":" horiz-adv-x="532" d="M86 154q0 78 50 147.5t97 69.5q87 0 147 -65.5t60 -162.5q0 -80 -51 -138t-102 -58q-84 0 -137.5 45t-53.5 106q0 12 -5 30t-5 26zM98 758q0 78 50.5 147.5t97.5 69.5q86 0 146.5 -65.5t60.5 -161.5q0 -81 -52 -139t-106 -58q-81 0 -133.5 44.5t-52.5 104.5q0 12 -5.5 31 t-5.5 27z" />
<glyph unicode=";" horiz-adv-x="532" d="M98 758q0 78 50.5 147.5t97.5 69.5q86 0 146.5 -65.5t60.5 -161.5q0 -81 -52 -139t-106 -58q-81 0 -133.5 44.5t-52.5 104.5q0 12 -5.5 31t-5.5 27zM115 -143q0 19 10.5 129t26.5 240q1 13 4 41q10 108 51 108q2 0 6 -1t6 -1q7 0 17 4t14 4q3 0 55.5 -19.5t67.5 -27.5 q35 -21 46 -34t11 -32q0 -15 -29 -133l-4 -16q-12 -48 -34.5 -125t-22.5 -94q0 -4 -11.5 -42.5t-25.5 -80.5q-4 -11 -18 -15t-45 -4q-68 0 -96.5 21t-28.5 78z" />
<glyph unicode="&#x3c;" horiz-adv-x="1706" d="M264 494v233l1178 487v-253l-854 -351l854 -348v-254z" />
<glyph unicode="=" horiz-adv-x="1706" d="M254 272v230h1198v-230h-1198zM254 719v231h1198v-231h-1198z" />
<glyph unicode="&#x3e;" horiz-adv-x="1706" d="M264 8v254l854 348l-854 351v253l1178 -487v-233z" />
<glyph unicode="?" horiz-adv-x="858" d="M53 1178q0 54 84 121l15 12q69 56 165.5 94.5t151.5 38.5q111 0 240 -123.5t129 -263.5q0 -66 -31.5 -131.5t-120.5 -171.5q-37 -45 -103 -115q-114 -123 -114 -168q0 -21 12.5 -41t12.5 -27q0 -21 -22.5 -38t-35.5 -17q-7 0 -35 7t-49 7q-26 0 -47.5 3t-30.5 8 q-34 14 -83.5 60.5t-49.5 70.5q0 67 246 373l21 26q22 28 60 76q95 116 95 139q0 16 -7.5 23.5t-23.5 7.5q-41 0 -100 -28.5t-174 -108.5q-17 -12 -39 -35t-37 -23q-39 0 -84 76t-45 148zM147 113q0 80 46.5 137t117.5 57q75 0 145 -49.5t70 -97.5q0 -119 -32.5 -169 t-106.5 -50q-36 0 -81 22q-9 4 -14 7q-2 1 -25 3.5t-40 10.5q-32 17 -56 57.5t-24 71.5z" />
<glyph unicode="@" horiz-adv-x="2048" d="M82 520q0 169 53 320.5t156 277.5q148 183 359.5 278t467.5 95q170 0 320 -46t260 -132q136 -107 203 -243t67 -306q0 -167 -65.5 -307t-190.5 -240q-69 -56 -154 -85.5t-176 -29.5q-106 0 -161 40t-60 120q-56 -82 -126.5 -120t-168.5 -38q-163 0 -247 87.5t-84 257.5 q0 241 141.5 404t349.5 163q77 0 134 -30.5t95 -92.5l52 92h206l-153 -610q0 -2 -1 -6q-3 -18 -3 -27q0 -30 16 -44.5t47 -14.5q137 0 240.5 143.5t103.5 335.5q0 239 -179.5 390t-467.5 151q-148 0 -274 -36.5t-230 -109.5q-155 -110 -239 -274.5t-84 -356.5 q0 -302 203 -481.5t544 -179.5q164 0 316 47.5t280 138.5l97 -135q-156 -117 -329 -175t-364 -58q-192 0 -354.5 49t-288.5 145q-157 122 -234 281.5t-77 361.5zM778 444q0 -83 35 -128.5t98 -45.5q84 0 148 59t88 158l51 209q-9 76 -50 116t-110 40q-103 0 -181.5 -121.5 t-78.5 -286.5z" />
<glyph unicode="A" horiz-adv-x="1057" d="M41 29q0 80 68.5 434t173.5 737q12 46 27 115q27 123 106 123q55 0 150 -28q21 -6 32 -9q14 -4 66.5 -13.5t85.5 -23.5q74 -32 84 -158q3 -39 6 -58q21 -131 53.5 -344.5t44.5 -287.5q24 -153 50 -311t26 -164q0 -16 -48 -37.5t-110 -21.5h-37q-91 0 -108 80q-1 7 -2 12 q-30 120 -42.5 155t-23.5 35q-16 0 -52 -2t-56 -2q-53 0 -102 -7q-9 -1 -11 -1q-3 0 -9 1t-10 1q-17 0 -27 -85q-10 -92 -24 -159q-6 -30 -12 -71q-8 -54 -39 -54q-5 0 -34 1t-54 1q-13 0 -51.5 20.5t-99.5 59.5q-12 9 -16.5 22.5t-4.5 39.5zM442 569q1 -13 6 -16.5t19 -3.5 q8 0 20 -2h2q73 0 88 5t15 34q0 8 -10.5 86t-18.5 144q-7 56 -12 126q-4 62 -16 62t-18 -46q-5 -36 -9 -61q-25 -154 -58 -293q-8 -32 -8 -35z" />
<glyph unicode="B" horiz-adv-x="1071" d="M141 319v93q0 40 1 156.5t1 193.5q0 164 7 348q2 47 2 57q0 75 5 148q1 12 1 14v14q0 34 113 58t286 24q106 0 182.5 -29.5t149.5 -99.5q84 -80 118.5 -144.5t34.5 -135.5q0 -94 -59 -183.5t-174 -168.5q110 -52 161.5 -128.5t51.5 -187.5q0 -73 -50 -143.5t-130 -114.5 q-125 -68 -242.5 -107.5t-179.5 -39.5q-65 0 -153.5 47.5t-102.5 74.5q-7 11 -15 88t-8 166zM434 326q0 -22 9.5 -29.5t31.5 -7.5q69 0 157.5 55.5t88.5 104.5q0 42 -67.5 90.5t-135.5 48.5q-12 0 -31 -13q-5 -4 -7 -5q-12 -1 -20 -12.5t-11 -32.5q-4 -21 -9.5 -88.5 t-5.5 -110.5zM463 860q0 -23 5.5 -30t20.5 -7q68 0 158 84.5t90 163.5q0 38 -35.5 58t-103.5 20q-65 0 -93 -9t-28 -38v-8q0 -72 -7 -150t-7 -84z" />
<glyph unicode="C" horiz-adv-x="987" d="M53 559q0 115 34 267t93 296q32 80 71.5 147.5t82.5 115.5q7 7 18 19q17 20 22 21q46 8 89.5 12.5t60.5 4.5q197 0 289 -123t92 -387q0 -59 -7 -114q-1 -10 -1 -11q0 -31 -125 -38q-11 -1 -16 -1q-71 0 -105.5 39t-42.5 125q0 97 -11 140.5t-36 43.5q-17 0 -41 -52.5 t-59 -172.5q-5 -18 -13 -51q-59 -224 -59 -351t25.5 -186t81.5 -59q72 0 133 76t110 227h13q12 0 26.5 7t16.5 7q34 0 117 -66q13 -10 19 -15q10 -8 25 -16q19 -10 19 -24v-8q0 -4 4 -17t4 -22q0 -42 -29.5 -121.5t-76.5 -152.5q-56 -85 -132 -130.5t-161 -45.5 q-238 0 -384.5 171.5t-146.5 444.5z" />
<glyph unicode="D" horiz-adv-x="1028" d="M137 279q0 41 3 141.5t3 159.5q0 14 -1 61t-1 80q0 48 2 134t2 124q0 27 -1 109.5t-1 138.5q0 129 24 167t85 38h57h51q84 0 179.5 -28t169.5 -75q139 -87 209.5 -243.5t70.5 -380.5q0 -143 -72 -297.5t-206 -298.5q-65 -70 -132 -118t-92 -48q-22 0 -93 22.5t-113 32.5 q-82 19 -112 33t-30 32q0 5 3 23.5t3 32.5q0 33 -4 86t-4 74zM461 365q0 -17 5.5 -26t14.5 -9q29 0 97.5 148.5t68.5 287.5q0 148 -40 219.5t-124 71.5q-3 0 -6.5 -1.5t-3.5 -2.5q0 -2 2 -13.5t2 -19.5v-11q-4 -78 -4 -173q0 -5 -1 -29q-3 -107 -3 -211q0 -120 -7 -217 q-1 -12 -1 -14z" />
<glyph unicode="E" horiz-adv-x="915" d="M141 252v24q0 522 14 823.5t38 301.5q4 0 16.5 -2t19.5 -2q1 0 11 3t20 3q14 0 52 -5t61 -5t83 5t97 5q78 0 163 -16.5t97 -28.5q27 -27 48.5 -92.5t21.5 -135.5q0 -22 -148 -35q-144 -12 -248 -26q-4 -33 -6 -70.5t-2 -105.5q0 -14 0.5 -30t1.5 -34h94q80 0 130 -5 t59 -13q48 -54 64 -88.5t16 -73.5q0 -11 -2 -28.5t-2 -22.5q0 -4 1 -12t1 -13q0 -19 -157 -43q-128 -19 -214 -34v-88q0 -12 -1 -31t-1 -27q0 -9 3 -23t10 -34q85 5 155 7.5t94 2.5q35 0 36 -22q1 -11 5 -15q6 -6 21 -18q90 -73 90 -178q0 -23 -8.5 -31t-47.5 -8 q-25 -5 -102.5 -22t-124.5 -23q-57 -17 -119.5 -29t-136.5 -20q-118 55 -160.5 117.5t-42.5 197.5z" />
<glyph unicode="F" horiz-adv-x="864" d="M143 649q0 107 4.5 312.5t4.5 306.5v6q2 23 2 45q0 9 -2 20t-2 13q0 25 35 39t100 14q26 0 72 -2t67 -2q34 0 96 5t88 5q22 0 43.5 -5t22.5 -5q6 0 14 7t14 7q46 0 100 -83t54 -183q0 -19 -9 -30.5t-27 -14.5q-42 -8 -91.5 -14.5t-60.5 -6.5q-12 0 -33 2t-31 2 q-19 0 -49.5 -4.5t-70.5 -13.5q-1 -46 -2 -93q-1 -13 -1 -15q0 -5 -1.5 -45.5t-2.5 -77.5q136 -2 211.5 -9t87.5 -20q10 -10 37 -68t27 -88v-18v-27q0 -60 -218 -85q-84 -10 -136 -17q-5 -64 -7 -115.5t-2 -79.5q0 -50 3 -118t3 -84q0 -110 -24 -139t-92 -29q-21 0 -85 24 t-108 37q-17 14 -24 157.5t-7 489.5z" />
<glyph unicode="G" horiz-adv-x="1020" d="M78 549q0 115 20.5 239.5t61.5 249.5q39 126 81 207.5t91 128.5q36 37 68.5 51.5t99.5 14.5h12q73 0 264 -111l15 -8q66 -39 107.5 -144.5t41.5 -238.5q0 -13 -3 -47.5t-3 -54.5q0 -22 -49 -38t-115 -16q-88 0 -115 138q-6 29 -10 47q-8 35 -14 85q-11 76 -43 76 q-17 0 -49 -57t-58 -137q-37 -115 -56 -221t-19 -201q0 -149 27.5 -225t82.5 -76q49 0 91 62t42 122q0 15 -3.5 21t-12.5 6q-4 0 -14 -2t-17 -2q-54 0 -82 43t-28 125q0 39 8 51t32 12h56q22 0 126.5 14.5t184.5 14.5h21h16q23 0 40 -36.5t17 -92.5q0 -113 -48 -247.5 t-124 -229.5q-47 -61 -120 -97t-148 -36q-79 0 -168.5 39.5t-155.5 105.5q-75 76 -113 192.5t-38 272.5z" />
<glyph unicode="H" horiz-adv-x="1104" d="M143 348q0 10 1 56.5t1 82.5q0 14 -1 51.5t-1 61.5q0 40 2 95.5t2 70.5q0 9 -2 35t-2 43q0 4 3.5 42t3.5 72q0 20 -2.5 63.5t-2.5 68.5q0 18 1 53.5t1 52.5v53q0 20 3.5 40.5t3.5 21.5q-1 5 -3.5 10t-3.5 8q0 1 4.5 18t4.5 33q0 9 -0.5 13.5t-1.5 9.5l30 14h6 q17 0 42 7.5t34 7.5q43 0 95.5 -23t54.5 -23h14q13 0 23.5 -7t19.5 -21l-2 -84q2 -38 3 -64t1 -49q0 -12 -1 -35.5t-1 -35.5q0 -44 4 -111t4 -90q0 -18 -1 -35q-1 -5 -1 -6q0 -9 9.5 -12.5t43.5 -4.5q82 0 110 8.5t28 32.5q0 14 -2 40t-2 38q0 14 1 46t1 51q0 4 -1 27 q-3 105 -3 204v125q0 43 2.5 60.5t9.5 23.5q4 4 47 10t92 6q45 0 88 -30q31 -22 55 -33q20 -10 33 -31.5t13 -38.5q0 -3 -6.5 -20t-6.5 -31q0 -13 2 -40t2 -42q0 -70 -1 -153.5t-1 -96.5q0 -56 2 -138.5t2 -109.5q0 -100 -4 -243t-4 -185q0 -29 2 -88.5t2 -89.5 q0 -13 -1.5 -60t-2.5 -73q-18 -3 -53 -11.5t-51 -8.5q-57 0 -116.5 24t-72.5 52q-13 29 -25 152t-12 275q0 9 1.5 24.5t1.5 20.5q0 7 -10 10t-29 3q-85 0 -109.5 -8t-24.5 -33q0 -2 1.5 -38.5t1.5 -70.5q0 -4 -1 -24q-4 -101 -4 -197v-104q0 -6 -1 -39t-1 -60q0 -6 -17.5 -9 t-51.5 -3q-85 0 -153 28.5t-68 55.5l-2 1q-23 10 -23 44q-13 36 -19 70.5t-6 70.5v41q0 15 -1 42t-1 40z" />
<glyph unicode="I" horiz-adv-x="592" d="M150 248q0 17 1 96t1 139q0 45 -1 135.5t-1 137.5q0 46 4 143.5t4 147.5q0 22 -2 74.5t-2 82.5q0 13 4 56.5t4 72.5q0 15 -6 35.5t-6 26.5q0 21 36 35t95 14q64 0 142.5 -38.5t78.5 -57.5q0 -2 -2 -12q-11 -53 -11 -111q0 -48 -6 -145t-6 -146q0 -93 10.5 -307.5 t10.5 -335.5q0 -44 -4.5 -107.5t-4.5 -83.5q0 -12 1.5 -35t1.5 -34q0 -60 -19.5 -76t-103.5 -16q-95 0 -156 33.5t-61 86.5q0 5 -1 26q-1 84 -1 163z" />
<glyph unicode="J" horiz-adv-x="840" d="M12 389q0 66 23 86.5t123 20.5q81 0 122.5 -61.5t41.5 -180.5q0 -8 -1.5 -24.5t-1.5 -24.5q0 -20 6.5 -29.5t18.5 -9.5q28 0 40.5 96.5t12.5 310.5q0 106 -2 278t-2 239q0 71 2 159v31q0 11 -1 29t-1 24q0 33 -10 47t-10 19q0 18 49 32.5t106 14.5q52 0 115 -26.5 t75 -28.5q5 -1 13 -2q23 -3 23 -21q0 -1 -2 -14q-23 -170 -23 -467q0 -71 5 -193t5 -174q0 -157 -37.5 -281t-109.5 -204q-32 -36 -78 -67t-61 -31q-3 0 -15 1t-22 1q-7 0 -27.5 -1t-34.5 -1q-11 0 -88 33t-112 61q-79 64 -110.5 138.5t-31.5 219.5z" />
<glyph unicode="K" horiz-adv-x="1006" d="M137 94q0 2 2 11q13 65 13 145q0 29 -2 60v9q0 38 2 157.5t2 201.5q0 21 -1 63t-1 64q0 74 3 171t3 122q0 23 -2 79t-2 89q0 10 2 31t2 32q0 7 -5.5 19.5t-5.5 19.5q0 3 12 19t15 16q1 0 39.5 -9t79.5 -14q8 0 25 -2q64 -5 91 -12q42 -10 59 -29.5t17 -58.5q0 -7 -2 -28 t-2 -36q0 -21 2 -48.5t2 -32.5q0 -135 -15 -278q-3 -29 -3 -36t2.5 -10.5t7.5 -3.5q10 0 80 155.5t135 290.5q55 111 93 175.5t49 64.5q39 0 54 -28q5 -10 9 -15q22 -30 86 -76t64 -65q0 -8 -100 -216.5t-191 -435.5q53 -97 136 -247q126 -227 126 -248q0 -30 -60 -102 t-73 -72q-51 0 -142.5 108.5t-203.5 302.5q-12 20 -25 48q-14 30 -22 30q-7 0 -11 -6.5t-4 -17.5q0 -1 4 -28t4 -54q0 -274 -13.5 -346t-51.5 -72q-18 0 -54.5 16.5t-52.5 22.5q-29 10 -67.5 21.5t-47.5 15.5q-26 12 -43.5 32t-17.5 35z" />
<glyph unicode="L" horiz-adv-x="795" d="M143 422q0 5 1 28q1 79 1 148q0 347 9 659q2 43 2 50v65q0 26 21.5 47t51.5 21q98 0 188 -45q17 -9 25 -13q34 -15 39.5 -30t5.5 -70q0 -110 2 -234v-40v-84q0 -208 -1 -435q-1 -58 -1 -71v-41q0 -18 3.5 -27.5t11.5 -15.5q46 0 108 -11.5t125 -31.5q34 -12 47.5 -22.5 t18.5 -25.5q2 -7 2.5 -29.5t1.5 -33.5q1 -26 8.5 -57.5t7.5 -36.5q0 -30 -163 -58t-332 -87q-77 42 -125.5 95.5t-48.5 94.5v33q0 6 -4.5 92t-4.5 166z" />
<glyph unicode="M" horiz-adv-x="1331" d="M137 303q0 468 17 860q2 42 2 47v33q0 54 29 85.5t79 31.5q80 0 224 -45q36 -11 55 -17q18 -5 26 -46q3 -15 4 -23q15 -74 37 -194q48 -259 68 -259q30 0 104 436v5q16 64 29 142q13 77 59 77q60 0 161.5 -28t151.5 -58q22 -13 35 -34.5t13 -45.5q0 -17 -5 -61.5 t-5 -71.5q0 -11 6 -165t6 -298q0 -282 -14 -567q-2 -53 -2 -64q0 -14 2 -33.5t2 -25.5q0 -22 -17.5 -29.5t-62.5 -7.5q-83 0 -150 24t-67 56v12q0 3 2 21q16 151 16 329q0 249 19 455q2 23 2 26q-1 11 -5.5 17t-11.5 6q-13 0 -68 -271.5t-124 -531.5q-9 1 -30.5 8.5 t-35.5 7.5q-1 0 -5.5 -1t-8.5 -1q-17 0 -55 15t-42 21q-5 9 -28 106q-19 83 -33 139q-34 138 -56.5 292t-35.5 154q-9 0 -12.5 -9.5t-3.5 -39.5q0 -6 2 -40q16 -229 16 -472q0 -69 1 -142t1 -77q0 -17 2.5 -35.5t7.5 -40.5l-16 -26q-12 0 -26.5 -1t-18.5 -1q-49 0 -123 31 t-88 45q-16 20 -22.5 69t-6.5 211z" />
<glyph unicode="N" horiz-adv-x="1114" d="M141 281q0 20 1 79t1 97q0 23 -1 70t-1 71q0 50 4.5 147t4.5 144q0 102 5 214.5t5 121.5v63q0 50 27 71t98 21q20 0 75 -22q32 -14 52 -21q10 -4 32.5 -7t28.5 -11q8 -10 24 -19t21 -28q61 -244 113 -403.5t67 -159.5q8 0 11.5 5t3.5 21q0 62 -9.5 241.5t-9.5 295.5 q0 26 1 66t1 55v32q0 13 42.5 30.5t74.5 17.5q6 0 20 -2.5t23 -2.5h25q22 0 74 -20q17 -6 28 -10l1 -1q30 -12 30 -42q0 -6 -1 -31q-1 -97 -1 -184q0 -57 -2 -157t-2 -142v-76q0 -25 2 -157t2 -238q0 -92 -3 -189t-3 -102q0 -20 1 -44.5t1 -27.5q0 -38 -17.5 -47.5 t-64.5 -9.5q-7 0 -57 8t-128 22q-122 212 -213 412l-92 199q-6 0 -10 -4.5t-4 -12.5l10 -125t10 -245q0 -88 5 -179q1 -19 2 -24q0 -53 -39 -85t-109 -32q-5 0 -52.5 13t-70.5 22q-17 7 -24 33t-7 117q0 53 -3 110t-3 62z" />
<glyph unicode="O" horiz-adv-x="1067" d="M70 586q0 189 38.5 348.5t141.5 355.5q43 85 87 118.5t105 33.5q5 0 23 -1t31 -1q41 0 190 -49l9 -3q157 -50 248 -238t91 -470q0 -171 -58 -347t-145 -280q-52 -61 -112 -85q-8 -3 -8 -5q0 -10 -23 -18t-61 -8h-19q-41 0 -93 20q-16 6 -23 8h-11h-16q-37 0 -70.5 11 t-64.5 32q-129 88 -194.5 233.5t-65.5 344.5zM406 551q0 -155 28 -239.5t78 -84.5q57 0 116.5 168t59.5 338v23q0 152 -40 269.5t-85 117.5q-34 0 -95.5 -193t-61.5 -399z" />
<glyph unicode="P" horiz-adv-x="952" d="M143 377v309q0 240 6 465q1 33 1 39q0 21 -3.5 56t-3.5 50q0 40 28 74l3 4q17 35 33 44t63 9h43q33 0 66 2q8 1 10 1q10 0 27.5 -2.5t25.5 -2.5q5 0 29 3.5t41 3.5q74 0 165 -43t152 -109q63 -66 97.5 -145t34.5 -158q0 -200 -134.5 -364.5t-351.5 -227.5v-45 q0 -40 -2 -101t-2 -81v-111q0 -9 -1 -21.5t-1 -15.5q0 -6 3 -16t3 -14q0 -23 -17.5 -35.5t-49.5 -12.5q-24 0 -94 21t-114 31q-27 6 -33 22q-3 8 -7 14q-9 14 -13 87t-4 270zM477 705q60 7 107 88t47 178q0 92 -41 148.5t-101 56.5q-3 0 -5.5 -6.5t-2.5 -18.5q0 -16 2 -37 t2 -27v-30q-4 -107 -4 -205q0 -10 -1.5 -60.5t-2.5 -86.5z" />
<glyph unicode="Q" horiz-adv-x="1067" d="M68 582q0 189 51.5 371.5t146.5 330.5q44 68 99 114t84 46q10 0 56.5 -12t168.5 -48q166 -47 261 -213.5t95 -408.5q0 -167 -41.5 -325.5t-107.5 -250.5q37 -62 94 -152q59 -94 59 -108q0 -8 -25.5 -37.5t-45.5 -35.5q-34 -12 -70 -20.5t-43 -8.5q-34 0 -116 84 q-42 43 -68 67l-8 -1q-82 -13 -111 -13q-214 0 -346.5 169.5t-132.5 451.5zM408 545q0 -185 20 -256.5t68 -71.5q13 0 22.5 3t20.5 9q-18 35 -25.5 57t-7.5 36q0 19 12.5 31t32.5 12q12 0 28.5 -4t41.5 -13q26 17 46.5 121t20.5 240q0 173 -33.5 296t-74.5 123 q-38 0 -105 -199.5t-67 -383.5z" />
<glyph unicode="R" horiz-adv-x="1075" d="M135 459q0 88 3 214t3 167q0 48 -3 130.5t-3 116.5q0 95 6 171t13 94q6 14 64 29l33 9q91 28 173 44t121 16q62 0 161.5 -27t145.5 -59q31 -22 77 -76q19 -23 29 -35q55 -94 73 -152t18 -122q0 -91 -53.5 -179t-223.5 -249q58 -99 169.5 -251.5t111.5 -199.5 q0 -30 -44 -90.5t-69 -60.5q-38 0 -97.5 49.5t-195.5 200.5q-47 53 -107.5 130t-72.5 77q-9 0 -13.5 -12t-4.5 -36q0 -4 1 -22q5 -69 5 -131q0 -18 2 -65.5t2 -76.5q0 -73 -6 -93.5t-33 -20.5q-18 0 -37 -5t-23 -5q-9 0 -50 16t-89 41q-25 13 -40.5 26t-22.5 27 q-12 25 -17.5 122.5t-5.5 287.5zM459 750q0 -14 4 -20.5t12 -6.5q14 0 66 42t106 101q59 67 71.5 96t12.5 78q0 40 -35 80.5t-75 40.5q-60 0 -97.5 -9.5t-42.5 -25.5q-4 -9 -13 -131t-9 -245z" />
<glyph unicode="S" horiz-adv-x="909" d="M43 367q56 43 88.5 61t54.5 18q41 0 55 -27q5 -8 7 -12q45 -74 95.5 -111.5t105.5 -37.5q33 0 57 25t24 61q0 60 -125 164q-69 57 -108 94q-97 92 -140.5 181.5t-43.5 193.5q0 114 71 236.5t176 189.5q50 32 70.5 40.5t40.5 8.5q37 0 105.5 -40.5t103.5 -53.5 q103 -41 154 -131t51 -232q0 -81 -23.5 -124.5t-66.5 -43.5q-59 0 -128.5 19.5t-82.5 39.5q-9 15 -23 76t-14 89v22q0 29 -7.5 41t-23.5 12q-19 0 -48.5 -48.5t-29.5 -106.5q0 -116 212 -285l24 -18q113 -85 156.5 -161t43.5 -177q0 -158 -103 -269.5t-253 -111.5 q-170 0 -314 123t-161 295z" />
<glyph unicode="T" horiz-adv-x="793" d="M10 1350q0 21 33.5 35t114.5 26q142 23 303 36t282 13q19 0 28 -23q6 -17 11 -27q6 -13 17 -36q49 -103 49 -151q0 -33 -49.5 -52t-200.5 -41q-11 -282 -17 -521.5t-6 -356.5q0 -19 1.5 -49.5t1.5 -42.5q0 -3 -1 -13q-2 -34 -2 -65v-45l1 -11q2 -11 2 -22 q0 -22 -26 -38.5t-48 -16.5q-4 0 -24 9q-83 38 -166 56q-32 8 -43.5 18.5t-12.5 30.5q0 2 1 9q5 37 5 75q0 23 -7 239t-7 411q0 70 3 150t3 89q0 15 -1 33t-4 41q-15 0 -43.5 4t-39.5 4q-1 0 -9 -1t-14 -1q-11 0 -34 4t-35 4q-20 0 -26.5 11t-6.5 36q0 5 -7 28 q-26 86 -26 151z" />
<glyph unicode="U" horiz-adv-x="1104" d="M121 639v20q0 179 14.5 387.5t14.5 239.5v43.5t16 30.5q14 19 41.5 31t54.5 12q52 0 139.5 -47t87.5 -82q0 -4 -3 -16q-13 -45 -13 -91q0 -105 -8 -329t-8 -340q0 -144 16 -181.5t59 -37.5q72 0 99.5 120.5t27.5 548.5v234q0 99 -8 183q-2 14 -2 15q0 31 33 50.5t86 19.5 q77 0 164.5 -56.5t87.5 -86.5q0 -2 -2 -18q-14 -137 -14 -310q0 -24 2 -90.5t2 -108.5q0 -58 -1 -124t-1 -74q0 -206 -24 -294.5t-81 -168.5q-55 -77 -129.5 -123.5t-136.5 -46.5q-53 0 -121.5 32t-179.5 111q-16 11 -45 31q-73 50 -90 74q-28 37 -50 116t-22 146v33 q0 2 -1 12q-3 47 -3 98q0 4 -1 16t-1 21z" />
<glyph unicode="V" horiz-adv-x="973" d="M55 1339q0 21 25 30t80 9q21 0 105 -17q44 -9 68 -13q26 -6 76 -228l5 -21q39 -178 54 -385.5t28 -207.5q18 0 57 252t82 461q10 49 24 124q23 130 48 130q4 0 10 -1.5t8 -1.5q12 0 28.5 2.5t20.5 2.5q21 0 48.5 -5.5t35.5 -5.5h12q23 0 77 -37.5t54 -56.5t-57.5 -237.5 t-101.5 -415.5q-25 -115 -60.5 -266t-87.5 -363q-9 -37 -18 -86q-11 -61 -35 -61q-61 0 -117 33l-5 3q-40 24 -95 29q-12 1 -16 2q-50 14 -76 26.5t-41 28.5q-100 445 -167 821.5t-67 444.5q0 1 -1 5t-1 5z" />
<glyph unicode="W" horiz-adv-x="1358" d="M82 1372q0 20 30 30.5t87 10.5q58 0 123.5 -14t70.5 -25q13 -21 17 -35.5t4 -31.5q0 -13 -2 -34.5t-2 -31.5q0 -214 5 -341t17 -228q0 -12 -2 -28t-2 -21q0 -11 4.5 -25t9.5 -14q32 0 80 368q14 112 23 177q4 19 9 56q16 118 79 118q15 0 79 -25t115 -41q23 -6 33 -20 t10 -39q0 -8 -2 -28.5t-2 -33.5q0 -80 15 -230.5t18 -213.5q0 -6 1 -18q4 -70 13 -70q15 0 34.5 171.5t45.5 313.5q35 189 80 320q6 18 6 20q0 13 13.5 23t33.5 10q73 0 148.5 -36t75.5 -65q0 -60 -152 -814l-4 -21q-2 -10 -36 -168t-52 -287v-6q-3 -59 -80 -59 q-20 0 -80 15.5t-131 41.5q-33 13 -45 19.5t-18 13.5q-6 8 -10 72.5t-9 114.5q-12 81 -24 189q-12 107 -27 107q-26 0 -67 -297q-11 -77 -17 -121q-9 -37 -16 -101q-10 -79 -27 -79q-28 0 -80.5 20t-70.5 25q-16 5 -63 15.5t-73 23.5q-35 17 -40 88q0 9 -1 14 q-43 371 -94 792t-51 433z" />
<glyph unicode="X" horiz-adv-x="948" d="M51 90q43 173 203 541l25 57q-22 72 -62 199q-100 320 -100 422v18v14l12 21h12h13q8 0 35 1t44 1q82 0 134.5 -39.5t54.5 -106.5q13 -57 27 -171.5t28 -114.5q24 0 109 244q22 65 35 100q44 95 73 142.5t43 47.5q60 0 110 -65q7 -9 11 -14q54 -66 72 -98t18 -54 q0 -2 1 -12.5t1 -18.5q0 -2 -10 -17q-118 -188 -258 -534q108 -293 157.5 -437.5t49.5 -166.5q0 -30 -23.5 -47.5t-62.5 -17.5q-28 0 -72.5 11.5t-99.5 33.5q-23 8 -45 57q-5 11 -8 18q-21 59 -52 156q-35 111 -45 111q-11 0 -39 -83.5t-55 -197.5q-13 -35 -31 -91 q-31 -95 -53 -95q-28 0 -67 30q-7 6 -10 8q-15 10 -45 23t-42 21q-38 27 -60 53t-28 51z" />
<glyph unicode="Y" horiz-adv-x="909" d="M49 1278q0 27 58 63.5t100 36.5q98 0 194 -248l15 -39q16 -42 37 -101q25 -72 39 -72q10 0 51 136t82 249q11 30 27 83q47 146 104 146q59 0 138 -42t79 -79q0 -40 -75.5 -284.5t-184.5 -530.5q-4 -10 -14 -32q-49 -106 -56 -257q0 -152 -7 -287q-1 -19 -1 -22 q0 -25 -20.5 -33t-73.5 -8q-29 0 -65 12t-40 13q-8 1 -38.5 4t-51.5 12q-17 8 -23 15t-6 20q0 2 2.5 19.5t2.5 33.5q0 10 -4.5 100t-4.5 170q0 16 2 46t2 44q0 12 -55 122t-96 235q-57 171 -87 293.5t-30 181.5z" />
<glyph unicode="Z" horiz-adv-x="938" d="M33 168q0 15 114 229.5t263 458.5l39 64q83 137 83 147q0 6 -6.5 9t-19.5 3q-60 0 -145.5 -8t-172.5 -22q-39 79 -66.5 160t-27.5 104q0 16 19.5 38.5t27.5 22.5q4 0 17.5 -2t23.5 -2q2 0 16 1q117 11 269 11q41 0 110 2t97 2h63h33q33 0 50 -2.5t28 -9.5 q49 -32 83 -65.5t34 -51.5q0 -44 -79.5 -210t-203.5 -367q-72 -117 -136.5 -231t-64.5 -119q1 -6 4 -8t13 -3h92q121 0 193 -32q10 -4 14 -4h8h6q19 0 47.5 -74.5t28.5 -169.5q0 -11 -1 -28.5t-1 -22.5q0 -11 -3 -15t-10 -4q-28 8 -81 23q-34 10 -102 14t-224 4 q-167 0 -275 -20q-10 -2 -12 -2q-24 0 -59 49q-18 26 -29 39q-4 4 -12 13q-45 51 -45 79z" />
<glyph unicode="[" horiz-adv-x="764" d="M139 -141q0 3 2 24q11 168 11 371q0 197 11 461t11 332q0 152 -12 289q-2 20 -2 24q0 25 11 43t27 22q1 0 9 1q144 18 295 18q79 0 133.5 -9t71.5 -24q19 -16 24 -55q1 -10 2 -14q3 -14 18 -40t15 -42q0 -29 -119.5 -29.5t-181.5 -9.5q-23 -4 -26 -105q-1 -42 -3 -70 q-13 -240 -20.5 -450.5t-7.5 -304.5q0 -188 9 -339q1 -8 1 -10q3 -22 9.5 -28t29.5 -6q24 0 82.5 9t89.5 9q8 0 32.5 -31.5t81.5 -31.5q21 0 28 -18.5t7 -65.5q0 -20 -18 -31t-73 -22q-116 -24 -224.5 -41t-126.5 -17q-32 0 -79 56q-23 28 -38 43q-12 12 -35 32 q-45 42 -45 60z" />
<glyph unicode="\" horiz-adv-x="840" d="M0 1372q0 33 57 69t109 36q34 0 57 -56q9 -21 15 -33q4 -9 26 -44t37 -64q22 -45 57 -123.5t119 -273.5q154 -360 278 -665.5t124 -313.5q0 -17 -30 -48.5t-69 -31.5q-6 0 -17 3t-18 3h-16q-51 0 -140 257q-88 255 -163 431q-148 349 -229.5 521.5t-128.5 240.5 q-19 27 -43.5 56t-24.5 36z" />
<glyph unicode="]" horiz-adv-x="764" d="M-12 -168q0 7 26.5 26t34.5 19q4 0 19 -2t28 -2q18 0 63.5 5t73.5 5q8 0 20 -1t15 -1q31 0 34 117q0 34 1 55q1 12 5 65q32 406 32 840q0 32 -4 89t-4 81q0 13 2 31t2 23q0 19 -40 27t-151 8h-32q-64 0 -87.5 25t-23.5 85q0 43 5 55.5t30 22.5q9 4 23 11q25 14 34 14 q15 0 36 -1.5t26 -1.5q12 0 103.5 8.5t170.5 8.5q52 0 118 -62t66 -129q0 -25 -22.5 -340t-22.5 -594q0 -20 1 -43t1 -26q0 -64 -6 -158t-6 -123q0 -32 3 -98t3 -100q0 -57 -13.5 -78t-47.5 -21q-13 0 -42 1t-46 1q-98 0 -197.5 -4t-101.5 -4q-68 0 -86 60q-4 13 -7 21 q-10 24 -23 53t-13 32z" />
<glyph unicode="^" horiz-adv-x="2048" d="M414 899l465 563h288l465 -563h-264l-344 342l-346 -342h-264z" />
<glyph unicode="_" horiz-adv-x="1024" d="M0 -244h1024v-239h-1024v239z" />
<glyph unicode="`" horiz-adv-x="1024" d="M195 1237q0 28 51 76.5t82 48.5q12 0 83 -47.5t130 -79.5q9 -5 35 -14q75 -26 75 -60q0 -18 -38.5 -56t-57.5 -38q-9 0 -81 31.5t-128 52.5q-22 8 -63 19q-88 24 -88 67z" />
<glyph unicode="a" horiz-adv-x="799" d="M68 256q0 114 93.5 186.5t276.5 100.5v20v43q0 66 -5.5 97.5t-16.5 31.5q-37 0 -89.5 -93t-82.5 -93q-86 0 -120 14t-34 47q0 26 27.5 95.5t68.5 140.5q39 66 72 101.5t55 35.5q19 0 106 -21t163 -49q75 -28 103 -89.5t28 -207.5q0 -138 -6.5 -298.5t-6.5 -182.5 q0 -11 1 -33.5t1 -33.5v-37q0 -58 -13 -72t-54 -14q-9 0 -23 2t-18 2q-16 0 -39 -3t-31 -3q-25 0 -56 42q-10 14 -16 21q-28 -3 -71 -13.5t-59 -10.5q-94 0 -174 93t-80 181zM274 219q0 -27 22.5 -37t106.5 -10q7 0 14 2t17 6q1 15 2.5 38t1.5 30q0 23 -0.5 40.5t-1.5 34.5 q-78 -4 -120 -31t-42 -73z" />
<glyph unicode="b" horiz-adv-x="883" d="M117 457q0 179 4 402.5t14 584.5q0 30 24.5 45.5t69.5 15.5q43 0 139 -31q20 -6 32 -10q13 -4 16.5 -7.5t3.5 -10.5v-12q0 -98 -15.5 -301.5t-15.5 -290.5v-6q0 -8 3 -11.5t9 -3.5q10 0 54.5 59.5t93.5 59.5q35 0 74 -13t86 -40q63 -37 90.5 -110.5t27.5 -217.5 q0 -260 -79.5 -433t-198.5 -173q-59 0 -140.5 29.5t-95.5 29.5q-50 0 -106 -10q-12 -2 -14 -2q-45 0 -60.5 80t-15.5 377zM389 266q0 -43 15 -67.5t40 -24.5q46 0 73.5 113.5t27.5 302.5q0 50 -5 69t-18 19q-23 0 -78 -147t-55 -265z" />
<glyph unicode="c" horiz-adv-x="725" d="M68 354q0 278 65 461.5t146 183.5q5 0 19.5 -2t23.5 -2q10 0 24 2t16 2q35 0 90 -29q21 -11 32 -16q-1 0 29.5 -7t68.5 -25q41 -21 64.5 -97.5t23.5 -193.5q0 -75 -18 -107t-60 -32q-79 0 -108 11.5t-29 53.5v29q0 50 -9.5 78t-25.5 28q-30 0 -56 -106t-26 -248 q0 -8 -2 -24.5t-2 -24.5v-21q0 -27 7 -39t21 -12q48 0 102 96.5t79 96.5q58 0 104.5 -51.5t46.5 -79.5q0 -46 -35 -124t-77 -128q-24 -29 -81.5 -51.5t-103.5 -22.5q-146 0 -237.5 110t-91.5 291z" />
<glyph unicode="d" horiz-adv-x="840" d="M55 358q0 249 84 433t189 184q36 0 80.5 -17.5t48.5 -17.5q12 0 17 24t5 103v47q0 109 -2 232.5t-2 136.5t12 20.5t33 7.5q88 0 165 -29t77 -55q0 -152 -7 -457t-7 -456v-137q0 -36 2 -119t2 -131q0 -13 -1 -41.5t-1 -44.5q0 -6 1 -16t1 -15q0 -29 -14 -45t-40 -16 q-27 0 -71.5 14.5t-60.5 15.5q-6 1 -15 2q-33 3 -47 25q-12 21 -16 61.5t-13 41.5q-2 0 -44 -49.5t-97 -49.5q-35 0 -108 42.5t-107 82.5q-33 39 -48.5 92t-15.5 131zM303 276q0 -16 6.5 -26t16.5 -10q12 0 44.5 34.5t55.5 75.5q27 52 38 122t11 212q0 38 -6.5 53.5 t-22.5 16.5q-36 0 -89.5 -167.5t-53.5 -310.5z" />
<glyph unicode="e" horiz-adv-x="752" d="M57 371q0 108 22.5 218.5t61.5 198.5l9 20q78 173 151 173q3 0 22 -5q71 -19 151 -30q47 -7 79 -27t72 -67q44 -52 68 -162.5t24 -263.5q0 -53 -132 -70q-146 -18 -253 -49q-2 -8 -2 -45q0 -41 14.5 -59.5t46.5 -18.5q60 0 131 85q19 22 23 22q32 0 91.5 -32.5 t59.5 -47.5q0 -26 -38 -85t-87 -103q-35 -33 -83.5 -51.5t-98.5 -18.5q-34 0 -77.5 19.5t-129.5 76.5q-63 42 -94 121.5t-31 200.5zM338 484q35 5 61.5 12t49.5 17q5 7 8.5 22t3.5 34q0 17 -2 43.5t-2 36.5q0 29 -11.5 61.5t-25.5 32.5q-20 0 -46.5 -79t-35.5 -180z" />
<glyph unicode="f" horiz-adv-x="588" d="M25 737v27q0 32 12.5 43.5t39.5 11.5q24 5 53 6q24 0 24 17q0 5 -1 20.5t-1 24.5q0 344 66.5 491.5t221.5 147.5q14 0 69 -40t93 -63q55 -31 79 -110t24 -228q0 -56 -26.5 -72t-111.5 -16q-32 0 -49.5 15t-17.5 40q-4 20 -9 55q-11 81 -34 81q-15 0 -21 -8.5t-6 -28.5v-3 q-2 -14 -2 -26v-53v-76v-53v-18v-17q0 -27 102 -43q24 -4 38 -6h7q26 0 34.5 -25t8.5 -81v-25q0 -45 -24 -63.5t-82 -28.5h-35q-34 0 -41.5 -12t-7.5 -74v-31q0 -14 2 -36.5t2 -30.5q0 -18 -2 -46t-2 -36q0 -17 2 -43t2 -37q0 -18 -2 -52t-2 -49t1 -39t1 -32q0 -7 -2 -46.5 t-2 -72.5q-24 -21 -46.5 -30t-49.5 -9q-60 0 -119 25t-59 57v18q0 14 -2.5 34.5t-2.5 27.5v8q0 120 -5 250q-1 30 -1 37q0 24 1 73.5t1 73.5q0 2 -1.5 15t-2.5 24q-14 -1 -31.5 -3.5t-21.5 -2.5q-24 0 -42.5 47t-18.5 96z" />
<glyph unicode="g" horiz-adv-x="827" d="M53 -205q0 3 4 10t4 13q0 1 -0.5 3t-1.5 5q0 16 53 30t131 17q39 -47 82.5 -80t63.5 -33q41 0 61.5 72.5t20.5 218.5q0 12 -2.5 17.5t-7.5 5.5q-7 0 -48 -49.5t-81 -49.5q-113 0 -192 90t-79 228q0 247 95 467.5t200 220.5q67 0 164 -70q26 -18 31 -18q11 0 26.5 4 t20.5 4q8 0 59 -31t66 -53q15 -21 30 -38t15 -21q0 -2 -4 -12q-16 -42 -16 -87v-34v-349v-333q0 -76 -15 -138t-47 -122q-31 -58 -115 -122.5t-141 -64.5q-67 0 -145.5 44.5t-132.5 115.5q-15 19 -44 52q-55 64 -55 87zM313 240q0 -23 6.5 -33t20.5 -10q26 0 77 100 q17 34 27 53q17 31 30 129t13 203q0 18 -7.5 28.5t-20.5 10.5q-29 0 -69 -104l-5 -13q-32 -84 -52 -186t-20 -178z" />
<glyph unicode="h" horiz-adv-x="870" d="M98 1450q0 11 41.5 30t69.5 19q8 0 19 -4t16 -4q2 0 6 1t6 1q1 0 31 -18t67 -33q20 -9 27.5 -17t7.5 -18v-10q0 -8 8.5 -16.5t8.5 -14.5q0 -4 -4.5 -30.5t-4.5 -51.5v-33q0 -23 -2 -77t-2 -87q0 -6 2 -19t2 -19q0 -25 -4 -74t-4 -72q0 -20 4.5 -29.5t14.5 -9.5 q2 0 41.5 45t85.5 45q39 0 88 -36q16 -12 24 -17t28 -15q59 -29 77 -67q27 -50 39 -126.5t12 -209.5v-282q0 -40 -4 -90.5t-13 -110.5q-36 -6 -84 -15.5t-59 -9.5q-33 0 -83 38t-50 61q0 4 2 29q20 211 20 452v72q0 28 -10 45.5t-26 17.5q-47 0 -83 -158t-36 -403v-43v-35 q0 -47 -4 -62.5t-15 -19.5q-10 -3 -26 -9q-24 -9 -41 -9q-22 0 -71.5 20.5t-78.5 38.5q-21 14 -30 82t-9 260q0 101 6.5 287t6.5 270q0 79 -2 163.5t-2 90.5v84q0 44 -7 86q-2 11 -2 13q0 1 1 9t1 15q0 3 -1 17t-1 26q0 19 -3 34z" />
<glyph unicode="i" horiz-adv-x="483" d="M94 1221q0 73 34.5 126.5t84.5 53.5h18q57 0 86 -14.5t50 -47.5q27 -44 35 -70t8 -59q0 -80 -36 -127t-95 -47q-3 0 -20.5 5.5t-35.5 5.5h-24q-55 0 -80 41t-25 133zM117 418q0 31 1 76.5t1 60.5v94q0 19 1 66t1 73q0 3 -1 13q-1 49 -1 98q0 1 -1 3q-1 9 -1 20 q0 21 29 38t67 17q91 0 139.5 -49t48.5 -140v-524q0 -32 -1 -71.5t-1 -47.5q0 -118 -22 -148t-80 -30q-70 0 -124 36t-54 89q0 11 3 43t3 53q0 37 -4 113t-4 117z" />
<glyph unicode="j" horiz-adv-x="516" d="M-96 -297q0 28 23 83.5t42 55.5q12 0 60 -23.5t75 -23.5q23 0 31 68.5t8 335.5v90v90q0 111 3.5 232t3.5 132q0 2 -1 7q-2 19 -2 34v86q0 36 -3 52q-1 1 -1 2q0 17 21.5 28t54.5 11q85 0 152 -33t67 -82q0 -18 -4 -62t-4 -71q0 -230 7 -459q1 -41 1 -49v-137 q0 -35 3 -105.5t3 -107.5q0 -176 -48 -270.5t-138 -94.5q-124 0 -239 77t-115 134zM119 1147q0 2 1 12.5t1 20.5v20q0 82 45 141.5t117 59.5q45 0 122 -90q11 -12 17 -19q13 -16 22 -52t9 -73q0 -56 -47 -100.5t-109 -44.5q-76 0 -127 40.5t-51 84.5z" />
<glyph unicode="k" horiz-adv-x="840" d="M113 209v78v127q0 521 28 947q2 41 2 48q0 9 -1 21.5t-1 15.5q0 25 19 41t49 16q37 0 78 -8.5t72 -22.5q12 -5 29 -11q40 -14 40 -68q0 -49 -18.5 -289t-18.5 -422q0 -14 1 -37t1 -33v-20q0 -15 2.5 -22t7.5 -7q19 0 57.5 69.5t125.5 266.5q5 11 13 31q29 71 73 71 q37 0 98 -55.5t61 -89.5q0 -8 -30 -78.5t-148 -333.5q45 -97 111.5 -210.5t66.5 -133.5q0 -27 -58.5 -81t-94.5 -54q-28 0 -91 93q-41 60 -69 98q-29 38 -64 89q-36 52 -46 52q-9 0 -13 -18t-4 -76v-51q0 -43 3 -94t3 -58q0 -20 -10.5 -27.5t-38.5 -7.5q-47 0 -97.5 9.5 t-101.5 27.5q-19 7 -27.5 54t-8.5 153z" />
<glyph unicode="l" horiz-adv-x="483" d="M109 565v105v143q0 302 25 600q2 25 3 35q0 20 18 35.5t44 15.5q95 0 163 -33t68 -61q0 -3 -3 -15q-11 -40 -11 -79q-4 -104 -12.5 -294t-8.5 -261v-148v-209q0 -165 2 -318v-28v-63q0 -25 -23 -32t-77 -7q-25 0 -84 19.5t-74 37.5q-13 17 -21.5 171t-8.5 386z" />
<glyph unicode="m" horiz-adv-x="1325" d="M121 467q0 66 10 396v18v10q3 57 53 57q13 0 34.5 -1t31.5 -1q22 0 50.5 4t35.5 4q17 0 33 -9t16 -19t-8 -52.5t-8 -72.5q0 -3 1 -3.5t7 -0.5q1 0 47 59t121 59q68 0 164 -64q27 -17 32 -17q7 0 50 63.5t110 63.5q20 0 57.5 -5.5t57.5 -5.5q1 0 7 1q23 1 44 1 q63 0 122.5 -89.5t59.5 -213.5q0 -79 -8 -212t-8 -183q0 -51 -6.5 -119t-16.5 -117q-5 -26 -20 -39.5t-41 -13.5q-52 0 -111.5 18t-78.5 35q-10 9 -13.5 20t-3.5 34v32q0 40 11.5 185.5t11.5 251.5v45q0 97 -6.5 125t-22.5 28q-52 0 -88.5 -155t-36.5 -391q0 -11 2 -48.5 t2 -64.5q0 -28 -9 -45t-24 -17q-16 0 -42.5 3.5t-34.5 3.5q-38 0 -80.5 13t-56.5 25q-8 5 -11.5 37t-3.5 115v227q0 32 -1 75.5t-1 55.5q0 59 -6.5 74t-22.5 15q-54 0 -93.5 -164t-39.5 -422q0 -50 4 -86v-4q0 -12 -8 -16.5t-29 -4.5h-59q-25 0 -62.5 13t-64.5 34 q-25 22 -37 135t-12 320z" />
<glyph unicode="n" horiz-adv-x="868" d="M104 63q0 2 1 13q1 57 1 117q1 42 2 88q1 13 1 16q0 31 -2.5 89t-2.5 85q0 4 1 69.5t1 127.5q0 41 -1 83.5t-1 43.5q0 41 7.5 53.5t29.5 21.5q13 5 27.5 12t15.5 7q80 0 108 -61q2 -4 3 -5q2 -4 8 -4q3 0 21 25q97 137 180 137q40 0 96 -31q15 -9 23 -12q11 -5 31 -11 q42 -13 63 -32q46 -44 64 -101.5t18 -170.5v-21q0 -23 -7 -189.5t-12 -292.5q-4 -86 -16.5 -109t-42.5 -23q-12 0 -26 1t-15 1q-5 0 -14 -1t-13 -1q-29 0 -79 26.5t-68 55.5q-1 7 -1.5 18t-0.5 37q0 30 6 172.5t6 255.5v72q0 60 -7 80t-26 20q-35 0 -72.5 -123t-37.5 -268 v-256q0 -28 1.5 -51t4.5 -41q-6 -20 -26.5 -31.5t-49.5 -11.5q-50 0 -124.5 40t-74.5 80z" />
<glyph unicode="o" horiz-adv-x="754" d="M55 379q0 225 78.5 413.5t142.5 188.5q47 0 105.5 -25.5t83.5 -25.5q2 0 11 -4t16 -4q3 0 11 2t13 2q74 0 142.5 -140.5t68.5 -334.5q0 -195 -94 -347.5t-184 -152.5q-39 0 -77 10.5t-63 28.5q-18 11 -70.5 29t-80.5 32q-39 21 -71 115t-32 213zM301 268q0 -37 14 -61.5 t33 -24.5q40 0 71.5 101t31.5 254q0 87 -11 135.5t-30 48.5q-29 0 -69 -155.5t-40 -297.5z" />
<glyph unicode="p" horiz-adv-x="840" d="M111 580q0 210 12 392q2 24 2 27q0 52 21.5 83.5t48.5 31.5q55 0 127.5 -37t72.5 -63q0 -12 -8 -44t-8 -55q0 -8 1 -9.5t7 -2.5q6 0 27 20.5t47 20.5q56 0 214 -82l15 -8q65 -33 94 -93t29 -159q0 -131 -42.5 -278.5t-104.5 -243.5q-45 -68 -75.5 -88.5t-80.5 -20.5 q-28 0 -61 9.5l-33 9.5q-9 0 -14 -9t-5 -26q0 -3 1 -12t1 -15q0 -29 -3 -77.5t-3 -67.5q0 -74 -3 -152t-3 -82v-24q0 -22 -9 -29.5t-36 -7.5q-41 0 -105 19.5t-91 37.5q-18 11 -25.5 32t-7.5 63q0 4 1 54.5t1 94.5q0 40 -1 156.5t-1 193.5v199q0 6 -1 86.5t-1 155.5z M387 256q0 -22 5 -32.5t16 -10.5q27 0 77 158t50 293q0 33 -7.5 44t-31.5 11q-63 0 -86 -77.5t-23 -385.5z" />
<glyph unicode="q" horiz-adv-x="823" d="M61 356q0 260 88.5 443.5t204.5 183.5q37 0 97 -39t73 -39q10 0 33.5 9.5t38.5 9.5q26 0 91 -55t65 -87q0 -2 -2 -15q-9 -79 -9 -165v-756q0 -72 -6 -152t-6 -89q0 -11 1 -25t1 -18q0 -35 -13.5 -47.5t-55.5 -12.5q-39 0 -94 14t-83 31q-17 11 -24.5 55.5t-7.5 139.5v25 q0 58 3 133t3 92q0 10 -2.5 13t-7.5 3q-1 0 -37 -18.5t-58 -18.5q-17 0 -98 37.5t-113 65.5q-42 36 -62 104t-20 178zM315 238q0 -24 5 -33.5t18 -9.5q35 0 84 107.5t49 234.5q0 18 3 62.5t3 70.5q0 39 -6 52t-22 13q-46 0 -90 -156.5t-44 -340.5z" />
<glyph unicode="r" horiz-adv-x="616" d="M94 842q0 16 43.5 34.5t73.5 18.5q18 0 44 -15.5t32 -15.5q9 0 34 65.5t64 65.5q120 0 172.5 -51t52.5 -174v-29q0 -128 -24.5 -159t-93.5 -31q-18 0 -45 49t-39 49q-10 0 -15.5 -11.5t-5.5 -33.5v-37v-180v-162v-82q0 -48 5 -105q1 -13 1 -18q0 -47 -16 -59t-74 -12 q-35 0 -89 15t-67 26q-24 21 -34.5 48t-10.5 83v112q0 141 4.5 285.5t4.5 151.5q0 28 -3.5 64t-3.5 44v21q0 14 -5 27.5t-5 15.5z" />
<glyph unicode="s" horiz-adv-x="711" d="M68 180q0 15 42 57t58 42q14 0 34.5 -16.5t20.5 -20.5q0 -6 49.5 -37t73.5 -31q13 0 22 13.5t9 33.5t-20.5 40.5t-102.5 72.5q-93 61 -122.5 114.5t-29.5 139.5q0 143 83 267t163 124q18 0 51 -12l12 -4q13 -4 69.5 -14.5t92.5 -30.5q49 -29 72 -98.5t23 -186.5 q0 -63 -10.5 -77.5t-57.5 -14.5q-76 0 -105 15.5t-36 73.5q0 74 -8.5 91.5t-30.5 17.5q-26 0 -46 -34.5t-20 -69.5q0 -34 27.5 -67t118.5 -97q95 -67 132.5 -121.5t37.5 -120.5q0 -95 -96.5 -185.5t-167.5 -90.5q-128 0 -233 74.5t-105 152.5z" />
<glyph unicode="t" horiz-adv-x="588" d="M37 743q0 62 74 75q33 6 53 12q7 51 10.5 108t3.5 158q0 63 2 128v15q0 22 13 29.5t53 7.5q117 0 164 -40q11 -9 18 -13q7 -5 20 -9q25 -8 25 -30q0 -5 -2 -24q-10 -87 -10 -167v-82v-45q84 0 103.5 -25t19.5 -102q0 -83 -8.5 -99.5t-40.5 -16.5q-10 0 -26 1t-22 1 t-14 -1.5t-18 -5.5q0 -13 -1 -38t-1 -37v-156q0 -178 7 -331q1 -20 1 -23q0 -28 -24.5 -51t-49.5 -23q-17 0 -73 15t-97 22q-17 3 -29 15t-12 20q0 2 -1 14q-15 133 -15 334q0 4 1 22q3 66 3 121q0 1 -1 14.5t-1 26.5q0 15 0.5 23.5t1.5 15.5q-10 -2 -25 -2q-57 0 -79.5 33 t-22.5 110z" />
<glyph unicode="u" horiz-adv-x="860" d="M84 430q0 152 12 283t25 170q8 24 37 36.5t80 12.5q46 0 95.5 -27.5t49.5 -52.5q0 -21 -14.5 -193t-14.5 -319v-55q1 -29 4.5 -37t14.5 -8q17 0 39.5 31.5t48.5 90.5q22 50 32.5 105t10.5 149v41v150q0 110 6.5 143t26.5 33q79 0 152 -23.5t73 -37.5q0 -6 11 -27.5 t11 -32.5q0 -10 -5 -38.5t-5 -47.5q0 -5 1 -30q5 -141 5 -283v-135q0 -70 -2 -152.5t-2 -95.5q0 -25 5 -53t5 -31q0 -12 -30 -21.5t-72 -9.5q-93 0 -136 35l-3 2q-1 0 -7 45t-18 45q-5 0 -59.5 -54t-91.5 -54q-35 0 -99.5 27.5t-83.5 54.5q-6 8 -28.5 28.5t-32.5 36.5 q-22 35 -31.5 100.5t-9.5 198.5z" />
<glyph unicode="v" horiz-adv-x="750" d="M45 885q0 27 18.5 41t55.5 14q116 0 160.5 -14t44.5 -49q0 -8 -2.5 -33.5t-2.5 -42.5q0 -151 17.5 -278.5t34.5 -127.5q20 0 51 198t68 348q4 14 11 37q20 71 97 71q24 0 68 -32q22 -16 34 -24q10 -6 26 -13q42 -20 42 -69q0 -5 -38 -158t-87 -339q-38 -146 -74 -298 q-8 -33 -10 -40q-1 -3 -2 -8q-34 -119 -139 -119q-39 0 -133 36.5t-102 44.5q-20 22 -48 170q-5 28 -8 44q-38 206 -60 388t-22 253z" />
<glyph unicode="w" horiz-adv-x="1057" d="M51 862q0 43 31.5 69.5t71.5 26.5q56 0 103.5 -17.5t47.5 -37.5q0 -5 -2 -21.5t-2 -27.5q0 -6 5 -55.5t5 -93.5q0 -90 1.5 -130t4.5 -71q4 -44 9.5 -58t15.5 -14q19 0 38 124q15 108 30 179q27 135 38.5 163t32.5 28q2 0 8.5 -1t12.5 -1l12 2q11 2 21 2q25 0 75 -15.5 t58 -23.5q11 -11 15.5 -51t4.5 -156v-72q0 -11 -2 -56.5t-2 -80.5q0 -20 4.5 -29.5t13.5 -9.5q23 0 50 145q31 167 63 291q2 9 7 27q37 143 83 143q56 0 112 -31.5t56 -72.5q0 -58 -64.5 -298.5t-95.5 -399.5q-8 -43 -19 -110q-29 -165 -91 -165q-6 0 -111 28l-24 7 q-47 12 -68.5 27.5t-21.5 35.5q0 9 -10 77.5t-23 147.5q-4 24 -8 31.5t-13 8.5q-23 0 -64 -204l-5 -25q-3 -14 -8 -39q-20 -101 -39 -101h-23q-4 0 -11 -1t-9 -1q-8 0 -59 17.5t-73 31.5q-20 14 -46 21.5t-33 19.5q-26 40 -45 199q-8 65 -13 103q-21 147 -33 287.5 t-12 227.5z" />
<glyph unicode="x" horiz-adv-x="754" d="M43 49q0 73 82 257q44 98 65 153q-47 158 -74.5 280t-27.5 166q0 30 14 50t31 20q13 0 33.5 -6t28.5 -6q4 0 10.5 1t9.5 1q8 0 20 -4.5t17 -4.5t14 4.5t13 4.5q21 0 41 -19t26 -51q17 -93 27.5 -124.5t21.5 -31.5t49 94q31 76 54 128q25 57 35.5 72.5t19.5 15.5 q50 0 117 -57.5t67 -90.5q0 -39 -98 -257q-53 -118 -84 -189q39 -114 97.5 -243t58.5 -151q0 -25 -35.5 -43t-81.5 -18q-9 0 -27.5 3t-27.5 3q-94 0 -144 132q-12 32 -18 32q-9 0 -35 -73.5t-57 -136.5q-15 -9 -27.5 -13t-24.5 -4q-19 0 -53 11t-121 48q-8 2 -12 14t-4 33z " />
<glyph unicode="y" horiz-adv-x="770" d="M57 840q0 40 20 66t52 26q87 0 146.5 -29t66.5 -72q4 -22 6.5 -131.5t14.5 -192.5q2 -15 5 -40q8 -64 25 -64t47 153q9 47 15 75q9 47 25 130q53 277 98 277t123.5 -52.5t78.5 -82.5q0 -26 -64.5 -285.5t-113.5 -492.5q-28 -139 -74.5 -340t-46.5 -238v-14 q0 -25 -5 -31.5t-21 -7.5q-74 0 -159 37t-85 66q0 15 14 94t41 217q-97 298 -153 558.5t-56 373.5z" />
<glyph unicode="z" horiz-adv-x="705" d="M45 178q0 38 49 129.5t144 231.5q40 60 83.5 117.5t43.5 60.5q-1 6 -4.5 9t-10.5 3q-23 0 -49 -10q-8 -3 -12 -4q-12 -2 -37.5 -4.5t-39.5 -4.5q-7 -1 -21 -6.5t-19 -5.5q-33 0 -49.5 43.5t-16.5 132.5q0 53 82.5 81t237.5 28q53 0 89 -4t52 -12q37 -19 48 -69 q5 -22 9 -31q2 -4 12 -13q48 -43 48 -92q0 -16 -62 -99q-59 -78 -96 -133q-60 -88 -98.5 -155t-38.5 -82q0 -21 24 -30t97 -9h18q70 0 105 -29t35 -88q0 -31 -16.5 -82t-30.5 -51q-2 0 -10 2q-70 14 -193 14q-70 0 -160 -7.5t-100 -8.5q-40 7 -76.5 70.5t-36.5 107.5z" />
<glyph unicode="{" horiz-adv-x="1024" d="M152 410v241q6 0 18 -1t18 -1q118 0 168 55.5t50 188.5v254q0 136 24 193.5t82 89.5q48 25 120.5 37t180.5 12q12 0 38.5 -1t41.5 -1v-242q-7 0 -21 1t-20 1q-98 0 -132 -35.5t-34 -146.5v-240q0 -140 -46 -200t-165 -85q120 -24 165.5 -82.5t45.5 -199.5v-242 q0 -110 33.5 -145t130.5 -35q7 0 21.5 1t21.5 1v-242q-15 0 -42 -1t-40 -1q-108 0 -179.5 12t-119.5 37q-59 32 -82.5 88.5t-23.5 192.5v256q0 133 -49.5 187.5t-168.5 54.5q-4 0 -17 -1t-19 -1z" />
<glyph unicode="|" horiz-adv-x="1024" d="M393 -483v2048h240v-2048h-240z" />
<glyph unicode="}" horiz-adv-x="1024" d="M133 -172q9 0 23 -1t20 -1q97 0 130.5 34.5t33.5 145.5v242q0 140 46 199t165 83q-120 25 -165.5 84t-45.5 201v240q0 111 -33.5 146.5t-126.5 35.5q-7 0 -22.5 -1t-24.5 -1v242q15 0 41.5 1t38.5 1q108 0 180 -12t121 -37q58 -32 82.5 -89.5t24.5 -193.5v-254 q0 -134 49 -189t168 -55q6 0 18 1t18 1v-241q-6 0 -18 1t-18 1q-119 0 -168 -55t-49 -187v-256q0 -137 -24.5 -194.5t-82.5 -88.5q-45 -24 -113.5 -35.5t-177.5 -11.5q-14 0 -44 1t-46 1v242z" />
<glyph unicode="~" horiz-adv-x="1706" d="M178 401v254q112 73 207.5 108.5t179.5 35.5q63 0 126.5 -12t169.5 -46q16 -5 51 -17q159 -56 247 -56q84 0 173.5 36t197.5 115v-254q-101 -69 -194 -103t-183 -34q-45 0 -89 7.5t-83 21.5q-13 4 -38 13q-255 89 -382 89q-84 0 -175.5 -37.5t-207.5 -120.5z" />
<glyph unicode="&#xa0;" />
<glyph unicode="&#xa1;" horiz-adv-x="569" d="M70 115q0 4 16 47t16 82q0 11 21.5 183.5t38.5 309.5q8 76 16.5 161.5t9.5 94.5q1 1 1 4q9 61 61 62q54 0 107 -19t53 -45q0 -6 3 -37q21 -206 21 -428q0 -394 -21 -486.5t-83 -92.5q-28 0 -83 26l-5 3q-65 31 -102.5 56.5t-37.5 39.5l-4 3q-28 17 -28 36zM117 1268 q0 104 47.5 163.5t130.5 59.5q71 0 128.5 -59t57.5 -134t-50.5 -136.5t-106.5 -61.5q-90 0 -148.5 46.5t-58.5 121.5z" />
<glyph unicode="&#xa2;" d="M203 537q0 226 85 416t175 190h2q1 13 4 39q9 123 145 123q30 0 44 -16t14 -50q0 -6 -5 -49.5t-5 -81.5v-29q85 -17 127 -88t42 -196v-19q0 -71 -32 -89.5t-117 -18.5q-26 0 -36.5 11.5t-10.5 43.5v35q0 57 -17 93t-45 36q-44 0 -81 -120t-37 -280q0 -42 13 -66t36 -24 q21 0 54 30.5t63 78.5q6 9 14 28q18 39 41 39q40 0 88.5 -45.5t48.5 -85.5q0 -67 -61.5 -156.5t-136.5 -121.5q-4 -37 -5.5 -70.5t-1.5 -70.5v-11q0 -30 -7.5 -38.5t-27.5 -8.5t-76 19.5t-71 31.5q-11 8 -15.5 19.5t-4.5 30.5q0 8 2 34.5t2 44.5q0 2 -2 15t-2 22 q-112 70 -157.5 150t-45.5 205z" />
<glyph unicode="&#xa3;" d="M61 150q0 108 86 132q22 7 31 11q46 20 67 52.5t21 80.5v18q-21 0 -45.5 -1t-27.5 -1q-49 0 -64.5 3t-22.5 10q-12 12 -28.5 52.5t-16.5 72.5q0 84 141 92q51 3 80 6q3 35 6 98q15 307 99 414q21 26 62.5 51.5t60.5 42.5q31 28 64.5 43.5t54.5 15.5q24 0 69 -25 q16 -9 24 -13q15 -7 51.5 -12.5t57.5 -16.5q67 -34 94 -115t27 -256q0 -40 -28.5 -64t-77.5 -24q-100 0 -129 15t-29 55q0 9 2 28t2 29q0 28 -6 40.5t-18 12.5q-30 0 -58 -72.5t-28 -174.5q0 -16 0.5 -23.5t1.5 -13.5q16 1 31 1.5t28 0.5q12 0 37 -1t39 -1q61 0 98 -55.5 t37 -143.5q0 -35 -27.5 -49t-130.5 -14h-18q-29 0 -61 1t-33 1q-20 -1 -25 -26t-12 -42q-18 -42 -46 -62.5t-28 -25.5q0 -3 4 -4.5t25 -1.5q1 0 77 5t152 5q118 0 174 -10t72 -33q15 -21 18 -69q1 -17 2 -25q2 -16 9.5 -45.5t7.5 -42.5q0 -43 -52.5 -62.5t-164.5 -19.5h-12 q-45 2 -85 2q-37 0 -179.5 -4t-248.5 -4h-114h-11q-51 0 -68.5 38.5t-17.5 123.5z" />
<glyph unicode="&#xa4;" horiz-adv-x="987" d="M51 481q0 9 9.5 37.5t9.5 40.5q0 6 1 12t1 9q0 6 10.5 11t26.5 5h46q2 23 5 47.5t8 50.5h-6q-6 0 -36.5 -2t-43.5 -2q-16 0 -23.5 3.5t-7.5 11.5t9.5 37t9.5 40q0 6 1 12t1 9q0 6 10.5 11t26.5 5h88q16 65 33.5 120t37.5 103q31 74 68 136.5t76 105.5q7 8 19 22 q13 15 18 17q42 6 84 10t59 4q168 0 260 -88.5t92 -244.5q0 -54 -5 -87q-1 -6 -1 -8q0 -26 -26 -35.5t-105 -9.5q-69 0 -101.5 32.5t-41.5 107.5q-1 2 -1 8q-6 55 -36 55q-17 0 -39.5 -48t-54.5 -154q-4 -15 -7.5 -26t-7.5 -22q35 0 104 2t103 2q21 0 29 -4.5t8 -19.5 q0 -10 -2 -20.5t-2 -12.5q0 -9 -7 -29t-8 -23q-3 -10 -12.5 -15t-28.5 -5q-3 0 -19.5 1t-29.5 1h-163q-5 -18 -8.5 -39t-7.5 -61q57 2 107 3t89 1q20 0 28.5 -5t8.5 -20q0 -9 -2.5 -20t-2.5 -12q0 -9 -6.5 -28t-7.5 -22q-3 -10 -12.5 -15t-28.5 -5h-49q-53 0 -79.5 0.5 t-51.5 1.5q2 -132 27 -203t71 -71q80 0 139 165q11 31 17 48h12q11 0 24.5 2t14.5 2q24 0 51.5 -14.5t75.5 -53.5q8 -6 23 -14q18 -9 18 -21v-8q0 -3 3 -15t3 -20v-22q0 -23 -15 -54t-48 -81q-52 -80 -120 -122t-147 -42q-190 0 -319 146t-144 376q-15 -2 -35.5 -3t-35.5 -1 q-16 0 -23 3t-8 11z" />
<glyph unicode="&#xa5;" horiz-adv-x="985" d="M10 506q0 3 1 14t1 19v6q1 12 5.5 15t17.5 3q5 0 14 -3t12 -3q11 0 25 3t18 3q8 0 29.5 -3t34.5 -3q5 0 34 3t54 3q-25 66 -39 98t-26 57q-7 0 -14 -0.5t-19 -0.5q-15 0 -34 2t-24 2q-6 0 -25.5 -2t-33.5 -2q-17 0 -23.5 3t-7.5 11q0 2 3 8t3 11q0 3 -2 10t-2 10 q0 5 5.5 14t5.5 13q0 5 -6.5 11.5t-6.5 8.5q0 7 11 13t26 6q4 0 14 -2.5t17 -2.5q6 0 23.5 2.5t27.5 2.5h16q-15 51 -44 144q-68 212 -68 298q0 24 45.5 53t75.5 29q70 0 112 -47.5t76 -186.5q36 -145 75.5 -252.5t51.5 -107.5q17 0 49 147q38 168 72 293q11 40 28 108 q54 218 121 218q59 0 137 -42t78 -79q0 -47 -146 -496l-26 -79q21 -3 30 -3.5t17 -1.5q9 0 37 2.5t47 2.5q21 0 29 -5t8 -20q0 -9 -2 -20t-2 -13q0 -7 1 -20.5t1 -18.5q0 -10 -9 -15t-28 -5q-3 0 -19.5 1t-29.5 1q-38 0 -75 2h-9q-3 0 -16 -1.5t-21 -2.5 q-11 -23 -24.5 -59.5t-32.5 -94.5q6 0 18.5 -1t18.5 -1q4 0 29 -1t47 -1q5 0 28 2t41 2q14 0 28 -1t15 -1h19q13 0 17.5 -4.5t4.5 -15.5q0 -7 -3 -23t-3 -24t2 -20t2 -15q0 -6 -9.5 -10.5t-25.5 -4.5q-11 0 -33.5 1.5t-33.5 1.5q-28 0 -72 -2.5t-59 -2.5t-33 0.5t-39 1.5 q-8 -14 -12 -30t-4 -39v-15q0 -19 1 -44t1 -29q0 -83 -5.5 -181t-5.5 -112q0 -22 -22.5 -31.5t-73.5 -9.5q-26 0 -60.5 12.5t-42.5 14.5q-7 1 -39 4t-52 12q-16 7 -21.5 14t-5.5 21q0 5 1 19.5t1 23.5q0 32 -3 105.5t-3 113.5q0 20 1 71t1 80q-40 3 -66.5 4t-50.5 1 q-4 0 -35.5 -2.5t-60.5 -2.5h-41q-23 1 -28 4.5t-5 22.5q0 10 -1 20.5t-1 12.5z" />
<glyph unicode="&#xa6;" horiz-adv-x="1024" d="M393 -350v758h240v-758h-240zM393 674v758h240v-758h-240z" />
<glyph unicode="&#xa7;" horiz-adv-x="1065" d="M76 18q0 29 52.5 78t86.5 49t60 -39q17 -25 30 -40q47 -52 100 -80.5t103 -28.5q65 0 105 37t40 96q0 106 -176 184q-82 36 -131 62q-145 74 -198.5 142.5t-53.5 166.5q0 149 145 263q13 10 13 12q0 1 -10 13q-78 88 -78 210q0 132 107 215.5t282 83.5q108 0 212.5 -44.5 t104.5 -74.5q0 -68 -27.5 -116t-72.5 -48q-1 0 -68 20.5t-133 20.5q-61 0 -98 -25t-37 -67q0 -79 223 -152q35 -12 54 -18q132 -45 199 -117.5t67 -171.5q0 -74 -27.5 -139t-74.5 -102q-15 -12 -43.5 -22.5t-28.5 -20.5q0 -6 23 -30q110 -110 110 -237q0 -169 -119 -278 t-305 -109q-85 0 -160.5 28.5t-142.5 86.5q-55 47 -94 106.5t-39 85.5zM367 647q0 -21 17.5 -40t55.5 -40q8 -3 45 -17t66 -28q9 -4 24.5 -13t22.5 -9q23 0 63.5 38t40.5 85q0 31 -24.5 56.5t-73.5 43.5q-39 14 -92 28.5t-59 14.5q-22 0 -54 -37.5t-32 -81.5z" />
<glyph unicode="&#xa8;" horiz-adv-x="1024" d="M195 1180q0 9 13.5 52.5t27.5 64.5q18 28 41.5 39.5t62.5 11.5q40 0 87.5 -59t47.5 -87q0 -36 -40.5 -80.5t-80.5 -44.5q-58 0 -108.5 33t-50.5 70zM549 1180q0 10 12.5 52.5t26.5 64.5q18 27 42.5 39t63.5 12q40 0 87.5 -59t47.5 -87q0 -36 -40.5 -80.5t-79.5 -44.5 q-59 0 -109.5 33t-50.5 70z" />
<glyph unicode="&#xa9;" horiz-adv-x="1706" d="M106 737q0 148 57.5 285t164.5 246q105 106 238 161.5t286 55.5q154 0 289.5 -56t242.5 -163q106 -106 160.5 -240.5t54.5 -288.5q0 -153 -54 -287t-159 -237q-109 -108 -247 -165.5t-287 -57.5q-148 0 -283.5 57t-242.5 164t-163.5 241.5t-56.5 284.5zM242 737 q0 -119 47 -230.5t135 -199.5q87 -87 198 -133.5t232 -46.5t234 47t202 135q86 84 130 193t44 235q0 125 -45 235.5t-131 196.5q-88 89 -198.5 135t-235.5 46q-126 0 -235 -45.5t-195 -133.5q-88 -89 -135 -201t-47 -233zM446 731q0 207 111 329t299 122q157 0 257 -80 t108 -211h-213q-7 67 -47.5 104t-108.5 37q-83 0 -129.5 -77t-46.5 -216q0 -140 47.5 -212t138.5 -72q67 0 106.5 40.5t45.5 114.5h215q-6 -143 -107.5 -230t-263.5 -87q-190 0 -301 117.5t-111 320.5z" />
<glyph unicode="&#xaa;" horiz-adv-x="600" d="M51 950q0 79 71 130t208 71v14v29q0 44 -5 67t-14 23q-27 0 -66 -64.5t-63 -64.5q-64 0 -89 10t-25 33q0 17 20 66t51 98q31 48 55.5 72t41.5 24q13 0 78 -14.5t122 -34.5q56 -19 77.5 -62.5t21.5 -144.5q0 -96 -4.5 -209.5t-4.5 -128.5v-47v-24q0 -43 -9.5 -52.5 t-39.5 -9.5q-7 0 -17.5 2t-13.5 2q-12 0 -29.5 -3t-23.5 -3q-18 0 -42 31q-7 9 -12 14q-20 -2 -52.5 -9t-44.5 -7q-71 0 -131 65t-60 127zM207 924q0 -19 17 -26t79 -7q4 0 8.5 1t14.5 6q1 10 2.5 26t1.5 20q0 16 -0.5 28t-1.5 25q-59 -3 -90 -22t-31 -51z" />
<glyph unicode="&#xab;" horiz-adv-x="979" d="M70 438q0 34 67 148q30 51 47 82t42 84q48 100 83 100q65 0 128 -22t63 -46q0 -3 -38 -67t-75 -137q-19 -37 -46.5 -86t-27.5 -56q0 -4 24.5 -52.5t57.5 -104.5q15 -26 42 -69q63 -103 63 -122q0 -28 -52.5 -51t-119.5 -23q-20 0 -53.5 44.5t-94.5 152.5q-52 92 -81 152 t-29 73zM477 438q0 35 71 157q27 46 42 73q17 31 42 84q48 100 83 100q65 0 128.5 -22t63.5 -46q0 -2 -38.5 -66t-75.5 -138q-19 -37 -46.5 -86t-27.5 -56q0 -3 25 -51.5t59 -105.5q17 -30 45 -78q57 -95 57 -113q0 -28 -52.5 -51t-119.5 -23q-20 0 -53.5 44.5t-93.5 152.5 q-50 88 -79.5 149.5t-29.5 75.5z" />
<glyph unicode="&#xac;" horiz-adv-x="1706" d="M254 639v227h1198v-501h-229v274h-969z" />
<glyph unicode="&#xad;" horiz-adv-x="664" d="M82 530q0 22 2.5 29.5t9.5 7.5q4 0 8.5 -3t6.5 -3q3 0 7 4t5 4q4 0 11.5 -2t12.5 -2q2 0 18.5 4t33.5 4q20 0 50 -1t40 -1q16 0 38.5 1t28.5 1q129 0 169 -9.5t40 -35.5q0 -6 -2 -12l-2 -6q0 -2 4 -9q21 -40 21 -95q0 -36 -5 -44t-18 -8q-2 0 -9.5 3t-12.5 3t-43.5 -8 t-71.5 -8q-19 0 -54 5t-51 5q-11 0 -38 -4t-41 -4q-11 0 -25 1t-18 1q-10 0 -21 -1t-14 -1q-23 0 -51.5 62.5t-28.5 121.5z" />
<glyph unicode="&#xae;" horiz-adv-x="1706" d="M106 737q0 151 59 290t169 247q105 104 237 157.5t281 53.5q156 0 294 -57.5t245 -167.5q101 -104 154.5 -238t53.5 -285q0 -155 -56.5 -291t-164.5 -239q-109 -105 -245 -161t-281 -56q-151 0 -287 58t-243 169q-105 108 -160.5 241.5t-55.5 278.5zM244 737 q0 -121 44 -229t130 -195q87 -90 199 -138t235 -48q121 0 232.5 45.5t199.5 130.5t134 196.5t46 237.5q0 124 -44 233.5t-128 194.5q-89 91 -200.5 138t-237.5 47q-124 0 -232 -44t-194 -128q-90 -90 -137 -203t-47 -238zM537 344v819h329q174 0 264.5 -60t90.5 -177 q0 -81 -46 -139t-128 -82l182 -361h-248l-154 326h-65v-326h-225zM762 803h80q74 0 110.5 26.5t36.5 79.5q0 59 -38 86t-122 27h-67v-219z" />
<glyph unicode="&#xaf;" horiz-adv-x="1024" d="M195 1278q0 9 4.5 14.5t11.5 5.5h33q5 0 15.5 -1t16.5 -1q7 0 24 3.5t28 3.5q36 0 75 -2q10 -1 13 -1q29 0 70 1.5t53 1.5q163 0 212.5 -8t49.5 -29q0 -5 -2 -10t-2 -7q0 -1 4 -6q28 -31 28 -80q0 -23 -5.5 -32t-20.5 -9q-3 0 -15 3t-24 3q-1 0 -48.5 -7t-92.5 -7 q-23 0 -66 4t-63 4q-17 0 -54.5 -3t-58.5 -3h-62h-28q-28 0 -62 53t-34 109z" />
<glyph unicode="&#xb0;" horiz-adv-x="674" d="M27 1155q0 131 90.5 221t220.5 90q129 0 220 -91t91 -220q0 -128 -91.5 -219.5t-221.5 -91.5q-129 0 -219 90.5t-90 220.5zM172 1157q0 -70 48 -118t118 -48q68 0 116 49t48 117t-48 116t-116 48q-69 0 -117.5 -48t-48.5 -116z" />
<glyph unicode="&#xb1;" horiz-adv-x="1706" d="M254 -18v231h1198v-231h-1198zM254 690v232h481v319h238v-319h479v-232h-479v-319h-238v319h-481z" />
<glyph unicode="&#xb2;" horiz-adv-x="653" d="M59 1059q0 16 30.5 52t94.5 95q59 56 107.5 81.5t95.5 25.5q46 0 81 -41q16 -19 28 -29q5 -4 20 -13q98 -57 98 -145q0 -52 -34.5 -130t-87.5 -140q-27 -31 -61 -63t-34 -35q1 -4 4.5 -6t10.5 -2q2 0 12 1t18 1q92 0 131 -36.5t39 -119.5q0 -19 -9.5 -35t-20.5 -16 q-2 0 -11 1q-84 9 -206 9q-71 0 -144 -8q-15 -2 -18 -2q-32 0 -48 6.5t-34 32.5q-16 23 -32.5 43t-16.5 22q0 17 3.5 33.5t6.5 17.5q1 2 8 7q62 45 123 122q88 111 147.5 212.5t59.5 125.5q0 7 -3 10t-9 3q-8 0 -36.5 -18.5t-56.5 -43.5q-26 -25 -58 -60q-41 -44 -79 -44 q-36 0 -77.5 34.5t-41.5 51.5z" />
<glyph unicode="&#xb3;" horiz-adv-x="653" d="M90 623q0 23 4.5 39t14.5 28q17 -4 35 -6t36 -2q75 0 131 29t56 59q0 15 -39 34t-82 19q-22 0 -43 -6t-23 -6q-19 0 -45 39t-26 76q0 15 9 28t19 13q3 0 6.5 -1t6.5 -1q9 0 68.5 23t94.5 46q41 28 65.5 55.5t24.5 43.5q0 4 -7.5 8t-16.5 4q-67 0 -159 -62l-9 -6 q-3 0 -23.5 8.5t-38.5 18.5q-5 3 -9 15.5t-9 19.5q-10 15 -13 38.5t-3 24.5q-1 1 -6 4.5t-5 7.5q1 22 36 29h1q12 4 40 19q100 53 175 53q63 0 114 -49q17 -16 28 -25q51 -45 72.5 -77.5t21.5 -65.5q0 -49 -37 -95.5t-113 -91.5q0 -13 29 -30q19 -11 29 -19q44 -31 61 -58 t17 -65q0 -102 -105 -177t-244 -75q-49 0 -70.5 7.5t-31.5 25.5q-18 39 -35 82q-2 6 -2 21z" />
<glyph unicode="&#xb4;" horiz-adv-x="1024" d="M391 1161q0 35 79 62q23 8 32 12q55 30 128.5 78.5t86.5 48.5q30 0 81.5 -49t51.5 -80q0 -39 -92 -63q-40 -11 -62 -19q-54 -20 -126 -52t-83 -32q-18 0 -57 37.5t-39 56.5z" />
<glyph unicode="&#xb5;" horiz-adv-x="1315" d="M-45 -428l238 1518h358l-80 -529q-6 -41 -9 -77.5t-3 -65.5q0 -85 35.5 -127.5t107.5 -42.5q88 0 138.5 68.5t74.5 220.5l88 553h357l-175 -1090h-321l18 125q-40 -75 -89.5 -108t-119.5 -33q-59 0 -106.5 31t-77.5 89l-82 -532h-352z" />
<glyph unicode="&#xb6;" horiz-adv-x="1024" d="M29 1130q0 158 106 253.5t283 95.5h579v-123h-106v-1356h-176v1356h-150v-1356h-174v784q-164 6 -263 101t-99 245z" />
<glyph unicode="&#xb7;" horiz-adv-x="532" d="M88 647q0 79 49.5 148t95.5 69q87 0 148 -65.5t61 -161.5q0 -80 -51.5 -138.5t-105.5 -58.5q-81 0 -134 45.5t-53 106.5q0 12 -5 30t-5 25z" />
<glyph unicode="&#xb8;" horiz-adv-x="1024" d="M254 -389q0 35 15 60.5t34 25.5q5 0 27 -13q99 -57 196 -57q36 0 60 14.5t24 32.5q0 37 -19.5 53.5t-64.5 16.5q-9 0 -28 -1t-29 -1q-21 0 -32 12.5t-11 36.5q0 25 9 78t26 119h100q-2 -23 -6 -55t-4 -42q0 -9 7 -16.5t15 -7.5h45q74 0 122 -47.5t48 -120.5 q0 -86 -59.5 -130t-177.5 -44q-103 0 -200 30t-97 56z" />
<glyph unicode="&#xb9;" horiz-adv-x="653" d="M145 1057q0 2 14 17q70 78 114 168l9 18q25 53 48 53q4 0 11.5 -1t8.5 -1q3 0 10.5 1t12.5 1q15 0 66 -22q17 -7 26 -11q2 -1 5 -2q38 -16 38 -47q0 -7 -3 -43q-18 -190 -18 -377q0 -93 4 -192q1 -22 1 -27q0 -67 -8 -86t-46 -19h-6q-15 0 -53.5 7.5t-63.5 15.5 q-24 7 -38.5 44.5t-14.5 94.5q0 68 3.5 162t10.5 209q-5 -2 -17 -9t-21 -7h-2q-37 0 -64 18t-27 35z" />
<glyph unicode="&#xba;" horiz-adv-x="565" d="M41 1036q0 157 59 288.5t107 131.5q35 0 78.5 -17.5t62.5 -17.5q3 0 9.5 -3t11.5 -3q2 0 7.5 1t10.5 1q56 0 107 -97.5t51 -234.5q0 -136 -70 -243t-139 -107q-29 0 -57 7.5t-48 21.5q-12 7 -51 19.5t-61 23.5q-30 15 -54 80.5t-24 148.5zM225 958q0 -26 11 -43.5 t26 -17.5q29 0 52.5 70.5t23.5 177.5q0 61 -8 95t-23 34q-21 0 -51.5 -108.5t-30.5 -207.5z" />
<glyph unicode="&#xbb;" horiz-adv-x="979" d="M59 84q0 3 38 67t75 136q19 38 47.5 87t28.5 56q0 2 -20.5 40.5t-53.5 98.5q-25 45 -66 112q-49 80 -49 95q0 29 53 52.5t121 23.5q20 0 53.5 -44.5t94.5 -152.5q49 -86 78.5 -149t29.5 -78q0 -31 -64 -141q-32 -55 -50 -88t-43 -87q-44 -96 -80 -96q-64 0 -128.5 22 t-64.5 46zM465 84q0 3 38.5 66.5t76.5 136.5q17 34 45 85t28 58q0 2 -20 40.5t-53 98.5q-25 45 -66 112q-49 80 -49 95q0 29 53 52.5t121 23.5q20 0 53.5 -44.5t93.5 -152.5q49 -86 79 -149t30 -78q0 -31 -64 -141q-32 -55 -51 -88q-17 -33 -43 -87q-44 -96 -80 -96 q-64 0 -128 22t-64 46z" />
<glyph unicode="&#xbc;" horiz-adv-x="1591" d="M139 1071q0 2 14 17q68 73 109 155q3 6 7 15q25 53 46 53q5 0 12 -1t9 -1q1 0 8.5 1t11.5 1q13 0 60 -20q16 -7 26 -11l3 -1q40 -14 40 -46q0 -7 -2 -37q-16 -178 -16 -354q0 -87 2 -179v-24q0 -65 -7 -81.5t-42 -16.5h-8q-13 0 -50 6.5t-61 13.5q-22 7 -35.5 42.5 t-13.5 88.5q0 80 3 166.5t9 179.5q-5 -1 -16 -8.5t-21 -7.5h-2q-34 0 -60 17t-26 32zM283 66q0 12 177.5 286t438.5 660q28 41 73 109q144 216 218 216q85 0 109 -55q4 -8 6 -8q2 -6 2 -10q0 -6 -40.5 -47t-82.5 -95q-176 -223 -354 -487l-15 -23q-142 -211 -273.5 -437 t-142.5 -226q-56 0 -86 30.5t-30 86.5zM995 272q0 29 35.5 109t93.5 178q28 46 64 110q45 81 65 81q12 0 33.5 -3.5t30.5 -3.5q4 0 11 2.5t9 2.5q12 0 66 -13.5t94 -29.5q11 -4 15.5 -7.5t5.5 -9.5q0 -1 -1 -5q-10 -44 -10 -103v-29q0 -7 -2 -58.5t-2 -97.5q0 -8 1 -29 t1 -34q6 -1 17.5 -3.5t17.5 -2.5q25 0 37 -30.5t12 -90.5q0 -5 -3 -11l-1 -1h-26q-25 -1 -38.5 -2.5t-25.5 -4.5q-2 -30 -3 -57.5t-1 -50.5q0 -24 1 -50t1 -30v-3q-2 -11 -2 -21q-8 -5 -16.5 -7t-26.5 -2q-37 0 -78.5 6t-44.5 9q-18 5 -25.5 40.5t-7.5 114.5q0 6 1 13t1 10 q0 11 -0.5 17.5t-1.5 10.5h-30q-71 0 -119 -9l-6 -1q-13 0 -48 23q-26 17 -44 28q-3 2 -12 7q-38 20 -38 38zM1180 350q0 -4 4.5 -7t11.5 -3q5 0 15.5 1t15.5 1q1 0 8 -1q34 -4 69 -5q7 98 19 186q2 15 2 17q0 6 -3 9t-9 3q-4 0 -11 -8.5t-26 -36.5q-39 -58 -67.5 -105.5 t-28.5 -50.5z" />
<glyph unicode="&#xbd;" horiz-adv-x="1591" d="M139 1071q0 2 14 17q68 73 109 155q3 6 7 15q25 53 46 53q5 0 12 -1t9 -1q1 0 8.5 1t11.5 1q13 0 60 -20q16 -7 26 -11l3 -1q40 -14 40 -46q0 -7 -2 -37q-16 -178 -16 -354q0 -87 2 -179v-24q0 -65 -7 -81.5t-42 -16.5h-8q-13 0 -50 6.5t-61 13.5q-22 7 -35.5 42.5 t-13.5 88.5q0 80 3 166.5t9 179.5q-5 -1 -16 -8.5t-21 -7.5h-2q-34 0 -60 17t-26 32zM283 66q0 12 177.5 286t438.5 660q28 41 73 109q144 216 218 216q85 0 109 -55q4 -8 6 -8q2 -6 2 -10q0 -6 -40.5 -47t-82.5 -95q-176 -223 -354 -487l-15 -23q-142 -211 -273.5 -437 t-142.5 -226q-56 0 -86 30.5t-30 86.5zM1024 510q0 15 29.5 49.5t89.5 87.5q55 51 102 74.5t92 23.5q44 0 76 -38q16 -18 27 -27q5 -4 18 -11q96 -53 96 -137q0 -46 -34 -120t-84 -131q-26 -29 -58 -59t-32 -34q0 -2 4.5 -4t9.5 -2q2 0 12 1t17 1q86 0 123.5 -34t37.5 -111 q0 -18 -9 -33.5t-19 -15.5q-2 0 -11 1q-79 9 -196 9q-69 0 -139 -9q-12 -1 -15 -1q-52 0 -79 35l-1 2q-15 20 -31 39t-16 22q0 12 4 28t7 22l5 3q57 37 121 115q83 102 139 198t56 117q0 6 -2.5 8.5t-7.5 2.5q-9 0 -36 -17t-52 -41q-28 -24 -60 -58q-37 -38 -71 -38 t-73.5 33t-39.5 49z" />
<glyph unicode="&#xbe;" horiz-adv-x="1591" d="M86 668q0 25 4 38t14 23q17 -4 33.5 -6t34.5 -2q70 0 124 27.5t54 54.5q0 14 -37 32.5t-77 18.5q-21 0 -41.5 -6t-22.5 -6q-19 0 -44.5 37t-25.5 71q0 14 9.5 25.5t19.5 11.5q4 0 7 -1l3 -1q8 0 66 22.5t92 43.5q39 24 62.5 50t23.5 42q0 5 -7 8.5t-16 3.5 q-63 0 -152 -58q-8 -5 -9 -5q-31 8 -58 24q-5 3 -9.5 15t-8.5 18q-11 17 -13 48q-1 8 -1 11q-1 2 -6 4t-5 7q0 21 34 28h1q10 3 40 18q94 48 165 48q59 0 109 -47q16 -15 26 -23q50 -42 70 -72t20 -61q0 -46 -35 -89t-106 -85q0 -14 27 -29q18 -10 26 -16q42 -29 58 -54 t16 -61q0 -96 -100 -165.5t-234 -69.5q-49 0 -68 6.5t-28 23.5q-19 37 -33 76q-2 6 -2 21zM283 66q0 12 177.5 286t438.5 660q28 41 73 109q144 216 218 216q85 0 109 -55q4 -8 6 -8q2 -6 2 -10q0 -6 -40.5 -47t-82.5 -95q-176 -223 -354 -487l-15 -23 q-142 -211 -273.5 -437t-142.5 -226q-56 0 -86 30.5t-30 86.5zM995 272q0 29 35.5 109t93.5 178q28 46 64 110q45 81 65 81q12 0 33.5 -3.5t30.5 -3.5q4 0 11 2.5t9 2.5q12 0 66 -13.5t94 -29.5q11 -4 15.5 -7.5t5.5 -9.5q0 -1 -1 -5q-10 -44 -10 -103v-29q0 -7 -2 -58.5 t-2 -97.5q0 -8 1 -29t1 -34q6 -1 17.5 -3.5t17.5 -2.5q25 0 37 -30.5t12 -90.5q0 -5 -3 -11l-1 -1h-26q-25 -1 -38.5 -2.5t-25.5 -4.5q-2 -30 -3 -57.5t-1 -50.5q0 -24 1 -50t1 -30v-3q-2 -11 -2 -21q-8 -5 -16.5 -7t-26.5 -2q-37 0 -78.5 6t-44.5 9q-18 5 -25.5 40.5 t-7.5 114.5q0 6 1 13t1 10q0 11 -0.5 17.5t-1.5 10.5h-30q-71 0 -119 -9l-6 -1q-13 0 -48 23q-26 17 -44 28q-3 2 -12 7q-38 20 -38 38zM1180 350q0 -4 4.5 -7t11.5 -3q5 0 15.5 1t15.5 1q1 0 8 -1q34 -4 69 -5q7 98 19 186q2 15 2 17q0 6 -3 9t-9 3q-4 0 -11 -8.5 t-26 -36.5q-39 -58 -67.5 -105.5t-28.5 -50.5z" />
<glyph unicode="&#xbf;" horiz-adv-x="858" d="M45 330q0 64 32 130t122 173q37 45 104 116q113 120 113 166q0 21 -12.5 41t-12.5 29q0 19 22.5 36t32.5 17q7 0 34.5 -7t47.5 -7q23 0 43.5 -2.5t38.5 -7.5q36 -14 84.5 -60.5t48.5 -74.5q0 -63 -258 -386l-8 -10q-22 -28 -61 -75q-94 -116 -94 -140q0 -16 8 -23t26 -7 q41 0 117 38.5t162 104.5q13 10 31 28q23 23 36 23q40 0 84.5 -76t44.5 -141q0 -62 -81 -128q-10 -8 -17 -13q-67 -55 -165.5 -93t-153.5 -38q-112 0 -240.5 123t-128.5 264zM358 1227q0 119 32 169t106 50q36 0 84 -23l12 -6t26.5 -4t38.5 -10q33 -16 55.5 -56t22.5 -73 q0 -81 -45 -138t-117 -57q-76 0 -145.5 48.5t-69.5 99.5z" />
<glyph unicode="&#xc0;" horiz-adv-x="1057" d="M41 29q0 80 68.5 434t173.5 737q12 46 27 115q27 123 106 123q55 0 150 -28q21 -6 32 -9q14 -4 66.5 -13.5t85.5 -23.5q74 -32 84 -158q3 -39 6 -58q21 -131 53.5 -344.5t44.5 -287.5q24 -153 50 -311t26 -164q0 -16 -48 -37.5t-110 -21.5h-37q-91 0 -108 80q-1 7 -2 12 q-30 120 -42.5 155t-23.5 35q-16 0 -52 -2t-56 -2q-53 0 -102 -7q-9 -1 -11 -1q-3 0 -9 1t-10 1q-17 0 -27 -85q-10 -92 -24 -159q-6 -30 -12 -71q-8 -54 -39 -54q-5 0 -34 1t-54 1q-13 0 -51.5 20.5t-99.5 59.5q-12 9 -16.5 22.5t-4.5 39.5zM224 1751q0 28 51 76.5t82 48.5 q12 0 83 -47.5t130 -79.5q9 -5 35 -14q75 -26 75 -60q0 -18 -38.5 -56t-57.5 -38q-9 0 -81 31.5t-128 52.5q-22 8 -63 19q-88 24 -88 67zM442 569q1 -13 6 -16.5t19 -3.5q8 0 20 -2h2q73 0 88 5t15 34q0 8 -10.5 86t-18.5 144q-7 56 -12 126q-4 62 -16 62t-18 -46 q-5 -36 -9 -61q-25 -154 -58 -293q-8 -32 -8 -35z" />
<glyph unicode="&#xc1;" horiz-adv-x="1057" d="M41 29q0 80 68.5 434t173.5 737q12 46 27 115q27 123 106 123q55 0 150 -28q21 -6 32 -9q14 -4 66.5 -13.5t85.5 -23.5q74 -32 84 -158q3 -39 6 -58q21 -131 53.5 -344.5t44.5 -287.5q24 -153 50 -311t26 -164q0 -16 -48 -37.5t-110 -21.5h-37q-91 0 -108 80q-1 7 -2 12 q-30 120 -42.5 155t-23.5 35q-16 0 -52 -2t-56 -2q-53 0 -102 -7q-9 -1 -11 -1q-3 0 -9 1t-10 1q-17 0 -27 -85q-10 -92 -24 -159q-6 -30 -12 -71q-8 -54 -39 -54q-5 0 -34 1t-54 1q-13 0 -51.5 20.5t-99.5 59.5q-12 9 -16.5 22.5t-4.5 39.5zM420 1675q0 35 79 62 q23 8 32 12q55 30 128.5 78.5t86.5 48.5q30 0 81.5 -49t51.5 -80q0 -39 -92 -63q-40 -11 -62 -19q-54 -20 -126 -52t-83 -32q-18 0 -57 37.5t-39 56.5zM442 569q1 -13 6 -16.5t19 -3.5q8 0 20 -2h2q73 0 88 5t15 34q0 8 -10.5 86t-18.5 144q-7 56 -12 126q-4 62 -16 62 t-18 -46q-5 -36 -9 -61q-25 -154 -58 -293q-8 -32 -8 -35z" />
<glyph unicode="&#xc2;" horiz-adv-x="1057" d="M41 29q0 80 68.5 434t173.5 737q12 46 27 115q27 123 106 123q55 0 150 -28q21 -6 32 -9q14 -4 66.5 -13.5t85.5 -23.5q74 -32 84 -158q3 -39 6 -58q21 -131 53.5 -344.5t44.5 -287.5q24 -153 50 -311t26 -164q0 -16 -48 -37.5t-110 -21.5h-37q-91 0 -108 80q-1 7 -2 12 q-30 120 -42.5 155t-23.5 35q-16 0 -52 -2t-56 -2q-53 0 -102 -7q-9 -1 -11 -1q-3 0 -9 1t-10 1q-17 0 -27 -85q-10 -92 -24 -159q-6 -30 -12 -71q-8 -54 -39 -54q-5 0 -34 1t-54 1q-13 0 -51.5 20.5t-99.5 59.5q-12 9 -16.5 22.5t-4.5 39.5zM232 1614q0 11 40 66t97 118 q23 25 49 58q23 28 37 28q6 0 14 -1t11 -1q11 0 32 3t31 3q12 0 32 -3t29 -3q5 0 12.5 1t10.5 1q16 0 41 -32q25 -31 47 -56q59 -66 98 -118.5t39 -63.5q0 -15 -12.5 -26t-30.5 -11q-88 0 -126 6.5t-50 22.5q-14 19 -37 52q-38 56 -53 56q-19 0 -69 -73q-12 -17 -19 -27 q-15 -22 -48.5 -29.5t-133.5 -7.5q-17 0 -29 10.5t-12 26.5zM442 569q1 -13 6 -16.5t19 -3.5q8 0 20 -2h2q73 0 88 5t15 34q0 8 -10.5 86t-18.5 144q-7 56 -12 126q-4 62 -16 62t-18 -46q-5 -36 -9 -61q-25 -154 -58 -293q-8 -32 -8 -35z" />
<glyph unicode="&#xc3;" horiz-adv-x="1057" d="M41 29q0 80 68.5 434t173.5 737q12 46 27 115q27 123 106 123q55 0 150 -28q21 -6 32 -9q14 -4 66.5 -13.5t85.5 -23.5q74 -32 84 -158q3 -39 6 -58q21 -131 53.5 -344.5t44.5 -287.5q24 -153 50 -311t26 -164q0 -16 -48 -37.5t-110 -21.5h-37q-91 0 -108 80q-1 7 -2 12 q-30 120 -42.5 155t-23.5 35q-16 0 -52 -2t-56 -2q-53 0 -102 -7q-9 -1 -11 -1q-3 0 -9 1t-10 1q-17 0 -27 -85q-10 -92 -24 -159q-6 -30 -12 -71q-8 -54 -39 -54q-5 0 -34 1t-54 1q-13 0 -51.5 20.5t-99.5 59.5q-12 9 -16.5 22.5t-4.5 39.5zM269 1673q0 46 55.5 106 t110.5 60q30 0 98.5 -28.5t109.5 -28.5q28 0 48 22.5t26 22.5q25 0 76 -24.5t51 -41.5q0 -29 -54.5 -88t-105.5 -59q-31 0 -89.5 29.5t-88.5 29.5q-48 0 -81 -31.5t-36 -31.5q-16 0 -68 25t-52 38zM442 569q1 -13 6 -16.5t19 -3.5q8 0 20 -2h2q73 0 88 5t15 34q0 8 -10.5 86 t-18.5 144q-7 56 -12 126q-4 62 -16 62t-18 -46q-5 -36 -9 -61q-25 -154 -58 -293q-8 -32 -8 -35z" />
<glyph unicode="&#xc4;" horiz-adv-x="1057" d="M41 29q0 80 68.5 434t173.5 737q12 46 27 115q27 123 106 123q55 0 150 -28q21 -6 32 -9q14 -4 66.5 -13.5t85.5 -23.5q74 -32 84 -158q3 -39 6 -58q21 -131 53.5 -344.5t44.5 -287.5q24 -153 50 -311t26 -164q0 -16 -48 -37.5t-110 -21.5h-37q-91 0 -108 80q-1 7 -2 12 q-30 120 -42.5 155t-23.5 35q-16 0 -52 -2t-56 -2q-53 0 -102 -7q-9 -1 -11 -1q-3 0 -9 1t-10 1q-17 0 -27 -85q-10 -92 -24 -159q-6 -30 -12 -71q-8 -54 -39 -54q-5 0 -34 1t-54 1q-13 0 -51.5 20.5t-99.5 59.5q-12 9 -16.5 22.5t-4.5 39.5zM224 1694q0 9 13.5 52.5 t27.5 64.5q18 28 41.5 39.5t62.5 11.5q40 0 87.5 -59t47.5 -87q0 -36 -40.5 -80.5t-80.5 -44.5q-58 0 -108.5 33t-50.5 70zM442 569q1 -13 6 -16.5t19 -3.5q8 0 20 -2h2q73 0 88 5t15 34q0 8 -10.5 86t-18.5 144q-7 56 -12 126q-4 62 -16 62t-18 -46q-5 -36 -9 -61 q-25 -154 -58 -293q-8 -32 -8 -35zM578 1694q0 10 12.5 52.5t26.5 64.5q18 27 42.5 39t63.5 12q40 0 87.5 -59t47.5 -87q0 -36 -40.5 -80.5t-79.5 -44.5q-59 0 -109.5 33t-50.5 70z" />
<glyph unicode="&#xc5;" horiz-adv-x="1057" d="M41 29q0 80 68.5 434t173.5 737q12 46 27 115q27 123 106 123q55 0 150 -28q21 -6 32 -9q14 -4 66.5 -13.5t85.5 -23.5q74 -32 84 -158q3 -39 6 -58q21 -131 53.5 -344.5t44.5 -287.5q24 -153 50 -311t26 -164q0 -16 -48 -37.5t-110 -21.5h-37q-91 0 -108 80q-1 7 -2 12 q-30 120 -42.5 155t-23.5 35q-16 0 -52 -2t-56 -2q-53 0 -102 -7q-9 -1 -11 -1q-3 0 -9 1t-10 1q-17 0 -27 -85q-10 -92 -24 -159q-6 -30 -12 -71q-8 -54 -39 -54q-5 0 -34 1t-54 1q-13 0 -51.5 20.5t-99.5 59.5q-12 9 -16.5 22.5t-4.5 39.5zM336 1698q0 73 79 157t120 84 q13 0 75.5 -15.5t100.5 -33.5q48 -22 74 -62t26 -89q0 -82 -77.5 -160t-151.5 -78q-107 0 -176.5 57t-69.5 140zM442 569q1 -13 6 -16.5t19 -3.5q8 0 20 -2h2q73 0 88 5t15 34q0 8 -10.5 86t-18.5 144q-7 56 -12 126q-4 62 -16 62t-18 -46q-5 -36 -9 -61q-25 -154 -58 -293 q-8 -32 -8 -35zM489 1694q0 -39 18.5 -69t39.5 -30q31 0 71.5 51t40.5 105q0 35 -17.5 58.5t-43.5 23.5q-30 0 -69.5 -47t-39.5 -92z" />
<glyph unicode="&#xc6;" horiz-adv-x="1366" d="M6 31q0 53 64 318.5t163 580.5q1 1 2 4q53 165 142 416q18 50 38 67t56 17q43 0 133 -17.5t111 -17.5q12 0 15 0.5t3 1.5t-1 1.5t-7 0.5q-2 0 -8 -3t-10 -3q14 6 34 6q18 0 52 -5t53 -5q26 0 88.5 5t97.5 5q77 0 162 -17t96 -28q27 -27 48.5 -92.5t21.5 -135.5 q0 -22 -147 -35q-143 -12 -246 -26q-5 -38 -8 -82t-3 -94q0 -14 0.5 -30t1.5 -34q14 0 45 1t50 1q76 0 127.5 -5.5t60.5 -14.5q48 -54 64 -88.5t16 -73.5q0 -11 -2 -28.5t-2 -22.5q0 -4 1 -12t1 -13q0 -19 -157 -43q-128 -19 -214 -34q0 -27 1 -56.5t1 -31.5q0 -12 -1 -31 t-1 -27q0 -11 2.5 -25.5t8.5 -31.5q85 5 155 7.5t94 2.5q35 0 37 -23q0 -10 4 -14q6 -6 22 -18q89 -73 89 -178q0 -23 -8 -31t-47 -8t-115.5 -20.5t-109.5 -24.5l-21 -3q-156 -18 -236 -46l-49 18q-28 3 -52 13.5t-28 19.5q-16 45 -42.5 95t-26.5 67v32l-1 78q-38 1 -86 3.5 t-59 2.5t-29 -1t-24 -1q-7 0 -21 1t-20 1q-14 0 -30 -92t-35 -155q-10 -32 -20 -73q-11 -46 -34 -46q-105 0 -182.5 44.5t-77.5 86.5zM444 561q0 -10 19.5 -14t68.5 -4q8 0 20 1t15 1h25q17 0 21.5 5t4.5 28v22q0 70 9.5 210t9.5 206q0 30 -8.5 45.5t-24.5 15.5 q-19 0 -33.5 -34t-33.5 -128q-22 -102 -57.5 -220.5t-35.5 -133.5z" />
<glyph unicode="&#xc7;" horiz-adv-x="987" d="M53 559q0 115 34 267t93 296q32 80 71.5 147.5t82.5 115.5q7 7 18 19q17 20 22 21q46 8 89.5 12.5t60.5 4.5q197 0 289 -123t92 -387q0 -59 -7 -114q-1 -10 -1 -11q0 -31 -125 -38q-11 -1 -16 -1q-71 0 -105.5 39t-42.5 125q0 97 -11 140.5t-36 43.5q-17 0 -41 -52.5 t-59 -172.5q-5 -18 -13 -51q-59 -224 -59 -351t25.5 -186t81.5 -59q72 0 133 76t110 227h13q12 0 26.5 7t16.5 7q34 0 117 -66q13 -10 19 -15q10 -8 25 -16q19 -10 19 -24v-8q0 -4 4 -17t4 -22q0 -42 -29.5 -121.5t-76.5 -152.5q-56 -85 -132 -130.5t-161 -45.5 q-238 0 -384.5 171.5t-146.5 444.5zM234 -389q0 35 15 60.5t34 25.5q5 0 27 -13q99 -57 196 -57q36 0 60 14.5t24 32.5q0 37 -19.5 53.5t-64.5 16.5q-9 0 -28 -1t-29 -1q-21 0 -32 12.5t-11 36.5q0 25 9 78t26 119h100q-2 -23 -6 -55t-4 -42q0 -9 7 -16.5t15 -7.5h45 q74 0 122 -47.5t48 -120.5q0 -86 -59.5 -130t-177.5 -44q-103 0 -200 30t-97 56z" />
<glyph unicode="&#xc8;" horiz-adv-x="915" d="M141 252v24q0 522 14 823.5t38 301.5q4 0 16.5 -2t19.5 -2q1 0 11 3t20 3q14 0 52 -5t61 -5t83 5t97 5q78 0 163 -16.5t97 -28.5q27 -27 48.5 -92.5t21.5 -135.5q0 -22 -148 -35q-144 -12 -248 -26q-4 -33 -6 -70.5t-2 -105.5q0 -14 0.5 -30t1.5 -34h94q80 0 130 -5 t59 -13q48 -54 64 -88.5t16 -73.5q0 -11 -2 -28.5t-2 -22.5q0 -4 1 -12t1 -13q0 -19 -157 -43q-128 -19 -214 -34v-88q0 -12 -1 -31t-1 -27q0 -9 3 -23t10 -34q85 5 155 7.5t94 2.5q35 0 36 -22q1 -11 5 -15q6 -6 21 -18q90 -73 90 -178q0 -23 -8.5 -31t-47.5 -8 q-25 -5 -102.5 -22t-124.5 -23q-57 -17 -119.5 -29t-136.5 -20q-118 55 -160.5 117.5t-42.5 197.5zM166 1751q0 28 51 76.5t82 48.5q12 0 83 -47.5t130 -79.5q9 -5 35 -14q75 -26 75 -60q0 -18 -38.5 -56t-57.5 -38q-9 0 -81 31.5t-128 52.5q-22 8 -63 19q-88 24 -88 67z " />
<glyph unicode="&#xc9;" horiz-adv-x="915" d="M141 252v24q0 522 14 823.5t38 301.5q4 0 16.5 -2t19.5 -2q1 0 11 3t20 3q14 0 52 -5t61 -5t83 5t97 5q78 0 163 -16.5t97 -28.5q27 -27 48.5 -92.5t21.5 -135.5q0 -22 -148 -35q-144 -12 -248 -26q-4 -33 -6 -70.5t-2 -105.5q0 -14 0.5 -30t1.5 -34h94q80 0 130 -5 t59 -13q48 -54 64 -88.5t16 -73.5q0 -11 -2 -28.5t-2 -22.5q0 -4 1 -12t1 -13q0 -19 -157 -43q-128 -19 -214 -34v-88q0 -12 -1 -31t-1 -27q0 -9 3 -23t10 -34q85 5 155 7.5t94 2.5q35 0 36 -22q1 -11 5 -15q6 -6 21 -18q90 -73 90 -178q0 -23 -8.5 -31t-47.5 -8 q-25 -5 -102.5 -22t-124.5 -23q-57 -17 -119.5 -29t-136.5 -20q-118 55 -160.5 117.5t-42.5 197.5zM362 1675q0 35 79 62q23 8 32 12q55 30 128.5 78.5t86.5 48.5q30 0 81.5 -49t51.5 -80q0 -39 -92 -63q-40 -11 -62 -19q-54 -20 -126 -52t-83 -32q-18 0 -57 37.5t-39 56.5z " />
<glyph unicode="&#xca;" horiz-adv-x="915" d="M141 252v24q0 522 14 823.5t38 301.5q4 0 16.5 -2t19.5 -2q1 0 11 3t20 3q14 0 52 -5t61 -5t83 5t97 5q78 0 163 -16.5t97 -28.5q27 -27 48.5 -92.5t21.5 -135.5q0 -22 -148 -35q-144 -12 -248 -26q-4 -33 -6 -70.5t-2 -105.5q0 -14 0.5 -30t1.5 -34h94q80 0 130 -5 t59 -13q48 -54 64 -88.5t16 -73.5q0 -11 -2 -28.5t-2 -22.5q0 -4 1 -12t1 -13q0 -19 -157 -43q-128 -19 -214 -34v-88q0 -12 -1 -31t-1 -27q0 -9 3 -23t10 -34q85 5 155 7.5t94 2.5q35 0 36 -22q1 -11 5 -15q6 -6 21 -18q90 -73 90 -178q0 -23 -8.5 -31t-47.5 -8 q-25 -5 -102.5 -22t-124.5 -23q-57 -17 -119.5 -29t-136.5 -20q-118 55 -160.5 117.5t-42.5 197.5zM174 1614q0 11 40 66t97 118q23 25 49 58q23 28 37 28q6 0 14 -1t11 -1q11 0 32 3t31 3q12 0 32 -3t29 -3q5 0 12.5 1t10.5 1q16 0 41 -32q25 -31 47 -56q59 -66 98 -118.5 t39 -63.5q0 -15 -12.5 -26t-30.5 -11q-88 0 -126 6.5t-50 22.5q-14 19 -37 52q-38 56 -53 56q-19 0 -69 -73q-12 -17 -19 -27q-15 -22 -48.5 -29.5t-133.5 -7.5q-17 0 -29 10.5t-12 26.5z" />
<glyph unicode="&#xcb;" horiz-adv-x="915" d="M141 252v24q0 522 14 823.5t38 301.5q4 0 16.5 -2t19.5 -2q1 0 11 3t20 3q14 0 52 -5t61 -5t83 5t97 5q78 0 163 -16.5t97 -28.5q27 -27 48.5 -92.5t21.5 -135.5q0 -22 -148 -35q-144 -12 -248 -26q-4 -33 -6 -70.5t-2 -105.5q0 -14 0.5 -30t1.5 -34h94q80 0 130 -5 t59 -13q48 -54 64 -88.5t16 -73.5q0 -11 -2 -28.5t-2 -22.5q0 -4 1 -12t1 -13q0 -19 -157 -43q-128 -19 -214 -34v-88q0 -12 -1 -31t-1 -27q0 -9 3 -23t10 -34q85 5 155 7.5t94 2.5q35 0 36 -22q1 -11 5 -15q6 -6 21 -18q90 -73 90 -178q0 -23 -8.5 -31t-47.5 -8 q-25 -5 -102.5 -22t-124.5 -23q-57 -17 -119.5 -29t-136.5 -20q-118 55 -160.5 117.5t-42.5 197.5zM166 1694q0 9 13.5 52.5t27.5 64.5q18 28 41.5 39.5t62.5 11.5q40 0 87.5 -59t47.5 -87q0 -36 -40.5 -80.5t-80.5 -44.5q-58 0 -108.5 33t-50.5 70zM520 1694 q0 10 12.5 52.5t26.5 64.5q18 27 42.5 39t63.5 12q40 0 87.5 -59t47.5 -87q0 -36 -40.5 -80.5t-79.5 -44.5q-59 0 -109.5 33t-50.5 70z" />
<glyph unicode="&#xcc;" horiz-adv-x="592" d="M-4 1751q0 28 51 76.5t82 48.5q12 0 83 -47.5t130 -79.5q9 -5 35 -14q75 -26 75 -60q0 -18 -38.5 -56t-57.5 -38q-9 0 -81 31.5t-128 52.5q-22 8 -63 19q-88 24 -88 67zM150 248q0 17 1 96t1 139q0 45 -1 135.5t-1 137.5q0 46 4 143.5t4 147.5q0 22 -2 74.5t-2 82.5 q0 13 4 56.5t4 72.5q0 15 -6 35.5t-6 26.5q0 21 36 35t95 14q64 0 142.5 -38.5t78.5 -57.5q0 -2 -2 -12q-11 -53 -11 -111q0 -48 -6 -145t-6 -146q0 -93 10.5 -307.5t10.5 -335.5q0 -44 -4.5 -107.5t-4.5 -83.5q0 -12 1.5 -35t1.5 -34q0 -60 -19.5 -76t-103.5 -16 q-95 0 -156 33.5t-61 86.5q0 5 -1 26q-1 84 -1 163z" />
<glyph unicode="&#xcd;" horiz-adv-x="592" d="M150 248q0 17 1 96t1 139q0 45 -1 135.5t-1 137.5q0 46 4 143.5t4 147.5q0 22 -2 74.5t-2 82.5q0 13 4 56.5t4 72.5q0 15 -6 35.5t-6 26.5q0 21 36 35t95 14q64 0 142.5 -38.5t78.5 -57.5q0 -2 -2 -12q-11 -53 -11 -111q0 -48 -6 -145t-6 -146q0 -93 10.5 -307.5 t10.5 -335.5q0 -44 -4.5 -107.5t-4.5 -83.5q0 -12 1.5 -35t1.5 -34q0 -60 -19.5 -76t-103.5 -16q-95 0 -156 33.5t-61 86.5q0 5 -1 26q-1 84 -1 163zM192 1675q0 35 79 62q23 8 32 12q55 30 128.5 78.5t86.5 48.5q30 0 81.5 -49t51.5 -80q0 -39 -92 -63q-40 -11 -62 -19 q-54 -20 -126 -52t-83 -32q-18 0 -57 37.5t-39 56.5z" />
<glyph unicode="&#xce;" horiz-adv-x="592" d="M4 1614q0 11 40 66t97 118q23 25 49 58q23 28 37 28q6 0 14 -1t11 -1q11 0 32 3t31 3q12 0 32 -3t29 -3q5 0 12.5 1t10.5 1q16 0 41 -32q25 -31 47 -56q59 -66 98 -118.5t39 -63.5q0 -15 -12.5 -26t-30.5 -11q-88 0 -126 6.5t-50 22.5q-14 19 -37 52q-38 56 -53 56 q-19 0 -69 -73q-12 -17 -19 -27q-15 -22 -48.5 -29.5t-133.5 -7.5q-17 0 -29 10.5t-12 26.5zM150 248q0 17 1 96t1 139q0 45 -1 135.5t-1 137.5q0 46 4 143.5t4 147.5q0 22 -2 74.5t-2 82.5q0 13 4 56.5t4 72.5q0 15 -6 35.5t-6 26.5q0 21 36 35t95 14q64 0 142.5 -38.5 t78.5 -57.5q0 -2 -2 -12q-11 -53 -11 -111q0 -48 -6 -145t-6 -146q0 -93 10.5 -307.5t10.5 -335.5q0 -44 -4.5 -107.5t-4.5 -83.5q0 -12 1.5 -35t1.5 -34q0 -60 -19.5 -76t-103.5 -16q-95 0 -156 33.5t-61 86.5q0 5 -1 26q-1 84 -1 163z" />
<glyph unicode="&#xcf;" horiz-adv-x="592" d="M-4 1694q0 9 13.5 52.5t27.5 64.5q18 28 41.5 39.5t62.5 11.5q40 0 87.5 -59t47.5 -87q0 -36 -40.5 -80.5t-80.5 -44.5q-58 0 -108.5 33t-50.5 70zM150 248q0 17 1 96t1 139q0 45 -1 135.5t-1 137.5q0 46 4 143.5t4 147.5q0 22 -2 74.5t-2 82.5q0 13 4 56.5t4 72.5 q0 15 -6 35.5t-6 26.5q0 21 36 35t95 14q64 0 142.5 -38.5t78.5 -57.5q0 -2 -2 -12q-11 -53 -11 -111q0 -48 -6 -145t-6 -146q0 -93 10.5 -307.5t10.5 -335.5q0 -44 -4.5 -107.5t-4.5 -83.5q0 -12 1.5 -35t1.5 -34q0 -60 -19.5 -76t-103.5 -16q-95 0 -156 33.5t-61 86.5 q0 5 -1 26q-1 84 -1 163zM350 1694q0 10 12.5 52.5t26.5 64.5q18 27 42.5 39t63.5 12q40 0 87.5 -59t47.5 -87q0 -36 -40.5 -80.5t-79.5 -44.5q-59 0 -109.5 33t-50.5 70z" />
<glyph unicode="&#xd0;" horiz-adv-x="1049" d="M-2 754q0 42 71.5 52t71.5 34v98q0 36 -1 123.5t-1 140.5q0 148 23 189t86 41h57h53q84 0 178 -28t169 -75q139 -87 209.5 -243.5t70.5 -380.5q0 -144 -71.5 -298t-204.5 -298q-65 -70 -132 -118t-92 -48q-22 0 -93 22.5t-113 32.5q-83 19 -112.5 33t-29.5 32q0 4 2 21.5 t2 30.5q0 32 -4 98t-4 98q0 18 4 71t4 89v139q0 14 -10.5 21.5t-30.5 7.5q-27 0 -45 9t-18 20v8q0 4 -19.5 28t-19.5 50zM463 348q0 -17 5 -26t15 -9q11 0 42 44.5t57 103.5q41 93 59 166.5t18 142.5q0 157 -42 231t-132 74q-4 0 -7 -1.5t-3 -2.5q0 -4 1 -11t1 -9v-66 q0 -13 -2 -35t-2 -30v-76q0 -19 33 -24t45 -21q10 -15 23.5 -62t13.5 -65q0 -26 -21.5 -39t-67.5 -17h-4q-32 -3 -32 -55q0 -10 5 -57t5 -84q0 -16 -5 -39.5t-5 -32.5z" />
<glyph unicode="&#xd1;" horiz-adv-x="1114" d="M141 281q0 20 1 79t1 97q0 23 -1 70t-1 71q0 50 4.5 147t4.5 144q0 102 5 214.5t5 121.5v63q0 50 27 71t98 21q20 0 75 -22q32 -14 52 -21q10 -4 32.5 -7t28.5 -11q8 -10 24 -19t21 -28q61 -244 113 -403.5t67 -159.5q8 0 11.5 5t3.5 21q0 62 -9.5 241.5t-9.5 295.5 q0 26 1 66t1 55v32q0 13 42.5 30.5t74.5 17.5q6 0 20 -2.5t23 -2.5h25q22 0 74 -20q17 -6 28 -10l1 -1q30 -12 30 -42q0 -6 -1 -31q-1 -97 -1 -184q0 -57 -2 -157t-2 -142v-76q0 -25 2 -157t2 -238q0 -92 -3 -189t-3 -102q0 -20 1 -44.5t1 -27.5q0 -38 -17.5 -47.5 t-64.5 -9.5q-7 0 -57 8t-128 22q-122 212 -213.5 411.5l-91.5 199.5q-6 0 -10 -4.5t-4 -12.5l10 -125t10 -245q0 -88 5 -179q1 -19 2 -24q0 -53 -39 -85t-109 -32q-5 0 -52.5 13t-70.5 22q-17 7 -24 33t-7 117q0 53 -3 110t-3 62zM297 1673q0 46 55.5 106t110.5 60 q30 0 98.5 -28.5t109.5 -28.5q28 0 48 22.5t26 22.5q25 0 76 -24.5t51 -41.5q0 -29 -54.5 -88t-105.5 -59q-31 0 -89.5 29.5t-88.5 29.5q-48 0 -81 -31.5t-36 -31.5q-16 0 -68 25t-52 38z" />
<glyph unicode="&#xd2;" horiz-adv-x="1067" d="M70 586q0 189 38.5 348.5t141.5 355.5q43 85 87 118.5t105 33.5q5 0 23 -1t31 -1q41 0 190 -49l9 -3q157 -50 248 -238t91 -470q0 -171 -58 -347t-145 -280q-52 -61 -112 -85q-8 -3 -8 -5q0 -10 -23 -18t-61 -8h-19q-41 0 -93 20q-16 6 -23 8h-11h-16q-37 0 -70.5 11 t-64.5 32q-129 88 -194.5 233.5t-65.5 344.5zM232 1751q0 28 51 76.5t82 48.5q12 0 83 -47.5t130 -79.5q9 -5 35 -14q75 -26 75 -60q0 -18 -38.5 -56t-57.5 -38q-9 0 -81 31.5t-128 52.5q-22 8 -63 19q-88 24 -88 67zM406 551q0 -155 28 -239.5t78 -84.5q57 0 116.5 168 t59.5 338v23q0 152 -40 269.5t-85 117.5q-34 0 -95.5 -193t-61.5 -399z" />
<glyph unicode="&#xd3;" horiz-adv-x="1067" d="M70 586q0 189 38.5 348.5t141.5 355.5q43 85 87 118.5t105 33.5q5 0 23 -1t31 -1q41 0 190 -49l9 -3q157 -50 248 -238t91 -470q0 -171 -58 -347t-145 -280q-52 -61 -112 -85q-8 -3 -8 -5q0 -10 -23 -18t-61 -8h-19q-41 0 -93 20q-16 6 -23 8h-11h-16q-37 0 -70.5 11 t-64.5 32q-129 88 -194.5 233.5t-65.5 344.5zM406 551q0 -155 28 -239.5t78 -84.5q57 0 116.5 168t59.5 338v23q0 152 -40 269.5t-85 117.5q-34 0 -95.5 -193t-61.5 -399zM428 1675q0 35 79 62q23 8 32 12q55 30 128.5 78.5t86.5 48.5q30 0 81.5 -49t51.5 -80q0 -39 -92 -63 q-40 -11 -62 -19q-54 -20 -126 -52t-83 -32q-18 0 -57 37.5t-39 56.5z" />
<glyph unicode="&#xd4;" horiz-adv-x="1067" d="M70 586q0 189 38.5 348.5t141.5 355.5q43 85 87 118.5t105 33.5q5 0 23 -1t31 -1q41 0 190 -49l9 -3q157 -50 248 -238t91 -470q0 -171 -58 -347t-145 -280q-52 -61 -112 -85q-8 -3 -8 -5q0 -10 -23 -18t-61 -8h-19q-41 0 -93 20q-16 6 -23 8h-11h-16q-37 0 -70.5 11 t-64.5 32q-129 88 -194.5 233.5t-65.5 344.5zM240 1614q0 11 40 66t97 118q23 25 49 58q23 28 37 28q6 0 14 -1t11 -1q11 0 32 3t31 3q12 0 32 -3t29 -3q5 0 12.5 1t10.5 1q16 0 41 -32q25 -31 47 -56q59 -66 98 -118.5t39 -63.5q0 -15 -12.5 -26t-30.5 -11q-88 0 -126 6.5 t-50 22.5q-14 19 -37 52q-38 56 -53 56q-19 0 -69 -73q-12 -17 -19 -27q-15 -22 -48.5 -29.5t-133.5 -7.5q-17 0 -29 10.5t-12 26.5zM406 551q0 -155 28 -239.5t78 -84.5q57 0 116.5 168t59.5 338v23q0 152 -40 269.5t-85 117.5q-34 0 -95.5 -193t-61.5 -399z" />
<glyph unicode="&#xd5;" horiz-adv-x="1067" d="M70 586q0 189 38.5 348.5t141.5 355.5q43 85 87 118.5t105 33.5q5 0 23 -1t31 -1q41 0 190 -49l9 -3q157 -50 248 -238t91 -470q0 -171 -58 -347t-145 -280q-52 -61 -112 -85q-8 -3 -8 -5q0 -10 -23 -18t-61 -8h-19q-41 0 -93 20q-16 6 -23 8h-11h-16q-37 0 -70.5 11 t-64.5 32q-129 88 -194.5 233.5t-65.5 344.5zM277 1673q0 46 55.5 106t110.5 60q30 0 98.5 -28.5t109.5 -28.5q28 0 48 22.5t26 22.5q25 0 76 -24.5t51 -41.5q0 -29 -54.5 -88t-105.5 -59q-31 0 -89.5 29.5t-88.5 29.5q-48 0 -81 -31.5t-36 -31.5q-16 0 -68 25t-52 38z M406 551q0 -155 28 -239.5t78 -84.5q57 0 116.5 168t59.5 338v23q0 152 -40 269.5t-85 117.5q-34 0 -95.5 -193t-61.5 -399z" />
<glyph unicode="&#xd6;" horiz-adv-x="1067" d="M70 586q0 189 38.5 348.5t141.5 355.5q43 85 87 118.5t105 33.5q5 0 23 -1t31 -1q41 0 190 -49l9 -3q157 -50 248 -238t91 -470q0 -171 -58 -347t-145 -280q-52 -61 -112 -85q-8 -3 -8 -5q0 -10 -23 -18t-61 -8h-19q-41 0 -93 20q-16 6 -23 8h-11h-16q-37 0 -70.5 11 t-64.5 32q-129 88 -194.5 233.5t-65.5 344.5zM232 1694q0 9 13.5 52.5t27.5 64.5q18 28 41.5 39.5t62.5 11.5q40 0 87.5 -59t47.5 -87q0 -36 -40.5 -80.5t-80.5 -44.5q-58 0 -108.5 33t-50.5 70zM406 551q0 -155 28 -239.5t78 -84.5q57 0 116.5 168t59.5 338v23 q0 152 -40 269.5t-85 117.5q-34 0 -95.5 -193t-61.5 -399zM586 1694q0 10 12.5 52.5t26.5 64.5q18 27 42.5 39t63.5 12q40 0 87.5 -59t47.5 -87q0 -36 -40.5 -80.5t-79.5 -44.5q-59 0 -109.5 33t-50.5 70z" />
<glyph unicode="&#xd7;" horiz-adv-x="1706" d="M268 170l441 440l-441 443l162 161l440 -440l441 440l162 -161l-441 -443l441 -440l-162 -162l-441 441l-440 -441z" />
<glyph unicode="&#xd8;" horiz-adv-x="1067" d="M-119 -90q0 43 130 199q74 88 118 145q-31 82 -45 161.5t-14 170.5q0 191 39 351.5t141 352.5q43 85 87 118.5t105 33.5q5 0 23 -1t31 -1q81 0 201 -54.5t180 -132.5q13 20 39 55q128 179 182 179q30 0 75.5 -30.5t45.5 -45.5q0 -13 -91.5 -101t-169.5 -196 q38 -79 57 -186t19 -244q0 -175 -56.5 -349t-146.5 -282q-50 -61 -111 -85q-9 -3 -9 -5q0 -11 -23.5 -18.5t-62.5 -7.5h-17q-44 0 -105 24q-3 1 -5 2q-3 1 -7.5 1.5t-13.5 0.5h-20q-10 0 -15 0.5t-9 1.5q-57 7 -114 46t-106 104q-54 -71 -110 -173q-62 -116 -148 -116 q-30 0 -52 25.5t-22 56.5zM371 565q30 40 88 117q159 211 227 311q-12 76 -47.5 126t-71.5 50q-56 0 -114.5 -173t-81.5 -431zM387 334q31 -77 56.5 -105t60.5 -28t64 31t63 106q41 94 66.5 204t25.5 185q0 24 -0.5 37t-1.5 26q-67 -74 -152.5 -191.5t-181.5 -264.5z" />
<glyph unicode="&#xd9;" horiz-adv-x="1104" d="M121 639v20q0 179 14.5 387.5t14.5 239.5v43.5t16 30.5q14 19 41.5 31t54.5 12q52 0 139.5 -47t87.5 -82q0 -4 -3 -16q-13 -45 -13 -91q0 -105 -8 -329t-8 -340q0 -144 16 -181.5t59 -37.5q72 0 99.5 120.5t27.5 548.5v234q0 99 -8 183q-2 14 -2 15q0 31 33 50.5t86 19.5 q77 0 164.5 -56.5t87.5 -86.5q0 -2 -2 -18q-14 -137 -14 -310q0 -24 2 -90.5t2 -108.5q0 -58 -1 -124t-1 -74q0 -206 -24 -294.5t-81 -168.5q-55 -77 -129.5 -123.5t-136.5 -46.5q-53 0 -121.5 32t-179.5 111q-16 11 -45 31q-73 50 -90 74q-28 37 -50 116t-22 146v33 q0 2 -1 12q-3 47 -3 98q0 4 -1 16t-1 21zM248 1751q0 28 51 76.5t82 48.5q12 0 83 -47.5t130 -79.5q9 -5 35 -14q75 -26 75 -60q0 -18 -38.5 -56t-57.5 -38q-9 0 -81 31.5t-128 52.5q-22 8 -63 19q-88 24 -88 67z" />
<glyph unicode="&#xda;" horiz-adv-x="1104" d="M121 639v20q0 179 14.5 387.5t14.5 239.5v43.5t16 30.5q14 19 41.5 31t54.5 12q52 0 139.5 -47t87.5 -82q0 -4 -3 -16q-13 -45 -13 -91q0 -105 -8 -329t-8 -340q0 -144 16 -181.5t59 -37.5q72 0 99.5 120.5t27.5 548.5v234q0 99 -8 183q-2 14 -2 15q0 31 33 50.5t86 19.5 q77 0 164.5 -56.5t87.5 -86.5q0 -2 -2 -18q-14 -137 -14 -310q0 -24 2 -90.5t2 -108.5q0 -58 -1 -124t-1 -74q0 -206 -24 -294.5t-81 -168.5q-55 -77 -129.5 -123.5t-136.5 -46.5q-53 0 -121.5 32t-179.5 111q-16 11 -45 31q-73 50 -90 74q-28 37 -50 116t-22 146v33 q0 2 -1 12q-3 47 -3 98q0 4 -1 16t-1 21zM444 1675q0 35 79 62q23 8 32 12q55 30 128.5 78.5t86.5 48.5q30 0 81.5 -49t51.5 -80q0 -39 -92 -63q-40 -11 -62 -19q-54 -20 -126 -52t-83 -32q-18 0 -57 37.5t-39 56.5z" />
<glyph unicode="&#xdb;" horiz-adv-x="1104" d="M121 639v20q0 179 14.5 387.5t14.5 239.5v43.5t16 30.5q14 19 41.5 31t54.5 12q52 0 139.5 -47t87.5 -82q0 -4 -3 -16q-13 -45 -13 -91q0 -105 -8 -329t-8 -340q0 -144 16 -181.5t59 -37.5q72 0 99.5 120.5t27.5 548.5v234q0 99 -8 183q-2 14 -2 15q0 31 33 50.5t86 19.5 q77 0 164.5 -56.5t87.5 -86.5q0 -2 -2 -18q-14 -137 -14 -310q0 -24 2 -90.5t2 -108.5q0 -58 -1 -124t-1 -74q0 -206 -24 -294.5t-81 -168.5q-55 -77 -129.5 -123.5t-136.5 -46.5q-53 0 -121.5 32t-179.5 111q-16 11 -45 31q-73 50 -90 74q-28 37 -50 116t-22 146v33 q0 2 -1 12q-3 47 -3 98q0 4 -1 16t-1 21zM256 1614q0 11 40 66t97 118q23 25 49 58q23 28 37 28q6 0 14 -1t11 -1q11 0 32 3t31 3q12 0 32 -3t29 -3q5 0 12.5 1t10.5 1q16 0 41 -32q25 -31 47 -56q59 -66 98 -118.5t39 -63.5q0 -15 -12.5 -26t-30.5 -11q-88 0 -126 6.5 t-50 22.5q-14 19 -37 52q-38 56 -53 56q-19 0 -69 -73q-12 -17 -19 -27q-15 -22 -48.5 -29.5t-133.5 -7.5q-17 0 -29 10.5t-12 26.5z" />
<glyph unicode="&#xdc;" horiz-adv-x="1104" d="M121 639v20q0 179 14.5 387.5t14.5 239.5v43.5t16 30.5q14 19 41.5 31t54.5 12q52 0 139.5 -47t87.5 -82q0 -4 -3 -16q-13 -45 -13 -91q0 -105 -8 -329t-8 -340q0 -144 16 -181.5t59 -37.5q72 0 99.5 120.5t27.5 548.5v234q0 99 -8 183q-2 14 -2 15q0 31 33 50.5t86 19.5 q77 0 164.5 -56.5t87.5 -86.5q0 -2 -2 -18q-14 -137 -14 -310q0 -24 2 -90.5t2 -108.5q0 -58 -1 -124t-1 -74q0 -206 -24 -294.5t-81 -168.5q-55 -77 -129.5 -123.5t-136.5 -46.5q-53 0 -121.5 32t-179.5 111q-16 11 -45 31q-73 50 -90 74q-28 37 -50 116t-22 146v33 q0 2 -1 12q-3 47 -3 98q0 4 -1 16t-1 21zM248 1694q0 9 13.5 52.5t27.5 64.5q18 28 41.5 39.5t62.5 11.5q40 0 87.5 -59t47.5 -87q0 -36 -40.5 -80.5t-80.5 -44.5q-58 0 -108.5 33t-50.5 70zM602 1694q0 10 12.5 52.5t26.5 64.5q18 27 42.5 39t63.5 12q40 0 87.5 -59 t47.5 -87q0 -36 -40.5 -80.5t-79.5 -44.5q-59 0 -109.5 33t-50.5 70z" />
<glyph unicode="&#xdd;" horiz-adv-x="909" d="M49 1278q0 27 58 63.5t100 36.5q98 0 194 -248l15 -39q16 -42 37 -101q25 -72 39 -72q10 0 51 136t82 249q11 30 27 83q47 146 104 146q59 0 138 -42t79 -79q0 -40 -75.5 -284.5t-184.5 -530.5q-4 -10 -14 -32q-49 -106 -56 -257q0 -152 -7 -287q-1 -19 -1 -22 q0 -25 -20.5 -33t-73.5 -8q-29 0 -65 12t-40 13q-8 1 -38.5 4t-51.5 12q-17 8 -23 15t-6 20q0 2 2.5 19.5t2.5 33.5q0 10 -4.5 100t-4.5 170q0 16 2 46t2 44q0 12 -55 122t-96 235q-57 171 -87 293.5t-30 181.5zM350 1675q0 35 79 62q23 8 32 12q55 30 128.5 78.5t86.5 48.5 q30 0 81.5 -49t51.5 -80q0 -39 -92 -63q-40 -11 -62 -19q-54 -20 -126 -52t-83 -32q-18 0 -57 37.5t-39 56.5z" />
<glyph unicode="&#xde;" horiz-adv-x="952" d="M143 377v309q0 240 6 465q1 33 1 39q0 21 -3.5 56t-3.5 50q0 47 34.5 90.5t88.5 43.5q104 0 173 -18.5t69 -43.5q0 -4 -5 -23q-18 -62 -18 -118q82 0 191 -45q120 -51 199 -168t79 -246q0 -195 -129 -353.5t-352 -238.5q0 -7 -1 -27t-1 -32q0 -53 -2 -99v-8q0 -6 3 -16 t3 -14q0 -23 -17.5 -35.5t-49.5 -12.5q-24 0 -94 21t-114 31q-27 6 -33 22q-3 8 -7 14q-9 14 -13 87t-4 270zM475 496q58 7 102 87t44 179q0 93 -39 150t-97 57q-3 -1 -4.5 -7.5t-1.5 -19.5q0 -16 1 -37t1 -26v-30q-2 -107 -2 -206q0 -10 -1.5 -60.5t-2.5 -86.5z" />
<glyph unicode="&#xdf;" horiz-adv-x="973" d="M25 737v27q0 32 12.5 43.5t39.5 11.5q24 5 53 6q24 0 24 17q0 5 -1 20.5t-1 24.5q0 344 66.5 491.5t221.5 147.5q17 0 88 -31.5t158 -79.5q81 -45 113 -99.5t32 -156.5q0 -147 -82 -258q-16 -21 -16 -27q0 -14 44 -49.5t69 -72.5q34 -51 46.5 -88.5t12.5 -96.5 q0 -168 -12 -248.5t-41 -146.5q-46 -100 -108.5 -163.5t-114.5 -63.5q-56 0 -105 22.5t-49 40.5q0 1 1 8t1 11q0 6 -6 26.5t-6 32.5q0 23 15.5 60.5t27.5 37.5q4 0 14.5 -2t16.5 -2q46 0 69 90.5t23 272.5q0 61 -19 104t-59 76q-11 9 -32 22q-44 29 -44 58q0 8 41 87.5 t41 184.5q0 60 -20.5 93.5t-55.5 33.5q-23 0 -38 -26t-15 -70v-121q0 -21 -1 -58t-1 -53v-38q0 -60 3 -131t3 -82q0 -15 -3 -46t-3 -49q0 -16 2 -42.5t2 -36.5q0 -12 -2 -39t-2 -41q0 -16 2 -43.5t2 -38.5q0 -18 -2 -52t-2 -49t1 -39t1 -32q0 -7 -2 -46.5t-2 -72.5 q-24 -21 -46.5 -30t-49.5 -9q-60 0 -119 25t-59 57v18q0 14 -2.5 34.5t-2.5 27.5v8q0 120 -5 250q-1 30 -1 37q0 24 1 73.5t1 73.5q0 2 -1.5 15t-2.5 24q-14 -1 -31.5 -3.5t-21.5 -2.5q-24 0 -42.5 47t-18.5 96z" />
<glyph unicode="&#xe0;" horiz-adv-x="799" d="M68 256q0 114 93.5 186.5t276.5 100.5v20v43q0 66 -5.5 97.5t-16.5 31.5q-37 0 -89.5 -93t-82.5 -93q-86 0 -120 14t-34 47q0 26 27.5 95.5t68.5 140.5q39 66 72 101.5t55 35.5q19 0 106 -21t163 -49q75 -28 103 -89.5t28 -207.5q0 -138 -6.5 -298.5t-6.5 -182.5 q0 -11 1 -33.5t1 -33.5v-37q0 -58 -13 -72t-54 -14q-9 0 -23 2t-18 2q-16 0 -39 -3t-31 -3q-25 0 -56 42q-10 14 -16 21q-28 -3 -71 -13.5t-59 -10.5q-94 0 -174 93t-80 181zM121 1237q0 28 51 76.5t82 48.5q12 0 83 -47.5t130 -79.5q9 -5 35 -14q75 -26 75 -60 q0 -18 -38.5 -56t-57.5 -38q-9 0 -81 31.5t-128 52.5q-22 8 -63 19q-88 24 -88 67zM274 219q0 -27 22.5 -37t106.5 -10q7 0 14 2t17 6q1 15 2.5 38t1.5 30q0 23 -0.5 40.5t-1.5 34.5q-78 -4 -120 -31t-42 -73z" />
<glyph unicode="&#xe1;" horiz-adv-x="799" d="M68 256q0 114 93.5 186.5t276.5 100.5v20v43q0 66 -5.5 97.5t-16.5 31.5q-37 0 -89.5 -93t-82.5 -93q-86 0 -120 14t-34 47q0 26 27.5 95.5t68.5 140.5q39 66 72 101.5t55 35.5q19 0 106 -21t163 -49q75 -28 103 -89.5t28 -207.5q0 -138 -6.5 -298.5t-6.5 -182.5 q0 -11 1 -33.5t1 -33.5v-37q0 -58 -13 -72t-54 -14q-9 0 -23 2t-18 2q-16 0 -39 -3t-31 -3q-25 0 -56 42q-10 14 -16 21q-28 -3 -71 -13.5t-59 -10.5q-94 0 -174 93t-80 181zM274 219q0 -27 22.5 -37t106.5 -10q7 0 14 2t17 6q1 15 2.5 38t1.5 30q0 23 -0.5 40.5t-1.5 34.5 q-78 -4 -120 -31t-42 -73zM317 1161q0 35 79 62q23 8 32 12q55 30 128.5 78.5t86.5 48.5q30 0 81.5 -49t51.5 -80q0 -39 -92 -63q-40 -11 -62 -19q-54 -20 -126 -52t-83 -32q-18 0 -57 37.5t-39 56.5z" />
<glyph unicode="&#xe2;" horiz-adv-x="799" d="M68 256q0 114 93.5 186.5t276.5 100.5v20v43q0 66 -5.5 97.5t-16.5 31.5q-37 0 -89.5 -93t-82.5 -93q-86 0 -120 14t-34 47q0 26 27.5 95.5t68.5 140.5q39 66 72 101.5t55 35.5q19 0 106 -21t163 -49q75 -28 103 -89.5t28 -207.5q0 -138 -6.5 -298.5t-6.5 -182.5 q0 -11 1 -33.5t1 -33.5v-37q0 -58 -13 -72t-54 -14q-9 0 -23 2t-18 2q-16 0 -39 -3t-31 -3q-25 0 -56 42q-10 14 -16 21q-28 -3 -71 -13.5t-59 -10.5q-94 0 -174 93t-80 181zM129 1100q0 11 40 66t97 118q23 25 49 58q23 28 37 28q6 0 14 -1t11 -1q11 0 32 3t31 3 q12 0 32 -3t29 -3q5 0 12.5 1t10.5 1q16 0 41 -32q25 -31 47 -56q59 -66 98 -118.5t39 -63.5q0 -15 -12.5 -26t-30.5 -11q-88 0 -126 6.5t-50 22.5q-14 19 -37 52q-38 56 -53 56q-19 0 -69 -73q-12 -17 -19 -27q-15 -22 -48.5 -29.5t-133.5 -7.5q-17 0 -29 10.5t-12 26.5z M274 219q0 -27 22.5 -37t106.5 -10q7 0 14 2t17 6q1 15 2.5 38t1.5 30q0 23 -0.5 40.5t-1.5 34.5q-78 -4 -120 -31t-42 -73z" />
<glyph unicode="&#xe3;" horiz-adv-x="799" d="M68 256q0 114 93.5 186.5t276.5 100.5v20v43q0 66 -5.5 97.5t-16.5 31.5q-37 0 -89.5 -93t-82.5 -93q-86 0 -120 14t-34 47q0 26 27.5 95.5t68.5 140.5q39 66 72 101.5t55 35.5q19 0 106 -21t163 -49q75 -28 103 -89.5t28 -207.5q0 -138 -6.5 -298.5t-6.5 -182.5 q0 -11 1 -33.5t1 -33.5v-37q0 -58 -13 -72t-54 -14q-9 0 -23 2t-18 2q-16 0 -39 -3t-31 -3q-25 0 -56 42q-10 14 -16 21q-28 -3 -71 -13.5t-59 -10.5q-94 0 -174 93t-80 181zM166 1159q0 46 55.5 106t110.5 60q30 0 98.5 -28.5t109.5 -28.5q28 0 48 22.5t26 22.5 q25 0 76 -24.5t51 -41.5q0 -29 -54.5 -88t-105.5 -59q-31 0 -89.5 29.5t-88.5 29.5q-48 0 -81 -31.5t-36 -31.5q-16 0 -68 25t-52 38zM274 219q0 -27 22.5 -37t106.5 -10q7 0 14 2t17 6q1 15 2.5 38t1.5 30q0 23 -0.5 40.5t-1.5 34.5q-78 -4 -120 -31t-42 -73z" />
<glyph unicode="&#xe4;" horiz-adv-x="799" d="M68 256q0 114 93.5 186.5t276.5 100.5v20v43q0 66 -5.5 97.5t-16.5 31.5q-37 0 -89.5 -93t-82.5 -93q-86 0 -120 14t-34 47q0 26 27.5 95.5t68.5 140.5q39 66 72 101.5t55 35.5q19 0 106 -21t163 -49q75 -28 103 -89.5t28 -207.5q0 -138 -6.5 -298.5t-6.5 -182.5 q0 -11 1 -33.5t1 -33.5v-37q0 -58 -13 -72t-54 -14q-9 0 -23 2t-18 2q-16 0 -39 -3t-31 -3q-25 0 -56 42q-10 14 -16 21q-28 -3 -71 -13.5t-59 -10.5q-94 0 -174 93t-80 181zM121 1180q0 9 13.5 52.5t27.5 64.5q18 28 41.5 39.5t62.5 11.5q40 0 87.5 -59t47.5 -87 q0 -36 -40.5 -80.5t-80.5 -44.5q-58 0 -108.5 33t-50.5 70zM274 219q0 -27 22.5 -37t106.5 -10q7 0 14 2t17 6q1 15 2.5 38t1.5 30q0 23 -0.5 40.5t-1.5 34.5q-78 -4 -120 -31t-42 -73zM475 1180q0 10 12.5 52.5t26.5 64.5q18 27 42.5 39t63.5 12q40 0 87.5 -59t47.5 -87 q0 -36 -40.5 -80.5t-79.5 -44.5q-59 0 -109.5 33t-50.5 70z" />
<glyph unicode="&#xe5;" horiz-adv-x="801" d="M68 256q0 114 93.5 186.5t276.5 100.5q1 10 1.5 21t0.5 22q0 75 -6 112t-18 37q-37 0 -89.5 -93t-82.5 -93q-86 0 -120 14t-34 47q0 26 27.5 95.5t68.5 140.5q39 66 72 101.5t55 35.5q19 0 106 -21t163 -49q75 -28 103 -89.5t28 -207.5q0 -138 -6.5 -298.5t-6.5 -182.5 q0 -11 1 -33.5t1 -33.5v-37q0 -58 -13 -72t-54 -14q-9 0 -23 2t-18 2q-16 0 -39 -3t-31 -3q-25 0 -56 42q-10 14 -16 21q-28 -3 -71 -13.5t-59 -10.5q-94 0 -174 93t-80 181zM205 1255q0 73 79 156.5t119 83.5q15 0 77 -14.5t100 -32.5q48 -23 75 -63t27 -89 q0 -82 -78.5 -160.5t-152.5 -78.5q-107 0 -176.5 57.5t-69.5 140.5zM274 219q0 -27 22.5 -37t106.5 -10q7 0 14 2t17 6q1 15 2.5 38t1.5 30q0 23 -0.5 40.5t-1.5 34.5q-78 -4 -120 -31t-42 -73zM358 1251q0 -38 19.5 -68t40.5 -30q30 0 70 51t40 105q0 35 -17.5 58.5 t-43.5 23.5q-30 0 -69.5 -47t-39.5 -93z" />
<glyph unicode="&#xe6;" horiz-adv-x="1114" d="M68 252q0 115 94 188t276 101q1 10 1.5 20.5t0.5 20.5q0 76 -6 113.5t-18 37.5q-37 0 -89.5 -93t-82.5 -93q-86 0 -120 14t-34 47q0 26 27.5 95.5t68.5 140.5q39 66 72 101.5t55 35.5q30 0 233 -60l12 -3q53 41 74 52t36 11q1 0 15 -4q65 -19 153 -31q46 -7 79.5 -27.5 t71.5 -66.5q45 -54 68.5 -164t23.5 -262q0 -53 -133 -70q-146 -18 -254 -49v-24q0 -54 14 -75.5t48 -21.5q59 0 129 83q18 22 22 22q32 0 93 -32.5t61 -47.5q0 -26 -38 -85t-87 -103q-36 -34 -84 -52t-98 -18q-46 0 -110.5 36.5t-99.5 40.5q-35 -27 -93 -42t-134 -15 q-84 0 -165.5 96.5t-81.5 182.5zM274 225q0 -27 22.5 -37t106.5 -10q7 0 14 2t17 6q1 15 2.5 38t1.5 30q0 24 -0.5 41t-1.5 34q-78 -4 -120 -31t-42 -73zM701 483q35 6 61.5 13t48.5 16q6 9 9 23.5t3 33.5q0 17 -2 43.5t-2 36.5q0 27 -12 60.5t-27 33.5q-19 0 -44.5 -78.5 t-34.5 -181.5z" />
<glyph unicode="&#xe7;" horiz-adv-x="725" d="M68 354q0 278 65 461.5t146 183.5q5 0 19.5 -2t23.5 -2q10 0 24 2t16 2q35 0 90 -29q21 -11 32 -16q-1 0 29.5 -7t68.5 -25q41 -21 64.5 -97.5t23.5 -193.5q0 -75 -18 -107t-60 -32q-79 0 -108 11.5t-29 53.5v29q0 50 -9.5 78t-25.5 28q-30 0 -56 -106t-26 -248 q0 -8 -2 -24.5t-2 -24.5v-21q0 -27 7 -39t21 -12q48 0 102 96.5t79 96.5q58 0 104.5 -51.5t46.5 -79.5q0 -46 -35 -124t-77 -128q-24 -29 -81.5 -51.5t-103.5 -22.5q-146 0 -237.5 110t-91.5 291zM104 -389q0 35 15 60.5t34 25.5q5 0 27 -13q99 -57 196 -57q36 0 60 14.5 t24 32.5q0 37 -19.5 53.5t-64.5 16.5q-9 0 -28 -1t-29 -1q-21 0 -32 12.5t-11 36.5q0 25 9 78t26 119h100q-2 -23 -6 -55t-4 -42q0 -9 7 -16.5t15 -7.5h45q74 0 122 -47.5t48 -120.5q0 -86 -59.5 -130t-177.5 -44q-103 0 -200 30t-97 56z" />
<glyph unicode="&#xe8;" horiz-adv-x="752" d="M57 371q0 108 22.5 218.5t61.5 198.5l9 20q78 173 151 173q3 0 22 -5q71 -19 151 -30q47 -7 79 -27t72 -67q44 -52 68 -162.5t24 -263.5q0 -53 -132 -70q-146 -18 -253 -49q-2 -8 -2 -45q0 -41 14.5 -59.5t46.5 -18.5q60 0 131 85q19 22 23 22q32 0 91.5 -32.5 t59.5 -47.5q0 -26 -38 -85t-87 -103q-35 -33 -83.5 -51.5t-98.5 -18.5q-34 0 -77.5 19.5t-129.5 76.5q-63 42 -94 121.5t-31 200.5zM103 1237q0 28 51 76.5t82 48.5q12 0 83 -47.5t130 -79.5q9 -5 35 -14q75 -26 75 -60q0 -18 -38.5 -56t-57.5 -38q-9 0 -81 31.5t-128 52.5 q-22 8 -63 19q-88 24 -88 67zM338 484q35 5 61.5 12t49.5 17q5 7 8.5 22t3.5 34q0 17 -2 43.5t-2 36.5q0 29 -11.5 61.5t-25.5 32.5q-20 0 -46.5 -79t-35.5 -180z" />
<glyph unicode="&#xe9;" horiz-adv-x="752" d="M57 371q0 108 22.5 218.5t61.5 198.5l9 20q78 173 151 173q3 0 22 -5q71 -19 151 -30q47 -7 79 -27t72 -67q44 -52 68 -162.5t24 -263.5q0 -53 -132 -70q-146 -18 -253 -49q-2 -8 -2 -45q0 -41 14.5 -59.5t46.5 -18.5q60 0 131 85q19 22 23 22q32 0 91.5 -32.5 t59.5 -47.5q0 -26 -38 -85t-87 -103q-35 -33 -83.5 -51.5t-98.5 -18.5q-34 0 -77.5 19.5t-129.5 76.5q-63 42 -94 121.5t-31 200.5zM299 1161q0 35 79 62q23 8 32 12q55 30 128.5 78.5t86.5 48.5q30 0 81.5 -49t51.5 -80q0 -39 -92 -63q-40 -11 -62 -19q-54 -20 -126 -52 t-83 -32q-18 0 -57 37.5t-39 56.5zM338 484q35 5 61.5 12t49.5 17q5 7 8.5 22t3.5 34q0 17 -2 43.5t-2 36.5q0 29 -11.5 61.5t-25.5 32.5q-20 0 -46.5 -79t-35.5 -180z" />
<glyph unicode="&#xea;" horiz-adv-x="752" d="M57 371q0 108 22.5 218.5t61.5 198.5l9 20q78 173 151 173q3 0 22 -5q71 -19 151 -30q47 -7 79 -27t72 -67q44 -52 68 -162.5t24 -263.5q0 -53 -132 -70q-146 -18 -253 -49q-2 -8 -2 -45q0 -41 14.5 -59.5t46.5 -18.5q60 0 131 85q19 22 23 22q32 0 91.5 -32.5 t59.5 -47.5q0 -26 -38 -85t-87 -103q-35 -33 -83.5 -51.5t-98.5 -18.5q-34 0 -77.5 19.5t-129.5 76.5q-63 42 -94 121.5t-31 200.5zM111 1100q0 11 40 66t97 118q23 25 49 58q23 28 37 28q6 0 14 -1t11 -1q11 0 32 3t31 3q12 0 32 -3t29 -3q5 0 12.5 1t10.5 1q16 0 41 -32 q25 -31 47 -56q59 -66 98 -118.5t39 -63.5q0 -15 -12.5 -26t-30.5 -11q-88 0 -126 6.5t-50 22.5q-14 19 -37 52q-38 56 -53 56q-19 0 -69 -73q-12 -17 -19 -27q-15 -22 -48.5 -29.5t-133.5 -7.5q-17 0 -29 10.5t-12 26.5zM338 484q35 5 61.5 12t49.5 17q5 7 8.5 22t3.5 34 q0 17 -2 43.5t-2 36.5q0 29 -11.5 61.5t-25.5 32.5q-20 0 -46.5 -79t-35.5 -180z" />
<glyph unicode="&#xeb;" horiz-adv-x="752" d="M57 371q0 108 22.5 218.5t61.5 198.5l9 20q78 173 151 173q3 0 22 -5q71 -19 151 -30q47 -7 79 -27t72 -67q44 -52 68 -162.5t24 -263.5q0 -53 -132 -70q-146 -18 -253 -49q-2 -8 -2 -45q0 -41 14.5 -59.5t46.5 -18.5q60 0 131 85q19 22 23 22q32 0 91.5 -32.5 t59.5 -47.5q0 -26 -38 -85t-87 -103q-35 -33 -83.5 -51.5t-98.5 -18.5q-34 0 -77.5 19.5t-129.5 76.5q-63 42 -94 121.5t-31 200.5zM103 1180q0 9 13.5 52.5t27.5 64.5q18 28 41.5 39.5t62.5 11.5q40 0 87.5 -59t47.5 -87q0 -36 -40.5 -80.5t-80.5 -44.5q-58 0 -108.5 33 t-50.5 70zM338 484q35 5 61.5 12t49.5 17q5 7 8.5 22t3.5 34q0 17 -2 43.5t-2 36.5q0 29 -11.5 61.5t-25.5 32.5q-20 0 -46.5 -79t-35.5 -180zM457 1180q0 10 12.5 52.5t26.5 64.5q18 27 42.5 39t63.5 12q40 0 87.5 -59t47.5 -87q0 -36 -40.5 -80.5t-79.5 -44.5 q-59 0 -109.5 33t-50.5 70z" />
<glyph unicode="&#xec;" horiz-adv-x="483" d="M-57 1237q0 28 51 76.5t82 48.5q12 0 83 -47.5t130 -79.5q9 -5 35 -14q75 -26 75 -60q0 -18 -38.5 -56t-57.5 -38q-9 0 -81 31.5t-128 52.5q-22 8 -63 19q-88 24 -88 67zM117 922q0 21 29 38t67 17q91 0 139.5 -49t48.5 -140v-524q0 -32 -1 -71.5t-1 -47.5 q0 -118 -22 -148t-80 -30q-70 0 -123 36t-53 89q0 11 2 43t2 53q0 37 -3 113t-3 117v137v94v139v111q0 1 -1 3q-1 9 -1 20z" />
<glyph unicode="&#xed;" horiz-adv-x="483" d="M117 922q0 21 29 38t67 17q91 0 139.5 -49t48.5 -140v-524q0 -32 -1 -71.5t-1 -47.5q0 -118 -22 -148t-80 -30q-70 0 -123 36t-53 89q0 11 2 43t2 53q0 37 -3 113t-3 117v137v94v139v111q0 1 -1 3q-1 9 -1 20zM139 1161q0 35 79 62q23 8 32 12q55 30 128.5 78.5 t86.5 48.5q30 0 81.5 -49t51.5 -80q0 -39 -92 -63q-40 -11 -62 -19q-54 -20 -126 -52t-83 -32q-18 0 -57 37.5t-39 56.5z" />
<glyph unicode="&#xee;" horiz-adv-x="483" d="M-49 1100q0 11 40 66t97 118q23 25 49 58q23 28 37 28q6 0 14 -1t11 -1q11 0 32 3t31 3q12 0 32 -3t29 -3q5 0 12.5 1t10.5 1q16 0 41 -32q25 -31 47 -56q59 -66 98 -118.5t39 -63.5q0 -15 -12.5 -26t-30.5 -11q-88 0 -126 6.5t-50 22.5q-14 19 -37 52q-38 56 -53 56 q-19 0 -69 -73q-12 -17 -19 -27q-15 -22 -48.5 -29.5t-133.5 -7.5q-17 0 -29 10.5t-12 26.5zM117 922q0 21 29 38t67 17q91 0 139.5 -49t48.5 -140v-524q0 -32 -1 -71.5t-1 -47.5q0 -118 -22 -148t-80 -30q-70 0 -123 36t-53 89q0 11 2 43t2 53q0 37 -3 113t-3 117v137v94 v139v111q0 1 -1 3q-1 9 -1 20z" />
<glyph unicode="&#xef;" horiz-adv-x="483" d="M-57 1180q0 9 13.5 52.5t27.5 64.5q18 28 41.5 39.5t62.5 11.5q40 0 87.5 -59t47.5 -87q0 -36 -40.5 -80.5t-80.5 -44.5q-58 0 -108.5 33t-50.5 70zM117 922q0 21 29 38t67 17q91 0 139.5 -49t48.5 -140v-524q0 -32 -1 -71.5t-1 -47.5q0 -118 -22 -148t-80 -30 q-70 0 -123 36t-53 89q0 11 2 43t2 53q0 37 -3 113t-3 117v137v94v139v111q0 1 -1 3q-1 9 -1 20zM297 1180q0 10 12.5 52.5t26.5 64.5q18 27 42.5 39t63.5 12q40 0 87.5 -59t47.5 -87q0 -36 -40.5 -80.5t-79.5 -44.5q-59 0 -109.5 33t-50.5 70z" />
<glyph unicode="&#xf0;" horiz-adv-x="754" d="M61 358q0 214 76 392t139 178q45 0 79 -13.5t71 -46.5q-30 80 -65.5 142.5t-45.5 62.5q-5 0 -59 -25.5t-96 -52.5q-14 -8 -30 -18t-17 -10q-6 0 -23.5 24t-17.5 45q0 8 2 21.5t2 17.5v12q0 23 83 56t83 49q0 5 -22.5 23t-22.5 32q0 49 53.5 95.5t109.5 46.5 q16 0 52.5 -62.5t44.5 -62.5t71 34.5t82 34.5q31 0 66 -27.5t35 -54.5v-20q0 -18 -5.5 -23.5t-24.5 -7.5q-37 -3 -91.5 -27.5t-54.5 -31.5q0 -3 12 -23q57 -91 98 -198q44 -115 64 -221.5t20 -219.5q0 -218 -91.5 -373t-188.5 -155q-38 0 -75 9.5t-65 27.5q-18 11 -70.5 27 t-80.5 30q-38 20 -67.5 110t-29.5 203zM303 262q0 -34 14 -57t31 -23q40 0 73.5 96.5t33.5 239.5q0 81 -12.5 128.5t-32.5 47.5q-29 0 -68 -148.5t-39 -283.5z" />
<glyph unicode="&#xf1;" horiz-adv-x="868" d="M104 63q0 2 1 13q1 57 1 117q1 42 2 88q1 13 1 16q0 31 -2.5 89t-2.5 85q0 4 1 69.5t1 127.5q0 41 -1 83.5t-1 43.5q0 41 7.5 53.5t29.5 21.5q13 5 27.5 12t15.5 7q80 0 108 -61q2 -4 3 -5q2 -4 8 -4q3 0 21 25q97 137 180 137q40 0 96 -31q15 -9 23 -12q11 -5 31 -11 q42 -13 63 -32q46 -44 64 -101.5t18 -170.5v-21q0 -23 -7 -189.5t-12 -292.5q-4 -86 -16.5 -109t-42.5 -23q-12 0 -26 1t-15 1q-5 0 -14 -1t-13 -1q-29 0 -79 26.5t-68 55.5q-1 7 -1.5 18t-0.5 37q0 30 6 172.5t6 255.5v72q0 60 -7 80t-26 20q-35 0 -72.5 -123t-37.5 -268 v-256q0 -28 1.5 -51t4.5 -41q-6 -20 -26.5 -31.5t-49.5 -11.5q-50 0 -124.5 40t-74.5 80zM170 1159q0 46 55.5 106t110.5 60q30 0 98.5 -28.5t109.5 -28.5q28 0 48 22.5t26 22.5q25 0 76 -24.5t51 -41.5q0 -29 -54.5 -88t-105.5 -59q-31 0 -89.5 29.5t-88.5 29.5 q-48 0 -81 -31.5t-36 -31.5q-16 0 -68 25t-52 38z" />
<glyph unicode="&#xf2;" horiz-adv-x="754" d="M55 379q0 225 78.5 413.5t142.5 188.5q47 0 105.5 -25.5t83.5 -25.5q2 0 11 -4t16 -4q3 0 11 2t13 2q74 0 142.5 -140.5t68.5 -334.5q0 -195 -94 -347.5t-184 -152.5q-39 0 -77 10.5t-63 28.5q-18 11 -70.5 29t-80.5 32q-39 21 -71 115t-32 213zM80 1237q0 28 51 76.5 t82 48.5q12 0 83 -47.5t130 -79.5q9 -5 35 -14q75 -26 75 -60q0 -18 -38.5 -56t-57.5 -38q-9 0 -81 31.5t-128 52.5q-22 8 -63 19q-88 24 -88 67zM301 268q0 -37 14 -61.5t33 -24.5q40 0 71.5 101t31.5 254q0 87 -11 135.5t-30 48.5q-29 0 -69 -155.5t-40 -297.5z" />
<glyph unicode="&#xf3;" horiz-adv-x="754" d="M55 379q0 225 78.5 413.5t142.5 188.5q47 0 105.5 -25.5t83.5 -25.5q2 0 11 -4t16 -4q3 0 11 2t13 2q74 0 142.5 -140.5t68.5 -334.5q0 -195 -94 -347.5t-184 -152.5q-39 0 -77 10.5t-63 28.5q-18 11 -70.5 29t-80.5 32q-39 21 -71 115t-32 213zM276 1161q0 35 79 62 q23 8 32 12q55 30 128.5 78.5t86.5 48.5q30 0 81.5 -49t51.5 -80q0 -39 -92 -63q-40 -11 -62 -19q-54 -20 -126 -52t-83 -32q-18 0 -57 37.5t-39 56.5zM301 268q0 -37 14 -61.5t33 -24.5q40 0 71.5 101t31.5 254q0 87 -11 135.5t-30 48.5q-29 0 -69 -155.5t-40 -297.5z" />
<glyph unicode="&#xf4;" horiz-adv-x="754" d="M55 379q0 225 78.5 413.5t142.5 188.5q47 0 105.5 -25.5t83.5 -25.5q2 0 11 -4t16 -4q3 0 11 2t13 2q74 0 142.5 -140.5t68.5 -334.5q0 -195 -94 -347.5t-184 -152.5q-39 0 -77 10.5t-63 28.5q-18 11 -70.5 29t-80.5 32q-39 21 -71 115t-32 213zM88 1100q0 11 40 66 t97 118q23 25 49 58q23 28 37 28q6 0 14 -1t11 -1q11 0 32 3t31 3q12 0 32 -3t29 -3q5 0 12.5 1t10.5 1q16 0 41 -32q25 -31 47 -56q59 -66 98 -118.5t39 -63.5q0 -15 -12.5 -26t-30.5 -11q-88 0 -126 6.5t-50 22.5q-14 19 -37 52q-38 56 -53 56q-19 0 -69 -73 q-12 -17 -19 -27q-15 -22 -48.5 -29.5t-133.5 -7.5q-17 0 -29 10.5t-12 26.5zM301 268q0 -37 14 -61.5t33 -24.5q40 0 71.5 101t31.5 254q0 87 -11 135.5t-30 48.5q-29 0 -69 -155.5t-40 -297.5z" />
<glyph unicode="&#xf5;" horiz-adv-x="754" d="M55 379q0 225 78.5 413.5t142.5 188.5q47 0 105.5 -25.5t83.5 -25.5q2 0 11 -4t16 -4q3 0 11 2t13 2q74 0 142.5 -140.5t68.5 -334.5q0 -195 -94 -347.5t-184 -152.5q-39 0 -77 10.5t-63 28.5q-18 11 -70.5 29t-80.5 32q-39 21 -71 115t-32 213zM125 1159q0 46 55.5 106 t110.5 60q30 0 98.5 -28.5t109.5 -28.5q28 0 48 22.5t26 22.5q25 0 76 -24.5t51 -41.5q0 -29 -54.5 -88t-105.5 -59q-31 0 -89.5 29.5t-88.5 29.5q-48 0 -81 -31.5t-36 -31.5q-16 0 -68 25t-52 38zM301 268q0 -37 14 -61.5t33 -24.5q40 0 71.5 101t31.5 254q0 87 -11 135.5 t-30 48.5q-29 0 -69 -155.5t-40 -297.5z" />
<glyph unicode="&#xf6;" horiz-adv-x="754" d="M55 379q0 225 78.5 413.5t142.5 188.5q47 0 105.5 -25.5t83.5 -25.5q2 0 11 -4t16 -4q3 0 11 2t13 2q74 0 142.5 -140.5t68.5 -334.5q0 -195 -94 -347.5t-184 -152.5q-39 0 -77 10.5t-63 28.5q-18 11 -70.5 29t-80.5 32q-39 21 -71 115t-32 213zM80 1180q0 9 13.5 52.5 t27.5 64.5q18 28 41.5 39.5t62.5 11.5q40 0 87.5 -59t47.5 -87q0 -36 -40.5 -80.5t-80.5 -44.5q-58 0 -108.5 33t-50.5 70zM301 268q0 -37 14 -61.5t33 -24.5q40 0 71.5 101t31.5 254q0 87 -11 135.5t-30 48.5q-29 0 -69 -155.5t-40 -297.5zM434 1180q0 10 12.5 52.5 t26.5 64.5q18 27 42.5 39t63.5 12q40 0 87.5 -59t47.5 -87q0 -36 -40.5 -80.5t-79.5 -44.5q-59 0 -109.5 33t-50.5 70z" />
<glyph unicode="&#xf7;" horiz-adv-x="1706" d="M254 496v231h1198v-231h-1198zM688 205q0 68 49 117t117 49t116 -48.5t48 -117.5q0 -68 -47.5 -116t-116.5 -48t-117.5 48t-48.5 116zM688 1016q0 68 49 117t117 49q67 0 115.5 -49t48.5 -117t-48.5 -116t-117.5 -48t-116.5 48t-47.5 116z" />
<glyph unicode="&#xf8;" horiz-adv-x="754" d="M-61 -76q52 84 135 191q17 23 24 32q-19 43 -29 100t-10 132q0 225 77 413.5t140 188.5q47 0 105.5 -25.5t83.5 -25.5q2 0 11 -4t16 -4q3 0 11 2t13 2q16 0 36.5 -13t61.5 -53q56 65 94 135t42 70q6 0 16.5 -1t15.5 -1q18 0 45 -24t27 -35q0 -14 -102 -149 q-50 -66 -80 -107q25 -91 37 -161t12 -130q0 -200 -91 -353t-181 -153q-57 0 -178 53q-66 30 -107 45q-13 -23 -34 -63q-64 -119 -89 -119h-8q-5 0 -17 -3t-18 -3q-26 0 -35.5 28.5t-23.5 34.5zM270 193q14 -18 30 -27.5t34 -9.5q59 0 107.5 99.5t52.5 252.5 q-28 -39 -79 -112q-101 -143 -145 -203zM270 379q51 67 103 138t106 145q-1 3 -3 10q-23 78 -50 78q-43 0 -81.5 -92.5t-74.5 -278.5z" />
<glyph unicode="&#xf9;" horiz-adv-x="860" d="M84 430q0 152 12 283t25 170q8 24 37 36.5t80 12.5q46 0 95.5 -27.5t49.5 -52.5q0 -21 -14.5 -193t-14.5 -319v-55q1 -29 4.5 -37t14.5 -8q17 0 39.5 31.5t48.5 90.5q22 50 32.5 105t10.5 149v41v150q0 110 6.5 143t26.5 33q79 0 152 -23.5t73 -37.5q0 -6 11 -27.5 t11 -32.5q0 -10 -5 -38.5t-5 -47.5q0 -5 1 -30q5 -141 5 -283v-135q0 -70 -2 -152.5t-2 -95.5q0 -25 5 -53t5 -31q0 -12 -30 -21.5t-72 -9.5q-93 0 -136 35l-3 2q-1 0 -7 45t-18 45q-5 0 -59.5 -54t-91.5 -54q-35 0 -99.5 27.5t-83.5 54.5q-6 8 -28.5 28.5t-32.5 36.5 q-22 35 -31.5 100.5t-9.5 198.5zM121 1237q0 28 51 76.5t82 48.5q12 0 83 -47.5t130 -79.5q9 -5 35 -14q75 -26 75 -60q0 -18 -38.5 -56t-57.5 -38q-9 0 -81 31.5t-128 52.5q-22 8 -63 19q-88 24 -88 67z" />
<glyph unicode="&#xfa;" horiz-adv-x="860" d="M84 430q0 152 12 283t25 170q8 24 37 36.5t80 12.5q46 0 95.5 -27.5t49.5 -52.5q0 -21 -14.5 -193t-14.5 -319v-55q1 -29 4.5 -37t14.5 -8q17 0 39.5 31.5t48.5 90.5q22 50 32.5 105t10.5 149v41v150q0 110 6.5 143t26.5 33q79 0 152 -23.5t73 -37.5q0 -6 11 -27.5 t11 -32.5q0 -10 -5 -38.5t-5 -47.5q0 -5 1 -30q5 -141 5 -283v-135q0 -70 -2 -152.5t-2 -95.5q0 -25 5 -53t5 -31q0 -12 -30 -21.5t-72 -9.5q-93 0 -136 35l-3 2q-1 0 -7 45t-18 45q-5 0 -59.5 -54t-91.5 -54q-35 0 -99.5 27.5t-83.5 54.5q-6 8 -28.5 28.5t-32.5 36.5 q-22 35 -31.5 100.5t-9.5 198.5zM317 1161q0 35 79 62q23 8 32 12q55 30 128.5 78.5t86.5 48.5q30 0 81.5 -49t51.5 -80q0 -39 -92 -63q-40 -11 -62 -19q-54 -20 -126 -52t-83 -32q-18 0 -57 37.5t-39 56.5z" />
<glyph unicode="&#xfb;" horiz-adv-x="860" d="M84 430q0 152 12 283t25 170q8 24 37 36.5t80 12.5q46 0 95.5 -27.5t49.5 -52.5q0 -21 -14.5 -193t-14.5 -319v-55q1 -29 4.5 -37t14.5 -8q17 0 39.5 31.5t48.5 90.5q22 50 32.5 105t10.5 149v41v150q0 110 6.5 143t26.5 33q79 0 152 -23.5t73 -37.5q0 -6 11 -27.5 t11 -32.5q0 -10 -5 -38.5t-5 -47.5q0 -5 1 -30q5 -141 5 -283v-135q0 -70 -2 -152.5t-2 -95.5q0 -25 5 -53t5 -31q0 -12 -30 -21.5t-72 -9.5q-93 0 -136 35l-3 2q-1 0 -7 45t-18 45q-5 0 -59.5 -54t-91.5 -54q-35 0 -99.5 27.5t-83.5 54.5q-6 8 -28.5 28.5t-32.5 36.5 q-22 35 -31.5 100.5t-9.5 198.5zM129 1100q0 11 40 66t97 118q23 25 49 58q23 28 37 28q6 0 14 -1t11 -1q11 0 32 3t31 3q12 0 32 -3t29 -3q5 0 12.5 1t10.5 1q16 0 41 -32q25 -31 47 -56q59 -66 98 -118.5t39 -63.5q0 -15 -12.5 -26t-30.5 -11q-88 0 -126 6.5t-50 22.5 q-14 19 -37 52q-38 56 -53 56q-19 0 -69 -73q-12 -17 -19 -27q-15 -22 -48.5 -29.5t-133.5 -7.5q-17 0 -29 10.5t-12 26.5z" />
<glyph unicode="&#xfc;" horiz-adv-x="860" d="M84 430q0 152 12 283t25 170q8 24 37 36.5t80 12.5q46 0 95.5 -27.5t49.5 -52.5q0 -21 -14.5 -193t-14.5 -319v-55q1 -29 4.5 -37t14.5 -8q17 0 39.5 31.5t48.5 90.5q22 50 32.5 105t10.5 149v41v150q0 110 6.5 143t26.5 33q79 0 152 -23.5t73 -37.5q0 -6 11 -27.5 t11 -32.5q0 -10 -5 -38.5t-5 -47.5q0 -5 1 -30q5 -141 5 -283v-135q0 -70 -2 -152.5t-2 -95.5q0 -25 5 -53t5 -31q0 -12 -30 -21.5t-72 -9.5q-93 0 -136 35l-3 2q-1 0 -7 45t-18 45q-5 0 -59.5 -54t-91.5 -54q-35 0 -99.5 27.5t-83.5 54.5q-6 8 -28.5 28.5t-32.5 36.5 q-22 35 -31.5 100.5t-9.5 198.5zM121 1180q0 9 13.5 52.5t27.5 64.5q18 28 41.5 39.5t62.5 11.5q40 0 87.5 -59t47.5 -87q0 -36 -40.5 -80.5t-80.5 -44.5q-58 0 -108.5 33t-50.5 70zM475 1180q0 10 12.5 52.5t26.5 64.5q18 27 42.5 39t63.5 12q40 0 87.5 -59t47.5 -87 q0 -36 -40.5 -80.5t-79.5 -44.5q-59 0 -109.5 33t-50.5 70z" />
<glyph unicode="&#xfd;" horiz-adv-x="770" d="M57 840q0 40 20 66t52 26q87 0 146.5 -29t66.5 -72q4 -22 6.5 -131.5t14.5 -192.5q2 -15 5 -40q8 -64 25 -64t47 153q9 47 15 75q9 47 25 130q53 277 98 277t123.5 -52.5t78.5 -82.5q0 -26 -64.5 -285.5t-113.5 -492.5q-28 -139 -74.5 -340t-46.5 -238v-14 q0 -25 -5 -31.5t-21 -7.5q-74 0 -159 37t-85 66q0 15 14 94t41 217q-97 298 -153 558.5t-56 373.5zM264 1161q0 35 79 62q23 8 32 12q55 30 128.5 78.5t86.5 48.5q30 0 81.5 -49t51.5 -80q0 -39 -92 -63q-40 -11 -62 -19q-54 -20 -126 -52t-83 -32q-18 0 -57 37.5t-39 56.5z " />
<glyph unicode="&#xfe;" horiz-adv-x="840" d="M109 789v61q0 203 10.5 383.5t19.5 226.5q5 14 22 26.5t38 12.5q95 0 163 -33t68 -61q0 -3 -4 -22q-39 -197 -39 -437q0 -5 1 -13.5t1 -10.5q0 -13 6 -20t15 -7q5 0 27.5 19.5t49.5 19.5q23 0 75 -20.5t128 -59.5q65 -33 94 -93t29 -159q0 -131 -42.5 -278.5 t-104.5 -243.5q-45 -68 -75.5 -88.5t-80.5 -20.5q-28 0 -61 9.5l-33 9.5q-9 0 -14 -9t-5 -26q0 -3 1 -12t1 -15q0 -29 -6 -77.5t-6 -67.5v-234v-24q0 -22 -9 -29.5t-36 -7.5q-41 0 -105 19.5t-92 37.5q-18 12 -25 31.5t-7 63.5l1 53.5t1 105.5q0 10 -1 53q-1 185 -1 359 q0 292 -4 578zM387 256q0 -22 5 -32.5t16 -10.5q28 0 80.5 158t52.5 293q0 32 -10 45.5t-35 13.5q-62 0 -85.5 -74.5t-23.5 -314.5v-78z" />
<glyph unicode="&#xff;" horiz-adv-x="770" d="M57 840q0 40 20 66t52 26q87 0 146.5 -29t66.5 -72q4 -22 6.5 -131.5t14.5 -192.5q2 -15 5 -40q8 -64 25 -64t47 153q9 47 15 75q9 47 25 130q53 277 98 277t123.5 -52.5t78.5 -82.5q0 -26 -64.5 -285.5t-113.5 -492.5q-28 -139 -74.5 -340t-46.5 -238v-14 q0 -25 -5 -31.5t-21 -7.5q-74 0 -159 37t-85 66q0 15 14 94t41 217q-97 298 -153 558.5t-56 373.5zM68 1180q0 9 13.5 52.5t27.5 64.5q18 28 41.5 39.5t62.5 11.5q40 0 87.5 -59t47.5 -87q0 -36 -40.5 -80.5t-80.5 -44.5q-58 0 -108.5 33t-50.5 70zM422 1180q0 10 12.5 52.5 t26.5 64.5q18 27 42.5 39t63.5 12q40 0 87.5 -59t47.5 -87q0 -36 -40.5 -80.5t-79.5 -44.5q-59 0 -109.5 33t-50.5 70z" />
<glyph unicode="&#x152;" horiz-adv-x="1444" d="M70 586q0 189 38.5 348.5t141.5 355.5q43 85 87 118.5t105 33.5q5 0 23 -1t31 -1q34 0 97 -20.5t86 -26.5q26 1 63.5 5.5t50.5 4.5q10 0 48 -4t66 -4q22 0 83 4t100 4q74 0 157 -17t94 -28q28 -27 49 -92.5t21 -135.5q0 -22 -147 -35q-143 -12 -246 -26q-5 -40 -7.5 -83 t-2.5 -93q0 -16 0.5 -31.5t1.5 -32.5q13 0 44.5 1t49.5 1q76 0 127.5 -5.5t60.5 -14.5q47 -52 63.5 -87.5t16.5 -74.5q0 -11 -2 -28.5t-2 -22.5q0 -4 1 -12t1 -13q0 -19 -157 -43q-128 -19 -214 -34q0 -27 1 -56.5t1 -31.5q0 -12 -1 -31t-1 -27q0 -11 3 -26t8 -31 q85 5 155 7.5t95 2.5q34 0 36 -23q1 -10 4 -14q6 -6 22 -18q89 -73 89 -178q0 -23 -8 -31t-47 -8t-115 -20.5t-110 -24.5q-6 -1 -20 -3q-157 -18 -236 -46q-28 8 -54.5 23t-50.5 36q-24 -13 -54 -32q-43 -27 -91 -27h-17q-45 0 -98 22q-15 6 -18 6q-6 0 -19 1q-85 2 -143 42 q-129 88 -194.5 233.5t-65.5 344.5zM406 549q0 -168 34.5 -248t106.5 -80q64 0 97.5 139t33.5 402q0 5 -1 25q-1 77 -1 147q0 107 -21 167t-57 60q-61 0 -126.5 -195.5t-65.5 -416.5z" />
<glyph unicode="&#x153;" horiz-adv-x="1145" d="M59 379q0 227 77 414.5t140 187.5q47 0 105.5 -25.5t83.5 -25.5l1 -1q6 -3 50 -3q13 0 28.5 -8.5t37.5 -26.5q18 44 46 67t64 23l54.5 -13t120.5 -22q47 -7 79.5 -27t71.5 -67q44 -52 68 -162.5t24 -263.5q0 -53 -133 -70q-147 -18 -254 -49v-24q0 -54 13.5 -75.5 t47.5 -21.5q60 0 130 83q18 22 22 22q32 0 93 -32.5t61 -47.5q0 -26 -38 -85t-87 -103q-37 -34 -85.5 -53t-97.5 -19q-33 0 -78 20.5t-116 69.5q-38 -39 -79.5 -64.5t-59.5 -25.5q-39 0 -76 10t-66 29q-17 11 -68.5 28.5t-80.5 32.5q-38 21 -68.5 115.5t-30.5 212.5z M303 268q0 -37 13.5 -61.5t31.5 -24.5q39 0 68.5 100t29.5 255q0 92 -9 138t-27 46q-29 0 -68 -155t-39 -298zM729 483q37 6 64 13t49 16q5 8 8.5 23t3.5 34q0 17 -2 43.5t-2 36.5q0 27 -12.5 60.5t-26.5 33.5q-20 0 -46 -79t-36 -181z" />
<glyph unicode="&#x178;" horiz-adv-x="909" d="M49 1278q0 27 58 63.5t100 36.5q98 0 194 -248l15 -39q16 -42 37 -101q25 -72 39 -72q10 0 51 136t82 249q11 30 27 83q47 146 104 146q59 0 138 -42t79 -79q0 -40 -75.5 -284.5t-184.5 -530.5q-4 -10 -14 -32q-49 -106 -56 -257q0 -152 -7 -287q-1 -19 -1 -22 q0 -25 -20.5 -33t-73.5 -8q-29 0 -65 12t-40 13q-8 1 -38.5 4t-51.5 12q-17 8 -23 15t-6 20q0 2 2.5 19.5t2.5 33.5q0 10 -4.5 100t-4.5 170q0 16 2 46t2 44q0 12 -55 122t-96 235q-57 171 -87 293.5t-30 181.5zM154 1694q0 9 13.5 52.5t27.5 64.5q18 28 41.5 39.5 t62.5 11.5q40 0 87.5 -59t47.5 -87q0 -36 -40.5 -80.5t-80.5 -44.5q-58 0 -108.5 33t-50.5 70zM508 1694q0 10 12.5 52.5t26.5 64.5q18 27 42.5 39t63.5 12q40 0 87.5 -59t47.5 -87q0 -36 -40.5 -80.5t-79.5 -44.5q-59 0 -109.5 33t-50.5 70z" />
<glyph unicode="&#x2c6;" horiz-adv-x="1024" d="M203 1100q0 11 40 66t97 118q23 25 49 58q23 28 37 28q6 0 14 -1t11 -1q11 0 32 3t31 3q12 0 32 -3t29 -3q5 0 12.5 1t10.5 1q16 0 41 -32q25 -31 47 -56q59 -66 98 -118.5t39 -63.5q0 -15 -12.5 -26t-30.5 -11q-88 0 -126 6.5t-50 22.5q-14 19 -37 52q-38 56 -53 56 q-19 0 -69 -73q-12 -17 -19 -27q-15 -22 -48.5 -29.5t-133.5 -7.5q-17 0 -29 10.5t-12 26.5z" />
<glyph unicode="&#x2dc;" horiz-adv-x="1024" d="M240 1159q0 46 55.5 106t110.5 60q30 0 98.5 -28.5t109.5 -28.5q28 0 48 22.5t26 22.5q25 0 76 -24.5t51 -41.5q0 -29 -54.5 -88t-105.5 -59q-31 0 -89.5 29.5t-88.5 29.5q-48 0 -81 -31.5t-36 -31.5q-16 0 -68 25t-52 38z" />
<glyph unicode="&#x2000;" horiz-adv-x="969" />
<glyph unicode="&#x2001;" horiz-adv-x="1939" />
<glyph unicode="&#x2002;" horiz-adv-x="969" />
<glyph unicode="&#x2003;" horiz-adv-x="1939" />
<glyph unicode="&#x2004;" horiz-adv-x="646" />
<glyph unicode="&#x2005;" horiz-adv-x="484" />
<glyph unicode="&#x2006;" horiz-adv-x="323" />
<glyph unicode="&#x2007;" horiz-adv-x="323" />
<glyph unicode="&#x2008;" horiz-adv-x="242" />
<glyph unicode="&#x2009;" horiz-adv-x="387" />
<glyph unicode="&#x200a;" horiz-adv-x="107" />
<glyph unicode="&#x2010;" horiz-adv-x="664" d="M82 530q0 22 2.5 29.5t9.5 7.5q4 0 8.5 -3t6.5 -3q3 0 7 4t5 4q4 0 11.5 -2t12.5 -2q2 0 18.5 4t33.5 4q20 0 50 -1t40 -1q16 0 38.5 1t28.5 1q129 0 169 -9.5t40 -35.5q0 -6 -2 -12l-2 -6q0 -2 4 -9q21 -40 21 -95q0 -36 -5 -44t-18 -8q-2 0 -9.5 3t-12.5 3t-43.5 -8 t-71.5 -8q-19 0 -54 5t-51 5q-11 0 -38 -4t-41 -4q-11 0 -25 1t-18 1q-10 0 -21 -1t-14 -1q-23 0 -51.5 62.5t-28.5 121.5z" />
<glyph unicode="&#x2011;" horiz-adv-x="664" d="M82 530q0 22 2.5 29.5t9.5 7.5q4 0 8.5 -3t6.5 -3q3 0 7 4t5 4q4 0 11.5 -2t12.5 -2q2 0 18.5 4t33.5 4q20 0 50 -1t40 -1q16 0 38.5 1t28.5 1q129 0 169 -9.5t40 -35.5q0 -6 -2 -12l-2 -6q0 -2 4 -9q21 -40 21 -95q0 -36 -5 -44t-18 -8q-2 0 -9.5 3t-12.5 3t-43.5 -8 t-71.5 -8q-19 0 -54 5t-51 5q-11 0 -38 -4t-41 -4q-11 0 -25 1t-18 1q-10 0 -21 -1t-14 -1q-23 0 -51.5 62.5t-28.5 121.5z" />
<glyph unicode="&#x2012;" horiz-adv-x="664" d="M82 530q0 22 2.5 29.5t9.5 7.5q4 0 8.5 -3t6.5 -3q3 0 7 4t5 4q4 0 11.5 -2t12.5 -2q2 0 18.5 4t33.5 4q20 0 50 -1t40 -1q16 0 38.5 1t28.5 1q129 0 169 -9.5t40 -35.5q0 -6 -2 -12l-2 -6q0 -2 4 -9q21 -40 21 -95q0 -36 -5 -44t-18 -8q-2 0 -9.5 3t-12.5 3t-43.5 -8 t-71.5 -8q-19 0 -54 5t-51 5q-11 0 -38 -4t-41 -4q-11 0 -25 1t-18 1q-10 0 -21 -1t-14 -1q-23 0 -51.5 62.5t-28.5 121.5z" />
<glyph unicode="&#x2013;" horiz-adv-x="1024" d="M0 389v162h1024v-162h-1024z" />
<glyph unicode="&#x2014;" horiz-adv-x="2048" d="M0 389v162h2048v-162h-2048z" />
<glyph unicode="&#x2018;" horiz-adv-x="426" d="M86 975q0 13 33 157.5t59 274.5q6 30 19 45.5t32 15.5q24 0 87 -30q29 -14 45 -21q9 -3 13.5 -8.5t4.5 -15.5v-9q0 -77 -19.5 -195.5t-19.5 -156.5q0 -3 -8 -44.5t-15 -80.5q-3 -21 -11 -25.5t-42 -4.5q-52 0 -115 31t-63 67z" />
<glyph unicode="&#x2019;" horiz-adv-x="426" d="M86 956q0 92 24.5 243t28.5 190q6 57 14 68t44 11h8q50 0 112 -30.5t62 -65.5q0 -11 -35 -167t-59 -271q-7 -30 -19.5 -43.5t-34.5 -13.5q-25 0 -85 28.5t-60 50.5z" />
<glyph unicode="&#x201a;" horiz-adv-x="426" d="M53 -137q0 90 25 241.5t28 190.5q7 58 14.5 69t43.5 11h8q50 0 112 -30.5t62 -65.5q0 -13 -33 -159.5t-59 -275.5q-6 -30 -18.5 -45.5t-30.5 -15.5q-29 0 -90.5 28.5t-61.5 51.5z" />
<glyph unicode="&#x201c;" horiz-adv-x="799" d="M84 975q0 12 34 155.5t60 276.5q6 31 18.5 46t30.5 15q24 0 87 -30q29 -14 45 -21q9 -3 13.5 -8.5t4.5 -15.5v-9q0 -77 -19.5 -195.5t-19.5 -156.5q0 -4 -4.5 -31.5t-16.5 -93.5q-3 -21 -11 -25.5t-44 -4.5q-52 0 -115 31t-63 67zM457 975q0 12 34 155.5t60 276.5 q6 31 18.5 46t30.5 15q24 0 87 -30q29 -14 44 -21q10 -3 14.5 -8.5t4.5 -15.5v-9q0 -77 -19.5 -195.5t-19.5 -156.5q0 -4 -4.5 -31.5t-16.5 -93.5q-3 -20 -11 -25t-44 -5q-52 0 -115 31t-63 67z" />
<glyph unicode="&#x201d;" horiz-adv-x="799" d="M86 956q0 92 24.5 243t28.5 190q6 57 14 68t44 11h8q50 0 112 -30.5t62 -65.5q0 -11 -35 -167t-59 -271q-7 -30 -19.5 -43.5t-34.5 -13.5q-25 0 -85 28.5t-60 50.5zM459 956q0 92 24.5 243t28.5 190q6 57 14 68t43 11h9q49 0 111.5 -30.5t62.5 -65.5q0 -11 -35 -167 t-60 -271q-6 -30 -19 -43.5t-34 -13.5q-25 0 -85 28.5t-60 50.5z" />
<glyph unicode="&#x201e;" horiz-adv-x="799" d="M53 -137q0 90 25 241.5t28 190.5q7 58 14.5 69t43.5 11h8q50 0 112 -30.5t62 -65.5q0 -13 -33 -159.5t-59 -275.5q-6 -30 -18.5 -45.5t-30.5 -15.5q-29 0 -90.5 28.5t-61.5 51.5zM426 -137q0 90 24.5 241.5t28.5 190.5q6 58 14 69t44 11h8q50 0 112 -30.5t62 -65.5 q0 -13 -33 -159.5t-59 -275.5q-6 -30 -19.5 -45.5t-32.5 -15.5q-29 0 -89 28.5t-60 51.5z" />
<glyph unicode="&#x2022;" horiz-adv-x="1208" d="M307 762q0 123 87 209t210 86q122 0 208.5 -86.5t86.5 -208.5t-87.5 -209.5t-209.5 -87.5q-123 0 -209 87t-86 210z" />
<glyph unicode="&#x2026;" horiz-adv-x="2048" d="M162 154q0 78 50 147.5t97 69.5q87 0 147 -65.5t60 -162.5q0 -80 -51 -138t-102 -58q-84 0 -137.5 45t-53.5 106q0 12 -5 30t-5 26zM844 154q0 78 50 147.5t97 69.5q87 0 147 -65.5t60 -162.5q0 -80 -51 -138t-102 -58q-84 0 -137.5 45t-53.5 106q0 12 -5 30t-5 26z M1528 154q0 78 50 147.5t97 69.5q87 0 147 -65.5t60 -162.5q0 -80 -51 -138t-102 -58q-84 0 -137.5 45t-53.5 106q0 12 -5 30t-5 26z" />
<glyph unicode="&#x202f;" horiz-adv-x="387" />
<glyph unicode="&#x2039;" horiz-adv-x="567" d="M78 440q0 34 67 148q30 51 48 82q17 31 42 85q46 97 80 97q66 0 129.5 -22t63.5 -46q0 -2 -37.5 -65.5t-75.5 -136.5q-19 -38 -47.5 -87.5t-28.5 -56.5q0 -3 25.5 -50.5t59.5 -105.5q12 -21 35 -59q69 -113 69 -133q0 -27 -53.5 -50.5t-120.5 -23.5q-20 0 -53.5 44.5 t-94.5 152.5q-48 87 -78 150t-30 77z" />
<glyph unicode="&#x203a;" horiz-adv-x="567" d="M59 84q0 3 38 67t75 136q19 38 47.5 87t28.5 56q0 2 -20.5 40.5t-53.5 98.5q-25 45 -66 112q-49 80 -49 95q0 29 53 52.5t121 23.5q20 0 53.5 -44.5t94.5 -152.5q49 -86 78.5 -149t29.5 -78q0 -31 -64 -141q-32 -55 -50 -88t-43 -87q-44 -96 -80 -96q-64 0 -128.5 22 t-64.5 46z" />
<glyph unicode="&#x205f;" horiz-adv-x="484" />
<glyph unicode="&#x20ac;" horiz-adv-x="987" d="M51 481q0 9 9.5 37.5t9.5 40.5q0 6 1 12t1 9q0 6 10.5 11t26.5 5h46q2 23 5 47.5t8 50.5h-6q-6 0 -36.5 -2t-43.5 -2q-16 0 -23.5 3.5t-7.5 11.5t9.5 37t9.5 40q0 6 1 12t1 9q0 6 10.5 11t26.5 5h88q16 65 33.5 120t37.5 103q31 74 68 136.5t76 105.5q7 8 19 22 q13 15 18 17q42 6 84 10t59 4q168 0 260 -88.5t92 -244.5q0 -54 -5 -87q-1 -6 -1 -8q0 -26 -26 -35.5t-105 -9.5q-69 0 -101.5 32.5t-41.5 107.5q-1 2 -1 8q-6 55 -36 55q-17 0 -39.5 -48t-54.5 -154q-4 -15 -7.5 -26t-7.5 -22q35 0 104 2t103 2q21 0 29 -4.5t8 -19.5 q0 -10 -2 -20.5t-2 -12.5q0 -9 -7 -29t-8 -23q-3 -10 -12.5 -15t-28.5 -5q-3 0 -19.5 1t-29.5 1h-163q-5 -18 -8.5 -39t-7.5 -61q57 2 107 3t89 1q20 0 28.5 -5t8.5 -20q0 -9 -2.5 -20t-2.5 -12q0 -9 -6.5 -28t-7.5 -22q-3 -10 -12.5 -15t-28.5 -5h-49q-53 0 -79.5 0.5 t-51.5 1.5q2 -132 27 -203t71 -71q80 0 139 165q11 31 17 48h12q11 0 24.5 2t14.5 2q24 0 51.5 -14.5t75.5 -53.5q8 -6 23 -14q18 -9 18 -21v-8q0 -3 3 -15t3 -20v-22q0 -23 -15 -54t-48 -81q-52 -80 -120 -122t-147 -42q-190 0 -319 146t-144 376q-15 -2 -35.5 -3t-35.5 -1 q-16 0 -23 3t-8 11z" />
<glyph unicode="&#x2122;" horiz-adv-x="1706" d="M188 1337v127h502v-127h-164v-424h-174v424h-164zM797 913v551h223l113 -303l114 303h221v-551h-155v390l-146 -390h-65l-150 390v-390h-155z" />
<glyph unicode="&#xe000;" horiz-adv-x="1050" d="M0 0v1050h1050v-1050h-1050z" />
</font>
</defs>
</svg>
